{"glyphs":{"0":{"ha":625,"x_min":28,"x_max":600,"o":"m 592 438 q 594 323 600 382 q 568 207 588 264 q 539 144 554 168 q 494 92 524 119 q 317 19 404 3 q 270 33 290 24 q 229 57 250 42 q 201 83 222 63 q 156 128 179 104 q 99 188 121 163 q 65 239 78 214 q 45 293 51 264 q 33 365 39 322 q 29 423 31 385 q 28 502 28 461 q 29 579 28 543 q 33 631 31 615 q 72 757 44 707 q 146 839 99 807 q 192 863 171 856 q 244 872 214 869 q 266 872 253 872 q 293 869 279 871 q 319 866 307 868 q 336 863 331 864 q 356 844 339 860 q 396 807 374 828 q 424 778 413 790 q 442 758 435 767 q 454 742 449 750 q 467 724 460 733 q 483 699 475 711 q 494 679 492 686 q 504 661 497 672 q 518 639 511 650 q 565 547 547 594 q 592 438 582 499 m 453 301 q 484 495 488 394 q 439 686 481 596 q 399 750 422 726 l 388 761 l 367 761 q 302 752 331 761 q 243 719 274 743 q 176 635 200 688 q 140 501 151 583 q 138 462 139 489 q 138 403 138 435 q 139 342 138 372 q 142 292 140 311 q 157 188 147 229 q 179 139 167 146 q 222 129 193 132 q 269 132 250 126 q 331 158 301 140 q 390 207 360 175 q 428 251 414 231 q 453 301 442 272 z "},"1":{"ha":201,"x_min":26,"x_max":174,"o":"m 139 779 l 139 749 q 141 660 139 724 q 149 490 143 597 q 149 451 149 472 q 151 408 150 429 q 153 369 153 388 q 154 339 154 351 q 158 229 156 286 q 164 124 161 172 q 169 42 167 75 q 172 6 171 8 q 171 0 174 0 q 152 16 168 0 q 113 54 136 32 l 60 108 l 57 174 q 53 251 56 201 q 49 344 51 300 q 39 541 43 444 q 32 713 35 638 q 28 836 29 789 q 28 885 26 883 q 85 833 32 886 l 139 779 z "},"2":{"ha":642,"x_min":28,"x_max":614,"o":"m 560 114 q 599 74 583 90 q 613 57 614 58 q 606 50 610 53 q 590 46 601 47 q 559 43 579 44 q 507 40 539 42 q 349 31 401 35 q 272 24 297 28 q 242 20 257 21 q 219 19 226 19 l 206 19 l 153 71 q 115 110 131 93 q 97 129 99 126 q 96 138 94 136 q 106 151 96 140 q 132 174 117 161 q 210 257 172 211 q 294 374 247 303 q 353 475 331 428 q 388 571 375 522 q 392 599 392 586 q 394 638 393 611 q 392 690 394 669 q 381 738 389 710 l 376 751 l 368 746 q 340 722 364 744 q 286 668 317 699 q 204 581 233 615 q 151 513 175 547 l 142 497 l 182 457 q 219 415 224 415 q 210 417 215 414 q 190 432 206 418 q 155 465 175 446 q 113 506 135 483 q 72 547 90 528 q 40 578 53 565 q 28 594 28 592 q 49 633 28 601 q 99 697 71 664 q 131 732 107 707 q 181 783 154 757 q 230 831 207 810 q 258 856 253 851 q 324 865 297 881 q 345 845 326 863 q 388 804 364 828 q 424 767 410 781 q 446 741 438 753 q 460 716 454 729 q 474 683 467 703 q 503 574 497 622 q 501 478 510 526 q 495 452 500 468 q 484 419 490 436 q 471 384 478 401 q 458 356 464 367 q 408 269 440 319 q 340 174 375 218 q 326 155 332 163 q 322 147 321 147 q 335 149 329 149 q 347 149 340 149 q 364 150 354 149 q 405 152 381 151 q 446 154 429 153 q 483 157 474 156 q 497 163 492 158 l 506 168 l 560 114 z "},"3":{"ha":615,"x_min":28,"x_max":589,"o":"m 506 90 q 396 35 458 54 q 281 24 333 17 q 234 33 254 28 q 194 51 214 39 q 153 83 175 63 q 100 135 131 103 q 50 188 64 171 q 36 214 36 206 q 43 211 36 217 q 68 189 50 206 q 90 168 81 176 q 108 154 100 160 q 126 145 117 149 q 150 139 136 142 q 178 135 163 136 q 209 135 193 135 q 240 135 225 135 q 264 139 254 136 q 446 256 388 168 q 464 287 456 268 q 469 308 472 306 q 457 309 468 310 q 430 307 446 308 q 397 303 414 306 q 369 299 381 300 q 344 293 353 294 q 326 296 335 292 q 305 312 317 300 q 269 347 293 324 q 230 387 246 371 q 214 404 214 403 q 219 410 214 406 q 231 422 224 415 q 271 461 250 440 q 310 503 292 482 q 343 542 328 524 q 368 574 358 560 q 392 619 379 592 q 413 669 406 647 q 419 695 418 685 q 421 726 421 706 q 421 750 421 740 q 419 760 421 760 q 408 757 418 761 q 383 745 397 753 q 354 728 369 738 q 328 710 339 718 q 244 632 279 674 q 181 532 210 590 q 167 501 174 518 q 154 469 160 485 q 145 441 149 454 q 142 421 142 428 q 140 410 140 417 q 139 406 140 407 q 121 421 138 406 q 82 458 104 436 l 28 513 l 29 526 q 34 548 31 535 q 43 577 38 561 q 56 610 49 593 q 69 640 63 626 q 207 811 122 744 q 244 837 222 824 q 287 861 265 850 q 326 880 308 872 q 351 888 343 888 q 363 885 357 888 q 378 876 369 883 q 401 856 388 869 q 439 818 415 842 q 485 769 474 782 q 504 742 497 756 q 521 697 514 724 q 531 647 528 671 q 515 536 538 594 q 449 425 493 478 q 439 414 440 417 q 436 410 436 411 q 440 406 436 408 q 449 401 444 404 q 474 380 454 399 q 517 338 493 361 q 553 300 539 314 q 574 276 567 286 q 583 258 581 265 q 588 240 586 250 q 583 203 589 224 q 565 163 576 183 q 539 123 554 142 q 506 90 524 104 z "},"4":{"ha":624,"x_min":26,"x_max":597,"o":"m 458 351 q 440 351 456 351 q 406 347 425 350 q 319 341 361 343 q 241 339 276 339 q 180 340 206 339 q 146 344 154 342 q 125 358 139 346 q 81 403 111 371 q 35 449 44 438 q 28 463 26 460 q 38 475 29 465 q 58 496 47 485 q 88 528 75 513 q 113 558 101 543 q 135 590 124 574 q 160 629 147 607 q 176 660 168 643 q 193 696 185 678 q 209 731 201 714 q 221 760 217 747 q 232 790 226 774 q 242 824 238 807 q 249 854 246 840 q 254 876 253 868 q 258 894 254 894 q 276 879 260 894 q 315 840 293 864 q 346 810 335 821 q 362 793 357 799 q 367 785 367 788 q 367 779 368 782 q 361 747 364 769 q 353 716 358 735 q 340 677 347 697 q 326 637 333 657 q 310 600 318 617 q 276 534 296 569 q 242 475 257 499 l 228 456 l 244 456 q 269 456 251 456 q 304 460 286 457 q 342 463 322 461 q 374 465 363 464 q 395 467 385 465 q 410 469 406 468 q 420 469 417 471 q 439 451 424 467 q 461 432 460 431 l 461 447 q 460 464 461 454 q 460 485 460 474 q 459 531 460 499 q 458 605 458 564 q 458 690 458 646 q 459 773 458 735 q 460 837 460 811 q 461 867 460 863 q 467 878 464 878 q 525 825 471 879 q 555 795 544 806 q 571 778 565 785 q 577 769 576 772 q 576 765 578 767 q 572 749 574 763 q 570 710 571 736 q 569 642 569 683 q 569 543 569 601 q 570 444 569 483 q 572 370 571 406 q 575 296 572 335 q 582 197 578 257 q 588 108 586 142 q 592 55 590 74 q 594 29 593 36 q 594 21 594 22 q 594 15 597 15 q 576 31 593 15 q 538 71 560 47 l 483 125 l 478 186 q 474 244 476 211 q 471 299 472 276 l 467 351 l 458 351 l 458 351 z "},"5":{"ha":599,"x_min":28,"x_max":574,"o":"m 274 719 q 219 649 250 711 q 207 622 210 629 q 201 611 204 617 q 208 613 201 610 q 224 618 215 615 q 367 607 304 647 q 397 581 375 601 q 444 535 419 560 q 489 488 468 511 q 517 456 510 465 q 554 384 540 422 q 571 314 568 346 q 549 202 574 263 q 481 96 525 142 q 397 38 444 57 q 310 28 350 19 q 238 64 274 36 q 210 89 231 69 q 165 132 189 108 q 131 169 144 153 q 106 199 117 185 q 85 227 94 213 q 65 261 76 242 q 49 296 57 276 q 42 322 42 315 q 57 309 42 324 q 96 271 72 294 q 126 240 114 251 q 144 222 138 229 q 153 210 150 215 q 157 201 156 206 q 163 185 158 196 q 172 167 168 175 l 183 146 l 203 140 q 340 178 265 124 q 404 246 372 200 q 428 285 419 267 q 444 328 436 303 q 460 404 460 371 q 447 476 460 438 q 439 499 443 489 q 432 511 435 508 q 393 519 424 519 q 332 507 363 518 q 267 476 306 497 q 199 435 228 456 q 185 426 194 432 q 166 416 175 421 q 149 408 157 411 q 140 404 142 404 q 121 422 139 404 q 82 460 103 439 q 44 500 61 482 q 28 521 28 518 q 32 540 28 524 q 43 578 36 556 q 57 624 50 600 q 71 664 64 647 q 118 776 94 735 q 163 828 142 818 q 178 833 171 832 q 213 831 185 833 q 256 828 231 829 q 309 828 282 828 q 359 828 336 828 q 394 831 382 829 l 418 833 l 472 779 q 511 740 496 756 q 525 724 526 724 q 501 719 522 721 q 448 717 479 718 q 383 717 417 717 q 324 719 349 717 q 274 719 283 721 z "},"6":{"ha":468,"x_min":28,"x_max":440,"o":"m 425 171 q 390 101 414 131 q 333 56 365 72 q 311 47 324 51 q 292 42 299 43 q 252 38 274 38 q 217 42 231 38 q 204 47 211 44 q 193 53 197 50 q 167 76 189 56 q 121 122 146 97 q 81 165 96 149 q 57 192 65 181 q 44 216 49 204 q 35 246 39 228 q 28 313 28 269 q 35 399 28 357 q 49 475 40 433 q 71 560 58 517 q 97 645 83 603 q 126 724 111 688 q 150 778 136 749 q 176 831 164 807 q 199 870 189 854 q 213 886 210 886 q 230 871 214 886 q 268 832 246 856 l 324 778 l 317 772 q 303 751 313 767 q 283 715 294 736 q 261 669 272 693 q 240 624 250 646 q 229 596 235 611 q 219 567 224 581 q 213 545 215 554 q 210 535 210 536 q 214 533 211 533 q 225 532 217 532 q 288 501 253 528 q 318 473 297 493 q 361 431 339 453 q 401 388 383 408 q 421 363 418 368 q 434 324 429 346 q 440 275 439 301 q 437 222 440 249 q 425 171 433 196 m 329 375 q 326 419 329 413 q 301 421 322 425 q 274 412 289 418 q 244 397 258 406 q 216 377 229 388 q 196 357 203 367 q 174 320 186 344 q 157 278 163 296 q 149 245 153 263 q 144 211 146 228 q 142 181 142 194 q 143 158 142 167 l 144 149 l 165 150 q 185 153 174 150 q 204 158 197 156 q 296 235 264 179 q 329 375 328 290 z "},"7":{"ha":524,"x_min":28,"x_max":496,"o":"m 438 810 l 496 753 l 494 729 q 491 707 493 721 q 486 683 489 693 q 475 649 482 671 q 459 601 468 628 q 440 544 450 574 q 418 486 429 515 q 385 395 400 438 q 359 313 371 353 q 338 235 347 274 q 319 156 328 197 q 307 102 313 125 q 301 76 301 79 q 288 84 300 74 q 244 126 276 94 l 190 181 l 197 213 q 218 310 207 263 q 244 406 229 357 q 276 506 258 454 q 317 621 293 558 q 349 706 339 679 q 356 735 358 732 q 344 733 350 735 q 319 729 333 731 q 274 725 301 726 q 213 721 246 724 l 140 718 l 28 831 l 39 831 q 65 831 46 831 q 105 832 83 831 q 149 835 126 833 q 183 838 171 836 q 228 844 197 840 q 286 854 258 849 q 338 865 314 861 q 367 868 361 868 l 379 868 l 438 810 z "},"8":{"ha":489,"x_min":28,"x_max":465,"o":"m 372 754 q 417 708 397 729 q 439 683 436 688 q 460 575 465 639 q 452 533 457 553 q 436 494 447 514 q 408 453 425 475 q 367 404 392 432 l 344 379 l 376 347 q 401 319 390 333 q 418 299 413 306 q 438 235 436 267 q 428 174 440 204 q 390 118 417 144 q 325 72 364 92 q 306 64 315 68 q 290 57 296 60 q 272 53 283 54 q 249 51 261 51 q 226 51 238 51 q 210 54 215 51 q 192 61 200 57 q 175 74 185 65 q 151 95 165 82 q 114 132 136 108 q 67 178 88 157 q 44 204 47 200 q 31 237 35 219 q 28 278 28 254 q 44 375 28 326 q 90 464 61 424 q 122 499 103 482 q 154 524 140 517 q 169 532 169 529 q 165 538 168 535 q 160 542 163 540 q 156 547 158 544 q 100 640 119 588 q 92 685 93 660 q 96 729 90 711 q 206 825 114 799 q 226 830 217 829 q 253 831 236 831 q 278 828 268 831 q 301 819 289 826 q 328 796 313 811 q 372 754 344 781 m 326 313 q 321 372 332 340 q 313 389 317 383 q 297 404 308 394 q 281 418 285 417 q 271 417 278 419 q 201 356 235 401 q 151 253 168 311 q 145 228 149 242 q 140 201 142 214 q 137 177 138 188 q 138 164 136 167 q 147 161 140 161 q 175 167 153 161 q 192 172 182 168 q 210 179 201 176 q 326 313 311 228 m 351 719 l 339 719 q 307 713 328 719 q 269 697 286 706 q 238 672 254 689 q 214 642 221 656 q 207 553 194 603 q 213 537 210 540 q 222 532 215 533 q 240 519 231 529 q 248 512 244 515 q 253 510 251 508 q 260 518 256 513 l 278 536 q 332 615 317 581 q 350 693 347 649 l 351 719 z "},"9":{"ha":474,"x_min":25,"x_max":446,"o":"m 364 740 q 385 715 371 731 q 414 683 400 699 l 446 650 l 444 619 q 442 559 443 607 q 442 454 442 511 q 438 296 440 360 q 433 188 436 232 q 424 113 429 143 q 410 58 418 83 q 378 -3 394 18 q 338 -37 363 -25 q 320 -44 326 -43 q 300 -47 314 -46 q 268 -44 282 -47 q 238 -24 256 -39 q 179 33 221 -10 q 144 70 158 54 q 119 99 129 86 q 101 124 108 113 q 86 150 93 136 q 77 170 82 158 q 68 193 72 182 q 62 213 64 204 q 60 224 60 222 q 76 210 60 225 q 114 172 92 196 l 168 118 l 189 65 l 201 65 q 257 94 231 67 q 299 165 283 121 q 315 229 308 193 q 324 322 321 265 l 326 347 l 311 335 q 283 314 296 322 q 254 301 269 306 q 226 295 238 296 q 203 301 215 294 q 173 324 190 308 q 126 368 156 340 q 82 415 101 393 q 58 443 63 436 q 34 506 43 467 q 28 576 25 544 q 82 736 36 665 q 117 778 94 756 q 156 813 139 800 l 174 825 l 186 831 l 201 835 q 271 828 236 844 q 313 794 286 821 q 364 740 340 768 m 306 679 q 310 706 308 694 q 314 719 313 717 q 299 721 317 728 q 258 697 281 714 q 205 643 229 675 q 165 574 181 611 q 142 497 149 536 q 140 422 136 458 q 146 411 143 411 q 169 422 150 411 q 205 448 185 429 q 236 485 225 467 q 275 567 257 517 q 306 679 293 618 z "},"\u0000":{"ha":0,"x_min":0,"x_max":0,"o":""},"\r":{"ha":0,"x_min":0,"x_max":0,"o":""}," ":{"ha":429,"x_min":0,"x_max":0,"o":""},"!":{"ha":188,"x_min":28,"x_max":160,"o":"m 160 43 l 158 18 q 154 -8 158 -4 q 99 42 151 -11 l 46 96 l 46 121 l 49 149 q 66 135 50 150 q 106 97 82 119 l 160 43 m 144 214 q 128 229 136 221 l 89 268 l 33 324 l 32 374 q 31 427 32 385 q 30 526 31 469 q 29 649 29 583 q 28 773 29 714 q 28 876 28 832 q 28 935 28 919 q 28 953 28 946 q 31 961 29 961 q 48 948 32 963 q 88 910 64 933 q 118 879 107 890 q 134 862 129 868 q 140 853 139 856 q 140 847 140 850 q 139 819 139 844 q 140 756 139 794 q 141 709 140 738 q 142 647 142 681 q 141 578 142 614 q 140 510 140 543 q 140 442 140 476 q 140 377 140 408 q 141 321 140 346 q 142 282 142 296 q 144 255 143 267 q 144 233 144 243 l 144 214 z "},"\"":{"ha":376,"x_min":28,"x_max":347,"o":"m 74 1047 q 91 1032 75 1047 q 129 994 107 1017 l 183 940 l 178 910 q 166 860 172 885 q 155 816 160 836 q 145 783 150 796 q 139 768 140 769 q 125 776 136 765 q 82 819 114 788 l 28 872 l 35 893 q 49 943 40 911 q 65 1011 57 975 q 71 1035 68 1025 q 74 1047 74 1046 m 347 940 l 342 910 q 330 860 336 885 q 319 816 324 836 q 309 783 314 796 q 303 768 304 769 q 289 776 300 765 q 246 819 278 788 l 192 872 l 199 893 q 213 943 204 911 q 229 1011 221 975 q 235 1035 232 1025 q 238 1047 238 1046 q 255 1032 239 1047 q 293 994 271 1017 l 347 940 z "},"#":{"ha":904,"x_min":25,"x_max":876,"o":"m 824 375 q 861 337 846 353 q 876 319 876 321 q 836 314 876 317 q 795 310 819 311 q 754 306 771 308 q 715 303 736 304 q 678 300 693 301 q 652 298 663 299 q 640 296 642 297 q 633 259 638 294 q 618 143 629 224 q 607 63 611 81 q 600 44 603 44 q 583 60 599 44 q 543 99 567 75 q 492 156 489 153 q 496 174 493 156 q 502 217 499 193 q 508 261 506 240 q 511 288 511 282 q 497 289 511 289 q 458 288 482 289 q 403 286 431 288 q 352 284 375 285 q 315 282 329 283 q 300 281 300 281 q 297 270 299 279 q 293 249 296 261 q 283 192 289 221 q 273 139 278 163 q 265 99 268 115 q 261 83 261 83 q 242 98 260 82 q 205 133 225 114 q 168 171 185 153 q 151 192 151 189 q 153 206 151 194 q 158 231 156 217 q 165 267 165 261 q 149 271 165 271 l 132 271 l 78 325 q 33 370 42 361 q 29 381 25 379 q 54 383 32 382 q 104 386 76 383 q 155 390 132 389 q 181 392 178 392 l 189 393 l 196 439 q 201 474 199 458 q 204 492 204 489 l 206 497 l 161 494 l 107 549 q 69 587 85 571 q 54 604 54 603 q 58 606 56 606 q 71 607 65 606 q 108 611 82 608 q 160 617 133 614 q 225 625 190 621 q 228 643 225 625 q 236 688 232 661 q 245 742 240 714 q 254 794 250 771 q 270 892 263 851 q 279 933 278 933 q 297 917 281 933 q 335 879 313 901 l 390 825 l 385 806 q 378 769 383 797 q 369 713 374 742 q 362 660 365 683 q 358 636 358 636 q 385 636 358 636 q 447 638 413 636 q 511 640 481 639 q 549 642 542 642 l 564 643 l 571 685 q 593 812 585 764 q 607 886 601 860 q 615 922 613 913 q 618 932 617 931 q 638 917 619 933 q 676 881 656 901 q 713 842 696 860 q 728 821 729 824 q 719 788 725 815 q 707 719 714 760 q 700 678 703 696 q 696 658 697 661 q 699 653 694 654 q 732 656 704 653 l 768 657 l 824 603 q 867 556 860 565 q 871 546 875 547 q 839 544 868 546 q 771 539 810 542 q 704 534 732 536 q 675 531 676 532 q 671 513 674 529 q 665 476 668 496 q 660 438 663 456 q 658 421 658 421 q 676 420 660 419 q 715 424 692 421 l 771 428 l 824 375 m 547 526 l 508 525 q 462 522 489 524 q 409 519 435 521 q 365 515 383 517 q 343 514 346 514 q 335 506 336 511 q 331 490 333 501 q 327 465 329 478 q 324 439 325 451 q 321 421 322 426 q 318 403 321 408 q 322 398 317 399 q 356 399 328 397 q 403 401 372 400 q 461 406 433 403 q 508 408 489 407 q 528 411 526 410 q 531 428 529 413 q 536 464 533 443 q 542 501 539 485 q 546 521 544 518 l 547 526 z "},"$":{"ha":588,"x_min":28,"x_max":558,"o":"m 482 442 q 524 397 508 414 q 547 369 540 381 q 556 349 554 358 q 558 326 558 339 q 557 305 558 311 q 549 285 556 299 q 492 226 531 247 q 436 205 471 215 q 371 189 401 194 q 347 185 354 186 q 338 183 342 183 q 339 174 338 179 q 340 164 339 169 q 342 151 340 158 q 352 88 349 119 q 354 53 356 56 q 350 50 351 50 l 333 67 q 316 83 326 74 q 294 104 306 93 l 242 158 l 243 169 q 240 183 243 181 q 227 186 239 185 q 200 189 215 188 q 164 192 176 190 q 142 199 151 193 q 119 217 132 204 q 83 253 107 229 q 44 293 60 276 q 28 313 28 310 q 38 311 28 321 q 48 306 40 308 q 74 301 56 304 q 113 297 92 299 q 154 294 135 296 q 188 293 174 293 q 210 294 203 293 l 225 296 l 224 326 q 222 349 222 338 q 222 367 222 361 q 213 381 222 378 q 178 405 199 388 q 117 464 157 422 q 78 503 93 488 q 57 530 64 518 q 47 552 50 542 q 44 576 44 563 q 59 656 42 615 q 108 724 76 696 q 144 747 122 735 q 189 767 167 760 l 210 775 l 210 788 q 208 817 210 793 q 206 868 207 840 q 204 917 204 897 q 204 939 204 938 q 222 925 206 940 q 260 888 238 910 l 314 833 l 317 776 l 342 772 q 392 760 365 768 q 438 743 419 751 q 461 727 449 738 q 507 683 474 717 q 543 646 528 661 q 557 629 558 631 q 546 631 556 628 q 496 649 525 640 q 447 661 467 657 q 417 665 435 663 q 383 667 400 667 q 351 667 365 668 q 331 665 336 667 l 322 663 l 324 621 q 326 583 325 604 q 328 550 326 561 l 329 519 l 358 518 q 388 516 376 518 q 410 507 399 514 q 438 485 422 500 q 482 442 454 469 m 221 494 q 222 515 222 496 q 221 555 222 533 q 218 594 219 576 q 215 611 217 611 q 199 593 213 610 q 179 565 186 576 q 165 532 171 551 q 156 499 158 513 l 154 485 l 163 485 q 175 485 165 485 q 194 489 185 486 q 212 493 204 492 q 221 494 219 494 m 435 388 q 438 394 438 390 q 440 400 439 397 l 443 406 q 415 401 442 407 q 356 389 388 396 l 335 385 l 333 319 l 342 321 q 355 325 346 321 q 375 333 364 329 q 435 388 419 356 z "},"%":{"ha":1043,"x_min":26,"x_max":1017,"o":"m 900 422 q 962 360 939 383 q 996 323 985 338 q 1010 299 1007 308 q 1015 281 1014 290 q 1011 246 1017 264 q 993 203 1006 228 q 978 176 985 185 q 958 153 972 167 q 921 124 936 131 q 881 115 906 117 q 858 115 865 114 q 840 119 850 117 q 824 126 832 122 q 808 138 817 131 q 785 160 799 146 q 749 196 771 174 q 714 232 726 218 q 694 256 701 246 q 684 273 688 265 q 679 292 681 281 q 697 401 674 328 q 722 456 708 433 q 758 499 736 478 q 799 518 783 522 q 831 489 801 517 q 900 422 860 461 m 886 318 q 900 353 897 340 q 903 383 903 367 q 901 405 903 401 q 889 404 899 408 q 847 365 869 394 q 813 306 824 336 q 806 285 810 297 q 799 263 801 274 q 794 242 796 251 q 792 229 792 232 q 797 228 792 226 q 815 236 801 229 q 886 318 858 257 m 704 892 q 756 835 757 839 q 742 793 756 833 q 708 688 729 753 q 660 542 688 624 q 607 376 633 461 q 542 178 567 253 q 505 65 518 104 q 487 13 492 25 q 482 0 482 0 q 465 15 474 7 l 426 54 l 372 108 l 467 396 q 506 517 486 456 q 544 633 526 578 q 576 733 563 689 q 599 801 590 776 q 626 888 614 850 q 642 932 639 926 q 649 946 644 946 q 666 930 650 946 q 704 892 682 914 m 392 521 q 356 392 399 456 q 239 335 313 324 q 204 344 224 338 q 174 357 185 350 q 144 383 165 363 q 101 426 124 403 q 59 470 78 450 q 38 496 40 490 q 28 537 29 514 q 31 584 26 560 q 47 633 36 608 q 72 676 57 657 q 117 717 92 700 q 164 738 142 733 q 181 739 174 739 q 200 731 188 739 q 233 701 213 722 q 294 640 254 679 l 389 544 l 392 521 m 228 478 q 251 509 240 490 q 270 548 263 528 q 281 587 278 568 q 282 619 285 606 q 271 628 281 629 q 243 615 263 625 q 200 583 224 607 q 165 540 176 560 q 148 501 154 522 q 140 464 142 481 l 139 444 l 151 444 q 165 445 157 444 q 179 449 172 446 q 203 458 194 453 q 228 478 213 464 z "},"&":{"ha":594,"x_min":28,"x_max":565,"o":"m 529 193 q 540 179 533 186 q 549 167 546 172 q 556 150 563 150 q 535 169 554 150 q 494 210 517 188 q 453 254 472 233 q 431 279 433 275 q 415 299 428 283 q 386 329 401 314 q 332 389 351 367 q 307 418 313 411 q 297 425 300 425 q 278 416 294 425 q 247 399 261 407 q 174 327 203 371 q 139 231 146 283 q 138 191 136 210 q 144 167 140 172 q 181 156 151 160 q 257 150 210 153 q 301 149 281 150 q 329 150 322 149 l 343 151 l 396 97 q 434 58 419 74 q 447 42 449 43 q 429 40 447 40 q 388 39 411 39 q 343 40 365 39 q 310 42 321 40 q 196 79 242 50 q 167 105 189 83 q 117 154 144 126 q 83 188 96 175 q 63 210 71 201 q 51 224 56 218 q 44 236 47 231 q 31 272 35 256 q 28 311 28 289 q 69 442 28 379 q 113 490 88 469 q 179 531 138 510 q 190 536 185 533 q 199 542 196 539 q 206 546 203 544 q 194 569 206 550 q 163 644 172 610 q 157 717 154 678 q 174 794 158 760 q 221 860 189 828 q 320 921 265 904 q 415 919 375 938 q 425 913 419 917 q 439 903 431 910 q 459 884 447 896 q 489 854 471 872 q 531 810 515 826 q 554 779 546 793 q 564 752 563 765 q 565 719 565 739 q 539 617 565 671 q 471 524 513 563 q 415 483 447 503 q 347 447 383 463 q 328 438 332 440 q 326 433 324 436 q 335 419 328 429 q 353 394 343 408 q 376 366 364 381 q 397 340 388 351 q 430 303 408 326 q 471 258 451 279 q 507 219 490 238 q 529 193 524 200 m 303 590 q 438 746 403 651 q 444 764 440 753 q 450 785 447 775 q 454 804 453 796 q 454 814 456 813 q 443 813 453 815 q 419 806 433 811 q 391 793 406 800 q 367 781 376 786 q 297 707 324 751 q 267 618 269 663 q 267 583 267 592 q 271 574 268 574 q 282 578 272 574 q 303 590 292 583 z "},"'":{"ha":213,"x_min":28,"x_max":183,"o":"m 183 940 l 178 910 q 166 860 172 885 q 155 816 160 836 q 145 783 150 796 q 139 768 140 769 q 125 776 136 765 q 82 819 114 788 l 28 872 l 35 893 q 49 943 40 911 q 65 1011 57 975 q 71 1035 68 1025 q 74 1047 74 1046 q 91 1032 75 1047 q 129 994 107 1017 l 183 940 z "},"(":{"ha":372,"x_min":28,"x_max":343,"o":"m 275 85 q 323 37 303 57 q 343 15 343 17 q 334 17 343 11 q 300 43 325 22 q 256 84 283 57 q 199 140 228 111 q 146 195 169 169 q 115 231 122 221 q 33 453 56 310 q 29 498 31 472 q 28 551 28 524 q 29 603 28 578 q 33 649 31 629 q 64 775 42 713 q 119 896 86 838 q 159 949 136 924 q 196 978 182 974 l 208 981 l 264 925 l 319 869 l 310 868 q 275 846 296 865 q 238 799 254 826 q 197 721 218 768 q 164 635 175 674 q 138 474 140 558 q 153 303 136 389 q 193 182 167 236 l 208 151 l 275 85 l 275 85 z "},")":{"ha":375,"x_min":24,"x_max":349,"o":"m 307 657 q 327 590 318 628 q 341 511 336 553 q 347 427 346 469 q 344 347 349 385 q 328 250 340 299 q 300 157 317 201 q 263 76 283 113 q 219 15 242 39 q 200 -2 208 4 q 188 -8 192 -8 q 169 8 179 -1 q 150 27 161 17 q 128 50 139 38 q 85 94 100 78 q 69 113 69 110 q 76 113 69 119 q 90 108 83 106 q 107 121 96 110 q 145 174 126 142 q 180 244 164 206 q 209 326 196 283 q 229 414 222 369 q 233 460 232 431 q 235 523 235 490 q 233 586 235 556 q 228 636 231 617 q 175 806 211 740 q 157 838 165 824 q 138 865 149 851 q 113 893 126 878 q 79 929 99 908 q 33 978 43 967 q 31 990 24 990 q 58 966 32 990 q 115 909 83 942 q 177 846 147 876 q 218 803 207 815 q 268 732 244 771 q 307 657 292 693 z "},"*":{"ha":435,"x_min":28,"x_max":406,"o":"m 354 768 q 390 730 375 746 q 406 713 406 714 q 401 710 406 710 q 394 714 397 710 q 383 724 393 715 q 360 745 374 733 q 332 768 346 757 q 308 788 318 779 l 289 803 l 238 726 q 201 672 217 694 q 185 650 186 650 q 165 666 182 650 q 126 706 149 682 q 97 736 107 725 q 81 753 86 747 q 76 760 76 758 q 78 764 75 763 q 92 782 81 765 q 118 821 103 799 q 147 864 140 853 q 150 878 153 875 q 140 878 147 881 q 126 885 136 876 q 81 929 115 894 q 43 967 58 951 q 28 985 28 983 q 41 989 28 990 q 69 981 54 988 q 110 961 86 974 q 160 931 133 949 l 182 917 l 196 938 q 214 964 203 946 q 236 997 225 982 l 264 1038 l 317 983 q 356 944 340 960 q 371 926 371 928 q 361 910 371 925 q 336 872 351 894 l 301 821 l 354 768 l 354 768 z "},"+":{"ha":511,"x_min":28,"x_max":483,"o":"m 429 557 q 467 518 451 535 q 483 500 483 501 q 460 496 483 497 q 381 493 436 494 q 342 491 361 492 q 315 490 322 490 l 299 488 l 300 461 q 303 421 301 450 q 307 363 304 392 q 311 292 311 310 q 306 275 311 275 q 288 291 304 275 q 249 331 272 307 q 207 374 218 361 q 199 388 196 386 q 201 395 201 389 q 200 421 201 401 q 198 448 199 435 q 196 468 197 461 l 194 483 l 181 483 q 165 484 174 483 q 150 486 157 485 l 133 488 l 81 540 q 43 578 58 563 q 28 596 28 594 q 54 597 28 597 q 85 596 64 596 q 129 597 107 596 q 168 599 151 599 q 186 601 185 600 q 188 620 188 603 q 185 661 188 638 q 182 709 183 685 q 181 744 181 733 l 179 769 l 292 658 l 292 638 q 295 609 292 613 q 324 606 299 606 q 364 608 350 606 l 376 610 l 429 557 l 429 557 z "},",":{"ha":213,"x_min":28,"x_max":183,"o":"m 183 72 l 178 42 q 166 -8 172 17 q 155 -52 160 -32 q 145 -85 150 -72 q 139 -100 140 -99 q 125 -92 136 -103 q 82 -50 114 -82 l 28 4 l 35 25 q 49 75 40 43 q 65 143 57 107 q 68 156 67 150 q 71 167 69 161 q 74 178 72 172 q 91 164 75 179 q 129 126 107 149 l 183 72 z "},"-":{"ha":511,"x_min":28,"x_max":483,"o":"m 429 557 q 467 518 451 535 q 483 500 483 501 q 460 496 483 497 q 381 493 436 494 q 342 491 361 492 q 315 490 322 490 l 179 483 q 165 484 174 483 q 150 486 157 485 l 133 488 l 81 540 q 43 578 58 563 q 28 596 28 594 q 54 597 28 597 q 81 597 61 597 q 128 598 101 597 q 187 600 156 599 q 245 603 218 601 q 294 605 272 604 q 324 606 315 606 q 364 608 350 606 l 376 610 l 429 557 l 429 557 z "},".":{"ha":218,"x_min":28,"x_max":193,"o":"m 186 35 q 187 1 193 19 q 167 -24 181 -17 q 158 -26 160 -26 q 149 -24 156 -26 q 126 -3 144 -21 q 88 35 108 14 q 50 73 67 56 q 32 94 33 90 q 28 115 28 103 q 32 133 28 126 q 33 144 36 142 q 38 157 31 146 q 50 165 46 171 q 58 163 53 163 q 82 145 63 163 q 124 105 101 128 q 165 61 147 82 q 186 35 183 40 z "},"/":{"ha":400,"x_min":28,"x_max":371,"o":"m 371 864 l 364 836 q 353 796 361 825 q 339 738 346 767 q 331 701 336 722 q 320 654 326 679 q 308 603 314 629 q 296 554 301 576 q 284 506 290 531 q 272 459 278 482 q 262 417 267 436 q 254 385 257 397 q 243 339 249 360 q 232 296 238 318 q 219 249 226 274 q 201 190 211 224 q 173 93 185 132 q 155 31 161 54 q 146 -3 149 7 q 143 -15 143 -14 q 144 -22 146 -18 q 139 -26 142 -26 q 121 -11 138 -26 q 82 28 104 4 l 28 82 l 39 119 q 53 172 43 136 q 75 242 64 207 q 99 326 89 292 q 117 390 110 361 q 132 446 125 419 q 147 506 139 472 q 156 544 151 522 q 166 589 161 567 q 176 632 171 611 q 186 669 182 653 q 206 751 194 703 q 226 835 218 799 q 250 936 243 908 q 261 968 257 964 q 272 962 263 971 q 317 918 282 953 l 371 864 z "},":":{"ha":218,"x_min":28,"x_max":193,"o":"m 58 163 q 82 145 63 163 q 124 105 101 128 q 165 61 147 82 q 186 35 183 40 q 187 1 193 19 q 167 -24 181 -17 q 158 -26 160 -26 q 149 -22 156 -26 q 126 -3 144 -21 q 88 35 108 14 q 50 73 67 56 q 32 94 33 90 q 28 115 28 103 q 32 133 28 126 q 33 144 36 142 q 38 157 31 146 q 50 165 46 171 q 58 163 53 163 m 149 454 q 126 473 144 456 q 88 511 108 490 q 50 549 67 532 q 32 571 33 567 q 28 591 28 579 q 32 611 28 603 q 33 621 36 618 q 38 633 31 624 q 50 642 46 647 q 58 639 53 639 q 82 622 63 639 q 124 581 101 604 q 165 538 147 558 q 186 511 183 517 q 187 478 193 496 q 167 454 181 461 q 158 450 160 450 q 149 454 156 450 z "},";":{"ha":218,"x_min":28,"x_max":193,"o":"m 149 454 q 126 473 144 456 q 88 511 108 490 q 50 549 67 532 q 32 571 33 567 q 28 591 28 579 q 32 611 28 603 q 33 621 36 618 q 38 633 31 624 q 50 642 46 647 q 58 639 53 639 q 82 622 63 639 q 124 581 101 604 q 165 538 147 558 q 186 511 183 517 q 187 478 193 496 q 167 454 181 461 q 158 450 160 450 q 149 454 156 450 m 76 178 q 94 164 78 179 q 132 126 110 149 l 186 72 l 181 42 q 169 -8 175 17 q 157 -52 163 -32 q 147 -85 151 -72 q 140 -100 143 -99 q 128 -92 139 -103 q 85 -50 117 -82 l 31 4 l 38 25 q 51 75 43 43 q 68 143 60 107 q 71 156 69 150 q 74 167 72 161 q 76 178 75 172 z "},"<":{"ha":556,"x_min":28,"x_max":528,"o":"m 475 167 q 513 127 499 143 q 528 110 528 111 q 510 109 525 106 q 453 131 496 113 q 397 152 429 140 q 344 171 365 164 q 201 222 251 204 q 146 243 150 240 q 125 263 143 246 q 83 303 107 279 q 53 333 64 321 q 37 351 43 344 q 29 360 31 357 q 28 367 28 364 q 36 389 28 376 q 76 439 44 401 q 216 615 164 542 q 278 724 268 689 q 283 735 281 735 q 300 719 292 728 q 317 703 307 713 q 338 682 326 693 l 390 629 l 389 619 q 330 510 383 588 q 192 336 276 433 q 175 317 182 325 q 169 308 168 308 q 178 304 169 307 q 280 268 242 282 q 353 240 318 254 q 414 219 407 217 q 429 210 419 219 q 475 167 439 201 z "},"=":{"ha":511,"x_min":28,"x_max":483,"o":"m 81 625 q 43 663 58 647 q 28 681 28 679 q 54 681 28 683 q 81 681 61 681 q 128 683 101 682 q 187 685 156 683 q 245 688 218 686 q 294 690 272 689 q 324 690 315 690 q 364 693 350 690 l 376 694 l 429 642 q 467 602 451 618 q 483 585 483 586 q 460 581 483 582 q 381 576 436 579 q 342 576 361 576 q 315 574 322 575 l 179 568 q 165 569 174 568 q 150 571 157 569 l 133 572 l 81 625 m 429 311 q 467 272 451 289 q 483 254 483 256 q 460 250 483 251 q 381 247 436 249 q 342 245 361 246 q 315 244 322 244 l 179 238 q 165 238 174 238 q 150 240 157 239 l 133 242 l 81 294 q 43 333 58 317 q 28 350 28 349 q 54 350 28 353 q 81 351 61 350 q 128 352 101 351 q 187 354 156 353 q 245 357 218 356 q 294 359 272 358 q 324 360 315 360 q 364 363 350 360 l 376 364 l 429 311 z "},">":{"ha":424,"x_min":28,"x_max":396,"o":"m 396 433 l 396 419 q 390 395 396 407 q 368 360 385 383 q 317 288 347 328 q 257 214 286 249 q 206 156 228 179 q 178 133 183 133 q 160 149 176 133 q 124 186 144 164 q 86 224 101 208 q 71 240 71 239 q 79 250 74 244 q 89 260 83 254 q 101 274 94 267 q 149 325 126 299 q 206 396 172 351 q 228 426 215 410 q 251 458 240 443 q 268 483 261 472 q 275 496 275 494 q 266 503 275 497 q 244 519 257 510 q 217 538 231 528 q 196 554 203 547 q 162 586 189 560 q 105 642 135 613 q 51 694 75 671 q 28 719 28 718 q 37 718 28 725 q 69 689 46 711 q 106 656 88 671 q 145 628 125 642 q 189 600 165 614 q 242 569 213 586 q 262 558 254 563 q 278 547 269 554 q 299 527 286 539 q 335 493 313 515 l 396 433 z "},"?":{"ha":600,"x_min":26,"x_max":571,"o":"m 571 649 l 560 625 q 548 603 554 614 q 532 582 542 593 q 509 556 522 571 q 478 521 496 542 q 438 478 454 497 q 410 444 421 460 q 391 416 399 429 q 378 389 383 403 q 366 353 369 369 q 361 319 363 338 q 362 295 361 313 q 363 260 363 278 q 366 226 364 242 q 369 207 368 211 q 368 203 369 203 q 351 218 367 203 q 311 257 335 233 q 276 293 288 281 q 259 317 264 306 q 253 343 254 328 q 251 390 253 358 q 251 437 250 425 q 256 464 251 449 q 273 511 261 486 q 300 556 285 536 q 325 585 307 565 q 363 625 343 606 q 420 690 399 663 q 452 740 442 717 q 463 783 463 763 q 454 829 463 804 q 449 840 451 838 q 435 846 446 843 q 413 850 426 849 q 383 851 399 851 q 351 850 367 851 q 328 846 336 849 q 285 829 311 842 q 242 806 260 817 q 167 723 196 774 q 139 621 139 672 q 144 577 139 604 q 153 539 149 550 q 160 530 156 536 q 169 518 164 524 q 180 505 179 508 q 172 506 181 501 q 150 526 169 508 q 107 568 131 544 q 76 601 88 589 q 58 620 64 613 q 48 633 51 628 q 43 643 44 638 q 28 713 31 675 q 33 778 26 750 q 57 833 42 804 q 92 881 72 861 q 144 922 110 900 q 207 953 178 943 q 276 963 236 964 q 344 951 317 963 q 367 942 357 947 q 390 926 378 936 q 417 902 401 917 q 458 863 433 888 q 501 819 485 838 q 530 787 518 801 q 549 759 542 772 q 563 732 556 746 q 570 708 569 717 q 571 679 571 700 l 571 649 m 279 163 q 303 145 283 163 q 344 105 322 128 q 385 61 367 82 q 406 35 403 40 q 406 1 413 19 q 388 -24 400 -17 q 377 -26 379 -26 q 368 -22 375 -26 q 346 -3 364 -21 q 308 35 328 14 q 270 73 288 56 q 251 94 253 90 q 247 115 247 103 q 251 133 247 126 q 253 144 256 142 q 257 157 250 146 q 269 165 265 171 q 279 163 272 163 z "},"@":{"ha":950,"x_min":28,"x_max":925,"o":"m 865 636 q 911 540 897 590 q 919 440 925 489 q 872 315 911 365 q 772 253 832 265 q 733 250 750 249 q 696 261 715 251 q 683 267 689 264 q 670 277 678 271 q 653 294 663 283 q 626 319 643 304 q 599 346 610 336 q 584 360 589 356 q 577 364 579 364 q 574 363 575 364 q 519 295 550 328 q 469 249 489 263 q 436 230 450 235 q 404 225 422 225 q 383 227 392 225 q 363 237 374 229 q 335 260 351 244 q 290 304 318 276 q 253 342 267 328 q 233 364 240 356 q 222 378 225 372 q 214 393 218 385 q 194 474 194 433 q 215 581 193 525 q 268 674 236 638 q 342 712 300 707 q 428 692 385 717 q 455 669 435 686 q 506 621 475 651 l 567 560 l 579 581 q 588 597 585 590 q 592 604 592 603 q 603 599 592 608 q 650 553 614 589 l 704 499 l 694 481 q 665 421 678 451 q 649 371 651 390 l 647 361 l 658 363 q 742 403 706 369 q 796 493 778 438 q 802 515 799 503 q 807 535 806 528 q 808 587 810 556 q 800 642 807 618 q 792 665 797 651 q 782 690 788 678 q 772 713 776 703 q 763 728 767 724 q 738 746 754 736 q 702 765 722 756 q 659 783 682 775 q 614 797 636 792 q 528 807 574 807 q 443 796 483 807 q 364 763 407 788 q 285 704 321 738 q 208 614 240 664 q 158 510 176 564 q 138 402 140 457 q 149 300 135 347 q 156 280 151 290 q 163 264 160 269 q 172 251 167 254 q 189 240 176 247 q 263 213 221 225 q 357 194 304 201 q 395 190 372 192 q 440 189 418 189 q 480 190 463 189 q 501 193 497 190 l 510 197 l 563 144 q 600 105 585 121 q 615 88 615 89 q 603 79 615 81 q 556 76 592 78 q 516 77 536 76 q 489 79 496 78 q 340 111 397 92 q 239 163 283 131 q 204 192 229 169 q 151 243 179 215 q 99 298 119 275 q 67 340 79 321 q 47 377 54 358 q 33 419 39 396 q 29 451 31 431 q 28 492 28 471 q 30 535 28 514 q 35 569 32 556 q 104 733 54 658 q 229 857 154 807 q 323 905 281 892 q 425 918 365 918 q 565 891 496 918 q 694 814 633 864 q 741 771 715 796 q 792 720 767 746 q 837 672 817 694 q 865 636 857 649 m 488 526 q 493 545 492 538 q 494 568 494 553 q 490 596 494 592 q 460 601 485 603 q 418 593 436 600 q 340 506 371 571 q 310 422 321 468 q 306 347 300 376 q 311 337 307 338 q 331 342 315 336 q 365 363 344 347 q 400 393 385 378 q 429 426 414 408 q 457 461 444 444 q 477 490 469 478 q 483 506 485 503 q 483 514 482 508 q 488 526 485 519 z "},"A":{"ha":515,"x_min":28,"x_max":490,"o":"m 317 846 q 325 846 321 849 q 344 828 329 843 q 367 806 351 821 q 401 775 383 792 q 434 742 418 758 q 458 717 450 725 q 465 708 464 711 q 463 689 465 704 q 457 632 460 674 q 451 538 454 590 q 444 432 447 486 q 439 338 440 378 q 436 266 436 308 q 436 193 436 224 q 437 154 436 169 q 438 128 438 139 q 440 111 439 118 q 443 99 442 104 q 460 56 450 78 q 479 24 469 35 q 485 11 490 11 q 465 28 482 11 q 422 68 447 44 l 364 126 l 351 154 q 338 186 343 171 q 329 219 332 201 q 325 260 326 238 q 324 313 324 282 l 324 360 l 211 360 l 190 381 q 167 401 169 401 l 167 317 q 167 242 167 282 q 165 167 167 203 q 163 103 164 131 q 160 68 161 76 q 153 47 157 60 q 147 22 150 33 q 140 3 143 11 q 138 -6 138 -6 q 120 10 136 -6 q 82 49 104 26 l 28 101 l 36 129 q 45 162 42 147 q 51 194 49 176 q 53 236 53 211 q 54 301 54 261 q 54 388 54 332 q 53 508 54 443 q 51 640 53 572 q 49 763 50 707 q 47 853 49 818 q 46 890 46 889 q 50 894 43 896 q 76 882 57 892 q 116 865 101 871 q 154 856 131 860 q 197 851 171 853 q 247 847 222 849 q 292 844 272 844 q 317 846 313 844 m 339 639 q 343 706 342 678 q 344 735 344 733 q 335 736 340 736 q 326 736 331 736 q 314 738 321 736 q 235 750 265 743 q 176 772 206 757 q 156 782 160 781 q 156 779 153 783 q 158 774 157 778 q 158 753 158 769 q 159 704 158 736 q 160 614 160 672 q 162 520 161 560 q 164 478 163 481 q 167 472 164 474 q 189 471 171 471 q 222 470 200 471 q 263 468 243 469 q 306 465 297 465 q 318 460 314 464 l 325 453 l 326 458 q 328 475 328 461 q 331 504 329 489 q 334 560 332 521 q 339 639 336 600 z "},"B":{"ha":592,"x_min":28,"x_max":563,"o":"m 53 883 q 106 849 79 857 q 181 840 132 840 q 240 845 218 840 q 286 861 263 850 l 310 874 l 368 814 q 420 763 392 790 q 464 721 449 735 q 493 692 482 704 q 510 669 504 681 q 517 647 515 658 q 519 619 519 636 q 502 536 519 579 q 456 458 485 493 l 447 449 l 485 411 q 531 358 517 379 q 554 313 546 336 q 562 286 561 296 q 563 249 563 276 q 563 225 563 233 q 561 210 563 217 q 558 197 560 204 q 553 181 557 190 q 483 62 526 106 q 371 -4 440 18 q 276 -12 319 -18 q 228 3 246 -7 q 182 40 210 14 l 151 69 l 153 42 q 154 17 154 31 q 156 -6 154 3 q 156 -20 156 -14 q 154 -26 156 -26 l 138 -10 q 120 7 131 -3 q 99 28 110 17 l 43 82 l 42 229 q 40 333 42 283 q 38 440 39 383 q 35 565 38 496 q 31 726 33 633 q 28 776 29 751 q 28 822 28 801 q 28 858 28 843 q 28 878 28 872 l 29 906 l 53 883 m 444 414 q 435 434 438 433 q 415 422 432 435 q 369 394 396 407 q 314 371 342 381 q 259 356 286 361 q 213 351 232 350 l 194 353 l 172 376 l 149 399 l 150 251 q 152 147 151 190 q 154 103 153 104 q 167 99 157 100 q 192 97 178 97 q 222 99 207 97 q 250 104 238 101 q 401 206 351 131 q 449 313 438 258 q 444 414 460 368 m 285 729 q 232 733 253 729 q 192 746 211 736 q 164 763 181 751 q 142 781 147 774 q 135 786 136 786 q 135 782 132 786 q 138 740 138 781 q 138 699 138 725 q 140 642 139 672 q 142 580 140 611 q 144 523 143 549 q 147 481 146 497 q 147 465 147 465 q 172 472 151 465 q 282 517 232 488 q 360 588 332 547 q 390 642 378 611 q 407 703 403 674 q 408 736 410 718 q 404 754 407 754 q 397 751 403 754 q 385 746 392 749 q 285 729 347 729 z "},"C":{"ha":543,"x_min":28,"x_max":515,"o":"m 51 856 q 88 827 74 836 q 121 811 101 818 q 194 799 161 797 q 261 818 228 801 q 285 833 275 825 q 313 857 296 840 l 343 885 l 396 832 q 433 794 418 810 q 449 776 449 778 q 440 763 449 772 q 420 743 432 754 q 395 722 408 732 q 372 707 382 713 q 271 690 322 682 q 210 706 236 694 q 156 742 183 718 l 138 757 l 138 732 q 140 701 139 721 q 142 663 140 682 q 145 594 143 639 q 150 493 147 549 q 155 379 153 438 q 160 272 157 321 q 163 185 161 225 q 165 136 164 146 l 167 114 l 178 115 q 243 124 215 121 q 294 128 271 128 q 336 128 317 129 q 375 124 356 126 l 408 119 l 463 65 q 500 26 485 42 q 514 10 515 10 q 502 10 514 8 q 475 14 490 11 q 438 18 451 17 q 406 18 425 19 q 360 14 385 17 q 315 8 336 11 q 275 1 293 6 q 249 -6 257 -3 q 240 -6 246 -8 q 203 29 238 -4 q 110 121 169 63 q 90 142 99 132 q 74 158 81 151 l 58 174 q 56 203 58 174 q 52 277 54 233 q 48 371 50 321 q 44 461 46 421 q 41 563 43 513 q 37 655 39 613 q 33 729 35 697 q 31 779 32 761 q 28 815 29 794 q 28 847 28 835 l 28 876 l 51 856 l 51 856 z "},"D":{"ha":590,"x_min":28,"x_max":561,"o":"m 43 899 q 118 861 72 869 q 142 858 133 858 q 174 860 151 857 q 237 869 207 863 q 286 886 267 876 l 307 896 l 314 889 q 322 881 317 886 q 333 874 328 876 q 354 857 342 868 q 380 833 367 846 q 404 810 393 821 q 419 793 415 799 q 438 768 428 782 q 457 739 447 754 q 475 709 467 724 q 489 685 483 694 q 508 642 497 668 q 527 588 518 617 q 544 531 536 560 q 557 481 553 503 q 560 445 558 468 q 561 398 561 422 q 560 351 561 374 q 557 314 558 328 q 530 210 544 249 q 490 133 515 171 q 432 69 468 101 q 364 21 396 36 q 210 15 293 -11 q 190 24 196 19 q 174 36 183 28 q 157 50 160 50 l 157 6 q 158 -27 158 -14 q 157 -40 158 -40 l 140 -24 q 123 -7 133 -17 q 101 14 113 3 l 47 69 l 47 93 q 44 181 46 115 q 40 331 43 246 q 35 510 38 417 q 32 685 33 604 q 29 819 31 765 q 28 881 28 874 l 29 914 l 43 899 m 139 750 q 140 689 139 738 q 142 574 140 640 q 146 432 144 507 q 149 293 147 357 q 153 184 151 229 q 154 133 154 139 l 156 114 l 185 115 q 211 118 200 117 q 233 124 222 119 q 268 139 253 131 q 306 165 283 147 q 363 219 338 189 q 406 285 389 250 q 433 367 419 315 q 450 468 446 419 q 442 600 457 529 q 396 736 428 671 q 386 758 390 749 q 381 767 382 767 q 372 765 376 767 q 364 763 368 764 q 354 760 360 761 q 324 754 343 757 q 290 750 306 751 q 254 747 264 747 q 228 750 244 747 q 156 778 185 756 l 139 789 l 139 750 z "},"E":{"ha":511,"x_min":28,"x_max":483,"o":"m 153 769 q 138 779 138 779 q 138 755 138 779 q 140 695 139 731 q 143 619 142 660 q 145 542 144 578 q 147 483 146 507 q 149 458 149 458 l 156 458 q 171 461 160 458 q 200 463 181 463 q 238 465 219 464 l 283 467 l 338 413 l 376 374 q 392 357 385 365 q 378 355 392 356 q 344 353 364 354 q 260 347 300 351 q 193 333 221 342 q 185 336 190 333 q 169 350 181 339 q 163 356 165 353 q 157 363 160 360 q 151 367 154 365 q 151 355 151 367 q 152 324 151 343 q 153 279 153 304 q 156 228 154 254 q 160 89 158 167 l 163 89 q 169 90 167 89 q 212 100 188 96 q 261 107 236 104 q 308 110 286 110 q 347 110 331 111 l 375 106 l 429 51 q 468 13 453 29 q 482 -4 483 -3 q 473 -5 481 -6 q 454 -3 465 -4 q 395 -1 429 1 q 326 -10 361 -3 q 256 -27 290 -17 q 197 -50 222 -37 q 183 -56 183 -56 l 174 -46 q 163 -37 165 -37 q 144 -22 160 -37 q 106 17 128 -6 l 51 71 l 51 92 q 51 108 51 96 q 50 147 51 121 q 48 215 49 172 q 44 322 47 257 q 39 479 42 388 q 32 694 36 571 q 30 761 31 729 q 28 818 29 793 q 28 859 28 843 q 28 878 28 875 l 29 890 l 39 881 q 71 860 54 867 q 119 850 88 854 q 283 869 213 840 l 307 879 l 360 826 q 398 788 382 804 q 414 771 414 772 q 407 765 414 769 q 390 757 400 761 q 369 749 379 753 q 350 744 358 746 q 298 738 329 740 q 251 736 267 735 q 194 747 217 739 q 153 769 172 754 z "},"F":{"ha":483,"x_min":28,"x_max":457,"o":"m 174 -40 q 158 -26 172 -40 q 124 8 143 -11 q 89 43 104 28 q 71 61 74 58 q 67 67 68 64 q 66 76 67 69 q 65 94 65 82 q 63 125 64 106 q 55 285 60 176 q 42 569 50 394 q 38 639 39 604 q 35 703 36 674 q 32 756 33 733 q 31 789 31 778 q 28 834 29 810 q 28 872 28 858 l 28 904 l 50 892 q 120 861 86 869 q 207 854 154 853 q 234 854 224 854 q 252 855 244 854 q 267 857 260 856 q 282 861 274 858 q 306 869 293 864 q 329 876 319 874 l 350 886 l 404 832 q 456 775 457 776 q 428 763 451 771 q 386 750 406 754 q 326 742 357 743 q 263 744 294 740 q 203 758 232 749 q 153 781 175 767 q 138 788 139 788 q 138 759 138 788 q 141 690 139 731 q 145 601 143 649 q 150 514 147 553 q 152 485 151 490 q 157 481 153 481 q 200 483 182 483 q 246 481 218 483 l 288 476 l 343 421 q 382 382 367 399 q 396 364 397 365 q 388 363 394 363 q 369 365 381 364 q 338 367 358 367 q 293 367 317 368 q 264 366 275 367 q 245 365 253 365 q 231 363 238 364 q 217 358 225 361 q 175 344 192 351 q 158 335 158 338 q 160 293 158 333 q 165 196 163 253 q 170 90 168 139 q 172 25 172 40 q 174 -3 174 11 q 176 -25 175 -18 q 174 -40 176 -40 z "},"G":{"ha":561,"x_min":28,"x_max":535,"o":"m 514 100 q 491 73 507 88 q 461 51 475 58 q 419 38 444 43 q 367 28 394 32 q 315 24 340 25 q 274 28 290 24 q 255 34 267 31 q 233 43 243 38 q 219 51 225 47 q 205 62 214 54 q 181 84 196 69 q 142 124 167 99 q 103 162 118 147 q 81 185 89 176 q 69 201 72 194 q 61 214 65 207 q 41 269 47 240 q 31 351 35 299 q 30 401 31 358 q 28 503 29 443 q 28 633 28 564 q 28 760 28 701 q 28 857 28 818 q 29 896 28 896 q 37 891 31 897 q 53 876 43 885 q 85 848 72 857 q 117 831 97 839 q 235 808 174 807 q 350 833 296 808 q 365 844 356 836 q 383 860 374 851 l 403 879 l 456 826 q 493 788 478 804 q 508 769 508 772 q 503 760 508 767 q 490 747 497 754 q 368 697 449 707 q 253 708 314 690 q 154 761 192 726 l 139 774 l 139 511 q 140 354 139 413 q 141 262 140 296 q 144 210 142 228 q 150 175 146 193 q 158 147 154 151 q 172 139 161 142 q 235 137 194 133 q 314 150 276 140 q 377 178 354 160 q 411 228 400 196 q 417 248 414 236 q 421 273 419 260 q 423 299 422 286 q 422 321 424 311 l 419 338 l 410 338 q 384 340 399 338 q 353 346 369 342 q 323 355 338 350 q 300 364 308 360 q 275 385 296 365 q 231 427 254 404 q 190 469 208 450 q 172 489 172 488 q 181 486 172 494 q 343 449 228 449 q 400 451 386 449 l 411 456 l 521 344 l 525 296 q 529 253 528 275 q 532 221 531 232 q 530 155 535 189 q 514 100 525 121 z "},"H":{"ha":538,"x_min":28,"x_max":510,"o":"m 139 775 q 138 739 138 767 q 140 675 139 711 q 143 599 142 639 q 147 524 144 558 q 150 468 149 490 q 153 444 151 446 q 172 438 154 443 q 197 433 181 435 q 230 432 213 432 q 264 433 247 432 q 292 438 281 435 q 332 451 307 440 q 365 469 357 463 q 367 475 367 471 q 368 496 368 479 q 368 544 368 513 q 367 635 368 576 q 366 701 367 668 q 364 764 365 735 q 362 816 363 793 q 361 850 361 839 q 360 890 360 875 q 361 907 360 906 q 418 856 364 908 l 472 801 l 472 783 q 473 738 472 769 q 474 667 474 707 q 476 584 475 628 q 478 500 476 540 q 480 428 479 460 q 481 381 481 396 q 487 267 483 322 q 494 167 490 213 q 501 91 497 122 q 507 47 504 60 q 508 32 510 33 q 492 47 500 39 l 453 86 q 410 130 422 117 q 396 149 397 143 q 392 169 394 153 q 388 204 390 185 q 384 244 386 224 q 382 278 382 264 q 380 299 381 289 q 379 313 379 310 l 378 321 l 336 321 q 288 324 304 321 q 242 339 271 328 q 206 356 222 346 q 174 382 189 367 q 157 392 158 396 q 160 339 156 388 q 166 182 167 254 q 157 76 165 110 q 147 49 154 65 q 138 31 140 33 q 121 46 129 38 q 103 63 114 53 q 82 83 93 72 l 28 138 l 35 153 q 46 183 42 168 q 53 219 50 199 q 55 264 54 233 q 54 332 56 294 q 51 410 53 369 q 46 488 49 451 q 38 612 42 540 q 31 748 33 683 q 28 858 29 813 q 31 903 28 903 q 48 887 32 903 q 86 849 64 871 l 142 794 l 139 775 z "},"I":{"ha":192,"x_min":26,"x_max":167,"o":"m 158 182 q 159 112 158 146 q 160 50 160 78 q 162 5 161 22 q 164 -15 163 -12 q 154 -13 167 -24 q 104 33 142 -3 l 50 88 l 49 164 q 48 202 49 181 q 47 247 47 224 q 46 294 46 271 q 46 338 46 318 q 45 440 46 382 q 43 554 44 499 q 40 654 42 610 q 38 717 39 699 q 29 853 32 804 q 28 904 26 903 q 45 890 29 906 q 83 853 61 875 l 136 800 l 142 721 q 147 651 144 689 q 150 594 149 614 q 153 522 151 571 q 155 414 154 474 q 157 292 156 354 q 158 182 158 231 z "},"J":{"ha":413,"x_min":26,"x_max":385,"o":"m 378 794 q 380 788 379 794 q 381 775 381 782 q 382 640 382 710 q 383 501 382 569 q 384 369 383 432 q 385 258 385 307 q 384 179 385 210 q 383 143 383 149 q 365 63 378 94 q 328 4 353 32 q 309 -13 318 -6 q 294 -24 300 -21 q 240 -24 274 -35 q 229 -19 233 -22 q 218 -11 225 -17 q 199 6 211 -6 q 168 36 188 17 q 131 74 146 58 q 115 93 115 90 q 128 90 115 96 q 142 86 133 88 q 158 83 151 85 q 186 87 175 82 q 217 111 197 92 q 244 148 233 129 q 263 192 256 167 q 269 222 267 207 q 273 269 272 238 q 274 357 274 300 q 272 514 274 414 l 271 764 l 238 764 q 153 779 183 764 q 130 795 143 783 q 82 842 117 807 q 42 882 58 865 q 28 899 26 899 q 46 893 29 900 q 82 879 63 883 q 131 875 101 875 q 206 883 171 875 q 258 903 240 890 l 271 911 l 325 857 q 363 817 347 833 q 378 800 378 801 q 378 794 375 797 z "},"K":{"ha":519,"x_min":28,"x_max":492,"o":"m 379 861 q 397 847 381 863 q 436 808 413 832 l 492 753 l 488 729 q 480 688 485 710 q 468 642 475 665 q 453 598 461 619 q 438 561 446 576 q 408 509 426 538 q 374 461 390 481 q 346 433 360 444 q 314 411 332 422 l 299 403 l 338 365 q 372 328 358 344 q 395 299 386 313 q 410 270 404 285 q 419 236 415 256 q 428 185 425 213 q 432 117 431 158 q 438 58 435 82 q 447 19 440 33 q 469 -8 453 8 q 482 -21 476 -15 q 488 -28 488 -26 q 468 -22 488 -33 q 444 -1 463 -19 q 403 40 425 18 q 360 85 374 69 q 342 108 346 101 q 328 152 332 128 q 322 222 325 176 q 316 299 319 271 q 307 332 313 328 q 284 340 304 336 q 247 343 264 343 q 224 340 238 343 q 197 333 210 338 q 175 325 185 329 q 164 318 165 321 q 164 289 164 317 q 165 224 164 261 q 167 101 167 149 q 167 28 168 54 q 165 -6 167 3 q 158 -15 163 -15 q 141 0 157 -15 q 103 38 125 15 l 50 90 l 53 101 q 55 113 54 107 q 57 122 56 118 q 57 150 57 126 q 57 208 57 174 q 56 281 57 242 q 53 357 54 321 q 51 422 53 393 q 49 463 50 450 q 40 573 42 531 q 35 656 38 615 q 32 721 33 678 q 29 806 31 764 q 28 881 28 849 q 28 914 28 913 q 45 899 29 914 q 83 860 61 883 l 138 806 l 139 761 q 141 699 140 742 q 143 613 142 656 q 146 539 144 569 q 149 507 147 508 q 171 510 151 504 q 207 524 190 515 q 279 590 242 540 q 340 699 317 640 q 353 736 346 714 q 365 780 360 758 q 374 821 371 801 q 378 849 378 840 q 378 856 378 853 q 379 861 379 860 z "},"L":{"ha":549,"x_min":28,"x_max":519,"o":"m 465 74 l 519 19 l 513 14 q 490 2 506 7 q 456 -6 474 -3 q 402 -6 436 -8 q 322 4 368 -3 q 284 10 297 8 q 254 10 271 11 q 212 3 232 8 q 179 -8 192 -1 q 167 -14 165 -14 l 156 -6 q 134 15 151 -3 q 96 53 117 32 q 55 95 64 85 q 46 111 46 106 q 45 124 46 114 q 42 146 44 135 q 36 218 39 163 q 32 349 33 274 q 29 509 31 424 q 28 672 28 594 q 28 808 28 749 q 32 892 29 868 q 36 911 32 911 q 53 896 38 911 q 92 858 69 881 l 143 806 l 142 764 q 140 693 140 743 q 140 578 140 643 q 140 442 140 514 q 141 308 140 371 q 143 199 142 246 q 146 139 144 153 l 147 122 l 161 122 q 186 120 168 122 q 225 114 204 118 q 330 104 292 103 q 394 119 368 106 l 411 128 l 465 74 z "},"M":{"ha":786,"x_min":28,"x_max":757,"o":"m 757 775 q 757 740 757 771 q 756 668 757 710 q 755 581 756 626 q 753 497 754 535 q 753 459 753 486 q 753 394 753 432 q 753 311 753 357 q 753 218 753 265 q 753 130 753 171 q 754 58 754 89 q 754 8 754 26 q 754 -10 754 -10 q 738 6 746 -3 q 721 23 731 13 q 700 44 711 33 l 646 99 l 643 210 q 642 283 642 238 q 642 381 642 328 q 642 488 642 433 q 642 588 642 542 q 644 667 643 633 q 646 710 644 700 l 647 731 l 636 728 q 619 726 632 726 q 594 726 607 726 q 481 757 521 726 l 467 767 l 468 646 q 469 592 468 621 q 470 537 469 564 q 472 486 471 510 q 472 447 472 463 q 472 409 472 432 q 473 361 472 386 q 474 310 474 336 q 475 263 475 285 q 478 124 475 186 q 483 36 481 61 q 482 21 483 21 q 465 37 481 21 q 426 75 449 53 l 372 129 l 369 169 q 369 199 369 178 q 367 250 368 221 q 365 314 365 279 q 364 385 364 349 q 363 459 364 421 q 362 531 363 497 q 360 593 361 565 q 360 636 360 621 l 358 711 l 350 710 q 333 708 344 708 q 308 708 321 707 q 282 709 294 708 q 263 713 269 710 q 204 735 231 721 q 158 767 178 749 q 146 778 151 774 q 139 783 140 783 q 138 774 138 783 q 139 753 138 765 q 140 671 139 731 q 143 540 142 611 q 145 400 144 469 q 146 288 146 331 q 146 182 146 235 q 144 88 146 129 q 142 20 143 46 q 139 -6 140 -6 q 122 10 138 -6 q 83 47 106 25 l 31 101 l 32 178 q 34 297 33 224 q 34 460 35 371 q 32 649 33 550 q 29 844 31 749 l 28 915 l 64 881 q 88 856 78 865 q 108 842 99 847 q 130 832 118 836 q 158 824 142 828 q 240 820 201 813 q 300 851 278 828 q 310 865 304 856 q 321 885 315 875 q 331 904 326 896 q 335 915 335 913 q 336 918 335 918 q 348 908 338 918 q 374 883 358 899 l 410 847 l 431 843 q 454 839 439 840 q 483 836 469 838 q 514 837 506 836 q 533 840 522 838 q 608 890 578 856 l 629 911 l 649 894 q 674 870 656 888 q 711 833 692 853 q 735 808 726 817 q 749 793 744 799 q 754 783 753 788 q 757 775 756 779 z "},"N":{"ha":563,"x_min":28,"x_max":535,"o":"m 393 621 q 394 700 394 674 q 393 737 394 726 q 388 746 392 747 q 375 743 383 744 q 356 740 369 742 q 328 738 343 739 q 274 737 296 735 q 225 749 253 739 q 187 766 203 757 q 154 790 171 775 l 138 806 l 140 790 q 141 766 140 785 q 143 728 142 747 q 144 679 143 710 q 147 613 146 649 q 151 540 149 576 q 154 472 153 503 q 156 421 156 453 q 157 363 157 389 q 158 301 157 336 q 160 242 158 265 q 163 176 161 218 q 165 99 164 135 q 167 35 167 63 q 169 4 168 7 q 167 -4 169 -4 q 149 10 165 -6 q 110 49 133 26 l 57 103 l 56 169 q 55 203 56 183 q 53 244 54 222 q 51 290 51 267 q 50 333 50 313 q 47 418 47 374 q 46 486 46 463 q 44 556 46 510 q 40 643 43 601 q 38 689 39 664 q 35 738 36 714 q 33 785 35 763 q 32 825 32 808 q 30 887 31 860 q 28 921 29 914 q 29 936 28 935 q 40 926 35 932 q 53 915 46 921 q 67 901 60 908 l 103 867 l 129 857 q 145 852 139 854 q 158 849 151 850 q 172 849 164 849 q 193 849 181 849 q 247 851 224 849 q 296 860 271 854 q 329 872 315 865 q 360 890 343 879 l 376 903 l 417 864 q 453 830 435 847 q 479 804 471 813 l 500 785 l 503 731 q 503 696 503 719 q 504 641 504 672 q 504 574 504 610 q 504 501 504 538 q 506 371 504 435 q 508 253 507 307 q 511 160 510 200 q 514 103 513 121 q 521 62 517 83 q 532 25 525 40 q 533 14 535 14 q 516 30 532 14 q 476 68 500 46 l 421 124 l 417 143 q 410 170 413 157 q 405 200 407 183 q 402 240 403 217 q 400 296 401 263 q 397 374 399 332 q 394 439 396 415 q 392 514 393 465 q 393 621 392 563 z "},"O":{"ha":590,"x_min":28,"x_max":563,"o":"m 490 653 q 533 603 514 625 q 554 579 551 582 l 563 571 l 560 490 q 558 412 558 457 q 557 338 557 367 q 556 266 557 296 q 551 213 554 236 q 541 172 547 190 q 526 135 535 153 q 461 61 501 83 q 432 47 446 53 q 400 36 418 40 q 358 29 382 32 q 301 24 335 26 q 273 21 285 22 q 261 18 261 19 q 243 24 261 13 q 228 33 235 28 q 211 47 221 39 q 188 69 201 56 q 154 107 175 83 q 125 140 136 126 q 107 162 114 153 q 96 177 100 171 q 88 190 92 183 q 78 213 82 201 q 73 244 75 225 q 69 290 71 263 q 67 361 68 318 q 65 402 67 379 q 63 448 64 425 q 61 493 63 471 q 58 532 60 515 q 54 607 56 568 q 51 665 53 646 q 51 706 51 692 q 49 729 50 721 q 44 742 47 738 q 38 753 42 747 q 28 767 28 761 q 38 771 29 768 q 78 786 49 774 q 132 811 108 799 q 188 846 164 829 q 242 886 213 863 q 272 910 267 907 q 279 908 276 913 q 296 890 282 906 q 329 854 310 874 q 367 811 356 825 q 383 786 378 797 q 413 741 390 769 q 490 653 436 713 m 456 674 l 447 683 q 429 703 443 688 q 400 738 415 719 q 372 769 382 758 q 361 782 367 776 q 351 777 360 783 q 332 761 343 771 q 306 741 321 751 q 282 724 292 731 q 256 708 271 717 q 224 690 240 699 q 193 675 208 682 q 168 664 178 668 q 151 656 153 658 q 153 633 150 653 q 155 608 154 631 q 157 556 156 585 q 160 495 158 528 q 163 447 161 463 q 168 342 165 394 q 174 228 171 290 q 176 168 175 193 q 178 142 176 143 q 187 139 179 139 q 222 142 194 139 q 268 147 249 144 q 303 153 288 150 q 331 163 318 157 q 357 175 343 168 q 411 228 389 193 q 443 313 433 264 q 451 378 449 336 q 453 472 453 421 q 453 537 453 499 q 454 604 453 575 l 456 674 z "},"P":{"ha":551,"x_min":28,"x_max":524,"o":"m 479 792 q 499 684 489 747 q 514 560 508 621 q 522 449 519 499 q 519 382 524 400 q 500 340 514 358 q 467 313 486 322 q 433 307 456 307 q 381 311 410 307 q 319 323 351 315 q 257 342 286 331 q 201 366 217 357 q 169 389 185 375 l 151 406 l 153 361 q 156 294 154 319 q 158 251 157 268 q 159 224 158 235 q 161 203 160 214 q 167 144 164 183 q 172 67 169 106 q 174 -1 174 28 q 174 -32 175 -31 q 156 -18 172 -33 q 117 21 140 -3 l 63 76 l 61 146 q 56 233 58 194 q 49 329 54 272 q 46 374 47 340 q 43 443 44 407 q 42 483 43 461 q 40 525 42 504 q 38 565 39 546 q 36 596 38 583 q 31 713 33 651 q 28 826 29 774 q 28 914 28 878 q 32 954 29 950 q 44 945 32 956 q 71 919 56 935 q 91 898 83 906 q 104 886 99 890 q 113 881 110 882 q 122 878 117 879 q 144 876 129 876 q 175 875 160 875 q 197 875 189 875 q 212 876 206 875 q 226 880 218 878 q 246 886 233 882 q 335 931 310 908 l 349 942 l 474 817 l 479 792 m 401 467 q 410 491 407 478 q 413 525 413 504 q 410 575 413 546 q 404 649 408 604 q 401 681 403 667 q 399 708 400 694 q 395 738 397 722 q 390 775 393 754 q 388 785 389 783 q 385 786 388 788 q 374 783 382 786 q 354 776 365 779 q 308 764 326 767 q 260 764 290 761 q 203 775 224 767 q 156 808 183 783 l 138 825 l 139 724 q 142 647 140 686 q 144 574 143 608 q 146 513 144 540 q 149 474 147 486 q 151 457 150 460 q 160 451 153 454 q 178 445 165 449 q 205 438 190 442 q 234 430 219 433 q 258 425 249 426 q 322 419 294 418 q 363 426 349 419 q 401 467 388 438 z "},"Q":{"ha":649,"x_min":28,"x_max":621,"o":"m 547 124 q 572 99 558 113 q 596 72 585 85 q 614 51 607 60 q 621 40 621 42 q 613 32 621 38 q 597 21 606 26 q 585 13 593 18 q 571 1 578 7 q 541 -17 560 -7 q 513 -31 522 -28 q 502 -22 508 -31 q 475 25 496 -12 q 452 67 463 49 q 440 88 442 85 l 436 93 l 418 86 q 375 76 403 81 q 303 69 347 72 q 274 65 286 67 q 261 63 261 64 q 247 65 258 60 q 222 82 235 71 q 197 106 217 86 q 154 153 178 126 q 125 185 136 172 q 107 207 114 199 q 96 222 100 215 q 88 235 92 228 q 78 258 82 246 q 73 288 75 269 q 69 335 71 307 q 67 406 68 363 q 65 447 67 424 q 63 493 64 469 q 61 539 63 517 q 58 578 60 561 q 54 651 56 613 q 51 711 53 690 q 51 752 51 738 q 49 775 50 767 q 44 788 47 783 q 38 797 42 792 q 33 802 35 800 q 31 807 32 804 q 28 811 29 810 q 38 815 32 815 q 78 831 49 818 q 132 857 108 843 q 188 892 164 875 q 242 932 213 908 q 272 956 267 953 q 279 954 276 958 q 296 935 282 951 q 329 899 310 919 q 367 856 356 871 q 383 831 378 842 q 413 787 390 815 q 490 697 436 758 q 533 649 514 671 q 554 625 551 628 l 563 615 l 560 535 q 558 457 558 501 q 557 383 557 413 q 556 312 557 342 q 551 258 554 282 q 541 217 547 235 q 526 181 535 199 l 515 157 l 547 124 m 456 719 l 447 729 q 429 749 443 733 q 400 783 415 764 q 385 799 392 792 q 372 814 378 807 q 361 828 367 821 q 351 822 360 828 q 332 807 343 815 q 306 787 321 797 q 282 769 292 776 q 256 753 271 763 q 224 736 240 744 q 193 721 208 728 q 168 710 178 714 q 156 706 160 707 q 151 701 153 704 q 151 694 150 699 q 153 679 151 689 q 155 652 154 675 q 157 601 156 629 q 160 540 158 572 q 163 493 161 508 q 168 388 165 440 q 174 274 171 336 q 176 214 175 239 q 178 188 176 189 q 187 184 179 185 q 224 186 194 183 q 357 221 326 197 l 363 225 l 338 272 q 327 290 332 282 q 319 306 322 299 q 311 319 314 313 q 317 333 311 319 l 322 344 l 364 304 l 404 263 l 413 276 q 444 366 435 311 q 453 518 453 421 q 453 582 453 543 q 454 649 453 621 l 456 719 z "},"R":{"ha":576,"x_min":26,"x_max":550,"o":"m 418 190 q 462 115 439 153 q 517 28 485 76 q 540 -8 531 7 q 549 -25 550 -24 q 531 -11 547 -26 q 492 28 515 4 q 460 59 472 47 q 440 81 449 71 q 424 103 432 92 q 404 133 417 114 q 376 178 392 153 q 344 228 360 204 q 317 274 329 253 q 300 304 306 294 q 290 319 294 315 q 271 331 286 322 q 226 358 247 342 q 182 394 204 374 l 156 419 l 156 410 q 156 385 156 404 q 160 343 157 367 q 165 224 163 289 q 171 72 168 160 q 174 5 172 35 q 176 -28 175 -25 q 174 -36 176 -36 q 156 -21 172 -36 q 118 17 139 -6 l 65 68 l 63 122 q 60 178 61 144 q 58 239 60 213 q 57 296 58 267 q 53 363 56 325 q 49 447 51 400 q 42 560 46 494 q 39 607 40 575 q 36 668 38 639 q 33 731 35 696 q 31 786 32 767 q 27 856 28 829 q 29 889 26 882 q 35 890 31 894 q 63 865 40 886 q 92 838 82 846 q 119 822 103 831 q 172 801 149 807 q 226 793 196 794 q 294 799 267 790 q 346 831 322 808 q 358 840 353 836 q 365 844 364 844 q 383 828 367 844 q 419 792 400 811 q 456 755 439 772 q 472 736 472 738 q 475 732 472 735 q 481 710 478 732 q 490 633 483 688 q 497 580 494 601 q 501 540 500 558 q 502 503 501 521 q 503 460 503 485 q 502 417 503 433 q 500 389 501 400 q 496 369 499 378 q 488 351 493 361 q 444 309 474 324 q 379 299 414 294 q 363 297 363 299 q 367 283 363 294 q 381 257 372 272 q 399 224 389 242 q 418 190 408 206 m 199 429 q 326 417 279 399 q 374 454 357 426 q 383 472 379 464 q 389 492 388 481 q 391 520 390 503 q 392 567 392 538 q 391 622 392 594 q 389 658 390 649 l 388 681 l 344 681 q 303 683 314 682 q 276 689 293 683 q 210 718 243 700 q 151 760 176 736 l 139 772 l 140 719 q 143 649 142 690 q 147 567 144 607 q 150 498 149 528 q 151 463 151 468 q 159 445 153 450 q 199 429 165 440 z "},"S":{"ha":563,"x_min":28,"x_max":538,"o":"m 432 301 q 483 247 468 264 q 506 219 499 229 q 533 131 529 175 q 518 60 538 86 q 472 27 501 38 q 410 22 442 17 q 354 39 386 25 q 290 72 322 53 q 261 90 279 78 q 224 117 243 103 q 185 143 204 131 q 157 164 167 156 q 126 191 147 171 q 83 233 104 211 q 44 272 61 254 q 28 292 28 289 q 31 296 28 297 q 44 283 33 294 q 74 260 53 275 q 119 228 94 244 q 169 195 144 211 q 213 169 194 179 q 396 156 329 104 q 413 178 406 164 q 422 208 419 192 q 422 240 424 224 q 414 269 421 257 q 342 340 400 294 q 221 433 269 392 q 135 518 172 475 q 81 604 93 567 q 85 681 69 642 q 97 706 89 689 q 115 742 106 724 q 134 776 125 760 q 147 800 143 793 q 186 832 169 832 q 213 821 190 832 q 263 795 235 810 q 320 765 292 781 q 364 740 349 750 q 389 718 369 736 q 428 680 408 700 q 465 643 449 660 q 479 625 481 626 q 473 626 479 624 q 460 633 467 629 q 408 663 436 647 q 356 690 381 678 q 313 711 331 703 q 292 719 296 719 q 283 717 288 719 q 269 704 278 714 q 251 678 263 696 q 228 640 240 661 q 207 599 217 619 q 193 565 197 579 q 189 550 189 554 q 192 535 189 546 q 201 507 196 519 q 218 481 207 494 q 232 465 225 472 q 249 448 239 457 q 275 428 260 439 q 313 403 290 418 l 367 367 l 432 301 l 432 301 z "},"T":{"ha":758,"x_min":28,"x_max":729,"o":"m 311 739 q 270 731 296 738 q 218 715 244 724 q 171 696 192 706 q 143 679 150 686 l 138 674 l 28 783 l 33 789 q 65 808 39 796 q 122 829 92 819 q 192 848 163 843 q 265 854 221 853 q 294 855 283 854 q 315 854 306 856 q 334 851 324 853 q 363 846 344 850 q 401 839 386 842 q 428 834 417 836 q 451 831 440 832 q 476 829 461 831 q 551 829 521 825 q 606 849 581 833 l 621 858 l 675 804 l 729 750 l 721 743 q 690 727 710 735 q 651 717 671 719 q 576 718 624 714 q 478 733 529 722 q 449 739 463 736 q 433 742 436 742 q 426 735 425 742 q 428 706 428 732 q 431 644 429 679 q 433 587 432 613 q 435 535 433 561 q 438 480 436 510 q 443 411 440 450 q 446 348 444 388 q 449 275 447 308 q 453 170 451 211 q 458 103 456 129 q 465 61 461 76 q 474 33 468 46 q 480 22 476 28 q 486 14 483 17 q 492 6 492 8 q 478 10 492 -1 q 429 57 465 22 q 394 94 407 79 q 373 119 381 108 q 361 141 365 131 q 354 167 357 151 q 345 226 347 190 q 340 333 343 263 q 334 467 338 397 q 326 588 331 536 q 324 631 325 603 q 322 682 324 658 l 321 740 l 311 739 z "},"U":{"ha":621,"x_min":28,"x_max":592,"o":"m 375 11 q 323 26 349 17 q 282 44 297 35 q 254 65 271 51 q 206 111 238 79 q 163 156 182 135 q 138 183 143 176 q 120 213 126 197 q 110 250 114 228 q 103 304 106 272 q 100 382 101 336 q 93 556 99 475 q 78 704 88 636 q 68 766 72 740 q 59 810 64 792 q 49 842 54 829 q 38 868 44 856 q 28 890 28 888 q 44 878 29 893 q 82 842 60 864 q 113 811 101 822 q 130 792 124 800 q 140 778 136 785 q 149 761 144 771 q 160 736 156 750 q 168 713 165 722 q 177 671 172 697 q 186 615 182 644 q 194 555 190 585 q 200 501 197 525 q 204 446 203 469 q 207 399 206 422 q 209 351 208 376 q 211 289 210 325 q 217 180 214 222 q 222 135 219 138 q 233 131 224 133 q 253 126 242 129 q 278 122 265 124 q 299 118 290 119 q 358 121 328 115 q 414 139 388 126 q 446 167 428 146 q 475 213 464 189 l 483 228 l 481 303 q 478 368 479 332 q 475 451 476 404 q 472 556 474 497 q 468 690 469 615 q 466 787 467 740 q 465 849 465 833 l 464 886 l 519 831 q 559 790 543 807 q 575 771 575 774 q 574 748 574 769 q 578 697 575 726 q 580 624 579 667 q 582 549 581 581 q 590 228 582 413 q 592 181 592 199 q 592 151 592 163 q 592 133 592 139 q 590 122 592 126 q 582 97 588 111 q 574 81 576 83 q 560 63 569 81 q 529 33 544 43 q 483 14 514 24 q 461 9 475 11 q 432 7 447 7 q 402 8 417 7 q 375 11 388 8 z "},"V":{"ha":544,"x_min":22,"x_max":517,"o":"m 347 49 q 322 26 329 29 q 300 29 315 22 q 278 45 293 32 q 236 88 264 58 l 183 140 l 171 174 q 151 234 160 201 q 133 308 142 267 q 117 403 125 350 q 100 524 108 456 q 90 598 96 561 q 79 667 85 635 q 69 724 74 699 q 61 765 65 750 q 44 826 54 796 q 32 863 35 857 q 35 865 22 876 q 88 815 49 854 l 144 758 l 151 736 q 167 675 160 707 q 182 605 175 643 q 196 520 189 567 q 211 414 203 474 q 224 327 217 369 q 235 251 231 285 q 244 197 240 218 q 251 175 249 176 q 266 189 254 172 q 289 225 278 206 q 305 260 297 242 q 320 304 313 279 q 336 363 328 329 q 356 443 344 397 q 381 569 371 515 q 399 668 392 624 q 401 692 400 681 q 403 716 403 703 q 404 748 404 729 q 404 796 404 767 q 405 858 404 832 q 407 886 406 885 q 424 873 408 888 q 461 836 439 858 l 514 783 l 515 715 q 516 650 517 679 q 512 591 515 621 q 503 527 508 561 q 489 449 497 493 q 454 285 469 350 q 424 176 439 219 q 390 103 408 132 q 347 49 372 74 z "},"W":{"ha":835,"x_min":28,"x_max":807,"o":"m 426 182 l 422 167 q 395 88 407 114 q 368 46 383 61 q 279 22 325 4 q 270 27 275 24 q 257 38 265 31 q 236 57 249 44 q 204 89 224 69 q 165 129 179 114 q 142 156 150 144 q 130 178 133 167 q 122 204 126 189 q 117 236 119 215 q 113 276 115 257 q 108 328 111 296 q 103 383 106 360 q 97 442 100 407 q 90 503 93 478 q 85 559 88 528 q 81 610 83 590 q 71 694 76 653 q 59 772 65 736 q 46 833 53 807 q 33 872 39 860 q 28 888 28 882 q 45 872 29 888 q 85 835 61 857 q 119 798 107 811 q 140 774 132 785 q 150 754 147 764 q 157 729 153 744 q 178 617 169 676 q 194 481 188 557 q 197 448 196 467 q 200 415 199 429 q 205 367 201 401 q 211 296 208 332 q 219 224 215 260 q 224 172 222 188 q 224 158 224 164 q 226 146 225 151 q 228 135 228 140 q 245 144 231 132 q 267 164 260 156 q 310 267 290 194 q 347 456 329 340 q 356 510 351 482 q 363 551 360 538 q 372 616 368 589 q 377 670 375 643 q 381 729 379 697 q 383 810 382 761 q 386 878 385 851 q 389 907 388 906 q 446 856 390 911 l 500 803 l 497 785 q 496 759 496 778 q 496 722 496 740 q 493 633 496 682 q 485 521 490 583 q 478 407 479 460 q 479 324 476 354 q 492 231 483 281 q 508 149 500 182 l 511 139 l 524 140 q 583 165 556 146 q 629 213 610 183 q 671 406 661 263 q 681 549 678 494 q 688 651 685 604 q 690 715 689 682 q 693 768 692 749 q 694 807 694 786 q 694 839 694 828 q 699 868 697 867 q 715 855 700 869 q 754 817 731 840 l 807 764 l 804 692 q 802 629 803 663 q 799 581 801 596 q 797 543 797 564 q 796 510 796 522 q 794 454 796 493 q 788 372 792 415 q 781 287 785 328 q 774 225 776 246 q 762 160 767 182 q 746 117 757 139 q 683 47 725 72 q 603 31 642 22 q 583 36 592 32 q 563 47 574 40 q 539 67 553 54 q 504 100 525 79 q 463 140 482 121 q 439 167 444 160 l 426 182 z "},"X":{"ha":585,"x_min":28,"x_max":557,"o":"m 411 172 q 398 201 411 174 q 369 260 385 229 q 341 318 354 292 q 326 344 328 344 q 312 318 325 344 q 281 256 299 292 q 235 167 258 211 q 193 85 213 122 q 160 25 174 49 q 144 -3 147 1 l 138 -11 l 82 43 q 44 83 60 67 q 28 100 28 99 q 33 107 28 101 q 193 410 44 115 l 243 508 l 218 563 q 193 616 207 585 q 169 669 179 647 q 147 719 158 692 q 122 772 135 746 q 99 823 110 799 q 81 864 89 847 q 69 887 74 876 q 65 900 65 897 q 78 890 65 903 q 121 849 92 878 q 160 808 144 825 q 176 790 176 792 q 184 774 176 789 q 201 736 192 758 q 239 657 221 694 q 267 597 257 619 q 272 585 269 590 q 275 578 275 579 q 289 601 276 576 q 319 660 301 625 q 355 728 338 694 q 379 775 372 761 q 397 807 386 789 q 419 842 408 825 q 437 871 429 858 q 447 885 444 883 q 460 878 450 888 q 506 835 471 868 q 535 805 524 815 q 551 788 546 794 q 556 779 556 782 q 556 775 557 776 q 548 763 554 772 q 535 742 542 753 q 495 676 515 713 q 442 574 475 639 q 406 504 425 542 q 378 449 388 467 l 354 404 l 407 303 q 447 225 425 267 q 486 147 468 183 q 516 85 504 110 q 528 58 528 60 q 515 65 528 53 q 467 113 503 76 q 427 153 443 136 q 411 172 411 169 z "},"Y":{"ha":510,"x_min":22,"x_max":482,"o":"m 481 699 q 481 615 482 658 q 479 546 481 572 q 478 510 479 533 q 477 460 478 488 q 476 401 476 432 q 476 342 476 371 q 476 232 476 282 q 474 168 475 182 q 333 -53 457 -1 q 311 -60 319 -60 q 283 -62 303 -61 q 256 -62 264 -62 q 231 -56 247 -61 q 201 -44 214 -50 q 176 -29 189 -39 q 145 -3 163 -19 q 100 42 128 14 q 52 90 72 69 q 29 114 32 111 q 54 100 22 131 q 90 72 72 82 q 133 54 108 61 q 191 50 161 46 q 249 69 221 54 q 299 108 276 83 q 338 164 322 132 q 344 181 340 169 q 350 203 347 192 q 355 224 353 215 q 357 233 357 233 q 347 232 356 235 q 315 229 339 229 q 272 235 296 229 q 231 250 249 240 q 203 274 224 254 q 158 317 182 293 q 115 362 135 340 q 89 392 94 383 q 60 478 68 422 q 56 521 57 493 q 53 580 54 549 q 51 643 51 611 q 53 700 51 675 q 57 766 54 733 q 63 826 60 799 q 67 869 65 853 q 72 889 69 886 q 92 874 74 890 q 131 836 110 857 q 167 797 151 815 q 182 778 183 779 q 176 754 179 775 q 171 703 174 733 q 166 635 168 672 q 164 565 164 599 q 164 490 163 528 q 167 420 165 451 q 172 367 169 389 q 179 344 175 346 q 200 340 183 342 q 224 340 217 339 q 339 457 307 357 q 355 516 350 489 q 363 575 360 543 q 365 637 364 600 q 368 711 367 674 q 369 783 369 749 q 368 840 369 818 q 367 883 367 868 q 369 899 368 899 q 387 883 371 899 q 425 844 403 867 l 479 790 l 481 699 z "},"Z":{"ha":596,"x_min":28,"x_max":569,"o":"m 518 117 q 563 70 556 79 q 567 60 569 61 q 440 46 560 56 q 386 43 428 44 q 300 40 344 42 q 216 38 254 39 q 169 36 178 38 q 140 39 147 36 q 117 59 136 42 q 79 97 99 76 q 44 135 60 118 q 28 154 28 151 q 33 167 28 157 q 47 188 39 176 q 65 212 57 200 q 84 240 74 224 q 109 278 94 256 q 144 335 124 300 q 188 405 164 367 q 226 465 211 443 q 267 528 243 492 q 314 601 290 565 q 357 667 338 638 q 383 708 376 696 q 393 726 389 718 q 396 733 397 733 q 367 736 394 735 q 300 739 339 738 q 226 741 263 740 q 178 743 190 742 l 149 744 l 93 800 q 53 840 69 824 q 39 857 38 856 l 43 857 q 47 856 46 857 q 51 856 49 856 q 73 853 57 854 q 107 853 89 853 q 201 851 143 853 q 315 844 258 849 q 411 844 367 843 l 456 847 l 568 735 l 550 699 q 475 571 528 656 q 343 367 422 486 q 320 331 331 346 q 300 300 310 315 q 279 267 290 285 q 253 225 268 250 q 226 181 238 200 q 213 158 214 161 l 208 151 l 260 154 q 305 156 281 154 q 342 158 329 157 q 425 165 393 163 q 460 169 457 168 q 518 117 464 171 z "},"[":{"ha":367,"x_min":26,"x_max":344,"o":"m 285 833 q 333 783 322 796 q 333 775 344 769 q 296 783 325 781 q 225 788 267 786 l 168 789 l 160 781 q 149 767 153 774 q 144 749 146 761 q 141 717 142 738 q 140 663 140 696 q 141 581 140 629 q 143 499 142 533 q 148 398 146 440 q 151 324 150 356 q 153 269 153 293 q 156 225 154 246 q 160 174 158 201 q 163 131 161 146 l 163 103 q 164 92 163 97 q 191 94 171 92 q 214 100 211 97 q 228 92 218 101 q 274 49 238 83 q 315 6 304 18 q 325 -10 326 -7 q 243 -19 317 -18 q 199 -20 211 -21 q 181 -17 188 -19 q 159 -1 174 -14 q 113 44 144 13 l 56 101 l 53 167 q 51 226 51 193 q 49 278 50 258 q 44 355 46 324 q 40 412 42 386 q 38 461 39 438 q 35 514 36 485 q 33 583 35 543 q 29 679 31 622 q 28 792 26 743 q 33 858 29 840 q 51 892 40 885 q 92 900 63 900 q 124 899 106 900 q 159 897 142 899 q 191 894 176 896 q 214 892 206 893 l 231 888 l 285 833 l 285 833 z "},"\\":{"ha":351,"x_min":26,"x_max":322,"o":"m 322 -11 q 319 -18 322 -18 q 301 -3 318 -18 q 261 36 285 13 q 240 58 250 47 q 224 75 231 68 q 208 92 215 83 q 206 119 210 93 q 197 183 203 144 q 182 265 190 221 q 165 349 174 308 q 158 385 163 364 q 148 431 153 407 q 138 478 143 454 q 129 522 133 501 q 97 681 110 619 q 74 785 83 743 q 56 858 64 828 q 38 921 47 888 q 29 947 32 936 q 28 958 26 957 q 45 944 29 958 q 83 907 61 929 l 136 854 l 144 829 q 182 691 161 776 q 231 465 203 606 q 240 420 235 444 q 250 371 244 396 q 260 323 256 346 q 268 283 264 300 q 283 214 276 243 q 294 160 289 185 q 303 111 299 135 q 311 58 307 88 q 317 12 314 32 q 322 -11 321 -8 z "},"]":{"ha":443,"x_min":28,"x_max":417,"o":"m 411 714 q 415 631 417 694 q 406 464 413 568 q 401 391 403 419 q 398 336 399 363 q 397 278 397 310 q 397 197 397 247 q 397 110 397 140 q 396 66 397 81 q 392 47 394 51 q 383 36 389 42 q 368 26 376 29 q 342 19 360 22 q 313 15 331 17 q 276 13 294 14 q 243 13 258 13 q 224 15 228 14 q 201 33 219 17 q 162 71 182 50 q 125 110 142 92 q 108 132 108 129 l 108 138 l 126 124 l 172 125 q 247 133 225 128 q 279 151 269 138 l 285 160 l 285 293 q 285 400 285 349 q 289 471 286 451 q 294 553 292 508 q 299 636 297 597 q 303 703 301 675 q 304 736 304 731 l 304 751 l 274 750 q 235 751 260 750 q 188 753 211 751 l 135 757 l 81 810 q 43 848 58 832 q 28 865 28 864 q 53 867 28 868 q 98 865 63 865 q 174 864 133 864 q 225 863 206 864 q 256 862 244 863 q 273 860 268 861 q 282 858 278 860 q 304 840 286 856 q 342 803 322 824 q 380 765 363 783 q 401 740 397 746 q 407 728 404 736 q 411 714 410 721 z "},"^":{"ha":411,"x_min":26,"x_max":382,"o":"m 378 749 q 382 744 382 746 q 372 739 378 742 q 360 733 367 736 q 347 726 354 729 l 311 708 l 307 711 q 262 758 292 718 q 197 856 232 797 q 190 867 193 863 q 186 871 186 872 l 183 868 q 148 823 161 840 q 122 790 135 806 q 101 763 104 768 q 95 756 101 760 q 65 742 89 753 q 28 724 32 724 q 31 733 26 726 q 51 758 36 739 q 71 783 60 769 q 89 806 82 797 q 158 894 156 892 q 172 902 160 896 q 199 915 183 908 q 229 931 222 928 q 239 933 236 935 q 249 925 244 931 q 267 897 253 919 q 333 798 304 836 q 378 749 361 760 z "},"_":{"ha":511,"x_min":28,"x_max":483,"o":"m 429 -72 q 467 -111 451 -94 q 483 -129 483 -128 q 460 -133 483 -132 q 381 -136 436 -135 q 342 -138 361 -137 q 315 -140 322 -139 l 181 -146 q 165 -145 174 -146 q 150 -143 157 -144 l 133 -142 l 81 -89 q 43 -51 58 -67 q 28 -33 28 -35 q 54 -33 28 -31 q 81 -33 61 -33 q 128 -31 101 -32 q 187 -29 156 -31 q 245 -26 218 -28 q 294 -24 272 -25 q 324 -24 315 -24 q 364 -21 350 -24 l 376 -19 l 429 -72 l 429 -72 z "},"`":{"ha":235,"x_min":26,"x_max":207,"o":"m 196 979 q 206 960 204 964 q 204 957 207 957 q 186 973 203 957 q 147 1013 169 989 q 111 1049 124 1036 q 90 1074 99 1061 q 74 1106 82 1088 q 50 1157 65 1124 q 30 1203 33 1193 q 29 1213 26 1213 q 47 1197 31 1213 q 83 1160 63 1182 l 136 1107 l 161 1053 q 181 1009 171 1031 q 196 979 192 988 z "},"a":{"ha":439,"x_min":22,"x_max":411,"o":"m 88 536 q 47 576 64 560 q 29 596 31 593 q 40 596 22 610 q 72 581 53 585 q 135 578 92 578 q 163 578 151 578 q 181 578 174 578 q 194 580 188 579 q 207 583 200 581 q 250 601 235 592 q 281 631 265 611 l 288 638 l 342 583 l 396 529 l 400 375 q 403 308 401 343 q 405 238 404 272 q 407 175 406 204 q 408 126 408 146 l 411 32 l 406 26 q 378 7 397 18 q 343 -10 358 -4 q 305 -16 329 -14 q 268 -15 281 -18 q 233 -7 253 -12 q 201 4 213 -1 q 190 10 196 7 q 176 22 185 14 q 154 42 167 29 q 121 75 142 54 q 81 115 96 100 q 58 141 67 131 q 47 160 50 151 q 39 181 43 168 q 35 218 36 193 q 34 270 33 243 q 37 322 35 297 q 43 361 39 347 q 50 376 46 375 q 79 368 54 376 q 119 362 94 364 q 172 361 144 360 q 224 366 199 363 q 268 376 250 369 l 290 383 l 290 414 l 290 456 l 288 467 l 257 465 q 201 467 229 464 q 158 476 174 469 q 148 481 153 478 q 136 490 143 483 q 117 507 129 496 q 88 536 106 518 m 296 249 l 250 250 q 208 251 221 250 q 181 258 196 253 q 164 263 171 261 q 156 264 157 264 q 154 257 156 261 q 151 243 151 249 q 147 215 149 232 q 146 161 146 197 l 146 99 l 157 97 q 190 95 172 94 q 222 99 208 96 q 258 110 240 101 q 288 131 276 119 l 300 142 l 297 194 l 296 249 z "},"b":{"ha":469,"x_min":28,"x_max":440,"o":"m 35 463 q 33 579 33 522 q 31 684 32 636 q 28 767 29 732 q 28 815 28 801 q 28 862 28 843 q 29 881 28 881 q 47 865 31 881 q 85 826 63 849 l 139 772 l 140 656 l 143 539 l 153 536 q 306 546 239 513 l 318 553 l 371 501 q 410 463 393 481 q 431 443 428 446 l 438 438 l 438 397 q 438 343 438 381 q 439 269 439 306 q 440 186 440 218 q 440 134 440 154 q 439 102 440 114 q 435 81 438 90 q 409 24 425 43 q 361 -1 393 6 q 317 -3 346 -4 q 269 0 289 -3 q 228 11 251 3 q 194 26 206 19 q 176 41 189 29 q 149 67 164 53 q 113 101 133 82 q 76 135 92 121 q 51 158 61 149 q 39 169 40 168 q 38 194 39 171 q 37 258 38 218 q 35 350 36 297 q 35 463 35 403 m 144 494 q 144 470 144 494 q 144 408 144 446 q 145 326 144 371 q 147 242 146 282 q 148 174 147 203 q 149 138 149 144 l 150 114 l 164 111 q 188 109 172 110 q 219 109 203 108 q 250 110 236 110 q 269 114 264 111 q 325 186 308 128 q 327 199 326 192 q 328 217 328 206 q 329 247 329 228 q 329 297 329 265 q 327 365 328 335 q 326 401 326 396 l 324 415 l 303 417 q 227 436 263 421 q 165 475 192 451 q 157 482 161 478 q 150 489 153 486 l 144 494 z "},"c":{"ha":431,"x_min":28,"x_max":403,"o":"m 31 544 q 28 573 29 560 q 28 590 28 586 l 28 599 l 79 599 q 167 601 119 597 q 250 610 215 604 l 276 614 l 331 560 q 368 522 353 538 q 382 504 383 506 q 354 497 381 501 q 300 490 328 493 q 258 488 286 489 q 203 488 231 488 l 138 488 l 139 481 q 142 431 140 472 q 147 338 144 390 q 152 233 150 286 q 154 147 154 179 l 154 114 l 176 115 q 201 117 186 115 q 231 122 215 119 q 259 126 246 124 q 281 131 272 128 l 294 135 l 349 81 q 388 42 372 58 q 401 25 403 26 q 343 11 400 21 q 278 3 311 4 q 225 4 244 1 q 202 8 211 6 q 183 18 193 11 q 158 38 172 25 q 121 75 144 51 q 76 121 93 103 q 57 144 60 139 q 50 163 53 153 q 46 188 47 172 q 44 227 44 203 q 42 289 43 251 q 36 435 39 368 q 31 544 33 503 z "},"d":{"ha":446,"x_min":24,"x_max":417,"o":"m 46 319 q 41 379 43 350 q 37 433 39 408 q 33 477 35 458 q 31 504 32 496 q 32 574 24 564 q 40 578 35 578 q 72 579 46 579 q 278 633 225 579 l 292 649 l 290 726 q 288 792 289 758 q 288 840 288 825 q 286 871 286 864 q 289 878 286 878 q 308 862 292 878 q 346 825 324 846 l 397 772 l 397 760 q 399 706 397 754 q 401 596 400 658 q 403 528 403 564 q 406 456 404 492 q 408 388 407 421 q 408 333 408 356 q 411 229 410 271 q 413 161 413 188 q 415 119 414 135 q 415 93 415 104 l 417 65 l 407 57 q 388 44 396 49 q 351 30 376 38 q 313 19 326 22 q 267 17 293 17 q 228 22 240 18 q 214 28 221 25 q 203 33 207 31 q 177 56 197 36 q 133 100 157 75 q 84 151 97 136 q 67 175 71 165 q 50 261 54 200 q 49 289 50 272 q 46 319 47 306 m 142 463 q 143 376 136 456 q 151 293 147 342 q 158 203 156 244 q 160 169 160 186 q 163 146 161 153 l 164 128 l 189 129 q 213 133 200 131 q 236 139 225 135 q 275 153 260 146 q 297 168 290 161 l 304 175 l 300 326 q 299 384 299 357 q 297 432 299 411 q 296 476 296 457 q 290 476 296 478 q 275 474 283 475 q 245 471 267 472 q 200 468 224 469 q 156 466 168 467 q 142 463 144 465 z "},"e":{"ha":449,"x_min":26,"x_max":421,"o":"m 131 136 q 84 183 101 165 q 58 215 67 201 q 44 239 49 228 q 35 265 39 250 q 28 303 29 288 q 29 342 26 318 q 47 417 33 376 q 93 525 61 457 q 118 579 108 558 q 134 611 128 600 q 144 626 140 622 q 151 629 149 629 q 167 617 154 629 q 197 589 181 606 q 237 550 214 571 q 275 515 260 529 q 317 477 293 500 q 365 431 342 454 q 403 392 388 408 q 419 372 419 375 q 411 356 421 368 q 369 310 401 344 q 324 263 347 286 q 290 229 301 240 q 268 208 279 218 q 254 193 257 197 q 244 182 246 182 q 228 196 243 182 q 194 229 214 210 l 147 276 l 144 261 q 139 217 139 240 q 143 175 139 193 q 144 166 144 169 q 146 160 144 163 q 147 153 146 156 q 154 150 150 151 q 162 148 157 149 q 172 144 167 147 q 214 135 192 138 q 276 131 236 133 l 313 129 l 365 76 q 403 38 388 54 q 418 21 418 22 q 410 17 418 18 q 374 19 401 17 q 294 29 325 22 q 226 54 263 36 q 210 62 217 58 q 195 73 204 65 q 172 95 186 81 q 131 136 157 110 m 250 510 q 232 474 246 503 q 203 415 218 446 q 177 357 189 383 q 165 328 165 331 q 174 334 165 326 q 197 356 183 342 q 228 387 211 369 q 261 421 244 404 q 289 453 279 442 q 301 467 294 460 q 294 475 301 468 q 278 492 288 482 l 254 515 l 250 510 z "},"f":{"ha":422,"x_min":28,"x_max":396,"o":"m 82 542 q 72 551 81 542 q 53 574 64 561 q 35 597 43 586 q 28 610 28 608 q 48 623 29 614 q 82 635 67 632 q 99 638 88 638 q 121 640 110 639 l 147 642 l 150 694 q 157 777 151 750 q 178 824 163 804 q 194 838 182 829 q 219 854 206 846 q 247 869 233 863 q 271 878 261 875 l 283 881 l 394 769 l 383 768 q 349 754 372 765 q 308 732 326 743 q 280 703 289 719 q 267 660 271 688 q 265 635 263 638 q 283 632 267 632 q 331 647 315 632 l 339 654 l 346 647 q 376 612 361 631 q 393 590 390 593 q 389 580 396 586 q 371 568 382 574 q 355 563 363 564 q 328 563 347 563 q 301 563 315 563 q 279 565 286 564 l 261 568 l 261 546 q 262 516 261 536 q 265 476 263 496 q 269 424 267 457 q 274 367 271 392 q 276 316 275 340 q 279 282 278 292 q 283 247 281 274 q 286 190 285 219 q 293 77 290 119 q 299 14 296 35 q 301 -9 301 -6 q 299 -12 301 -12 q 281 3 297 -12 q 243 42 265 19 l 190 96 l 186 126 q 181 196 183 156 q 176 288 179 236 q 173 333 174 310 q 171 367 172 356 q 166 413 168 385 q 162 469 164 442 q 158 517 160 496 q 157 546 157 539 q 154 565 157 563 q 139 565 151 568 q 113 556 131 563 q 82 542 94 549 z "},"g":{"ha":476,"x_min":25,"x_max":449,"o":"m 440 322 q 447 161 446 235 q 446 46 449 88 q 440 -18 443 10 q 433 -68 438 -46 q 422 -110 429 -90 q 404 -150 414 -129 q 374 -198 389 -182 q 340 -225 360 -214 q 283 -243 314 -237 q 238 -243 251 -249 q 215 -224 233 -242 q 175 -185 196 -206 q 138 -148 154 -165 q 121 -128 121 -131 q 131 -129 121 -125 q 176 -133 146 -137 q 233 -112 206 -128 q 265 -87 253 -101 q 293 -40 278 -72 q 321 34 313 -1 q 333 126 329 69 q 335 178 338 176 q 315 143 333 179 q 267 59 292 96 q 229 15 243 22 q 212 12 221 11 q 189 22 203 13 q 154 50 175 31 q 100 103 133 69 q 63 141 76 126 q 42 167 49 156 q 32 187 35 178 q 28 207 29 196 q 31 277 25 232 q 48 374 38 322 q 73 476 58 425 q 103 564 88 528 q 130 619 117 596 q 147 643 143 643 q 157 639 149 643 q 176 629 165 635 q 199 616 188 624 q 221 603 211 608 q 245 582 228 597 q 281 547 263 567 l 325 503 l 325 554 q 326 590 325 575 q 328 606 326 606 q 345 590 329 606 q 383 551 361 574 l 438 497 l 438 429 q 438 370 438 401 q 440 322 439 339 m 267 394 q 292 466 281 433 q 304 501 304 499 q 297 507 304 503 q 281 517 290 511 q 264 526 272 522 q 254 531 256 531 q 240 508 251 531 q 217 461 228 485 q 194 403 204 433 q 172 325 185 372 q 158 265 165 296 q 147 207 151 233 q 142 165 143 181 q 144 151 142 149 q 164 178 147 154 q 213 269 185 210 q 267 394 240 328 z "},"h":{"ha":536,"x_min":28,"x_max":510,"o":"m 43 272 q 40 358 42 310 q 38 458 39 407 q 36 558 38 508 q 33 649 35 608 q 31 725 32 688 q 30 792 31 763 q 28 840 29 821 q 28 864 28 860 l 28 886 l 138 776 l 142 650 q 144 560 143 597 q 146 521 146 522 q 156 522 147 519 q 175 527 164 524 q 198 535 186 531 q 218 544 210 540 q 265 573 246 558 q 301 610 283 588 q 316 627 310 619 q 324 636 322 635 q 342 624 326 639 q 353 613 349 617 q 360 608 358 608 q 377 592 361 608 q 417 554 393 576 l 471 500 l 468 486 q 465 442 467 474 q 462 369 464 410 q 458 285 460 329 q 457 206 457 242 q 458 117 457 150 q 462 63 458 83 q 472 31 465 43 q 492 7 479 19 q 507 -11 504 -6 q 500 -11 510 -17 q 474 12 494 -8 q 429 56 453 32 q 385 103 406 81 q 363 131 365 125 q 354 151 357 140 q 349 179 351 163 q 347 221 347 196 q 346 286 346 246 q 347 364 346 326 q 349 414 347 401 l 350 446 l 331 435 q 203 417 260 397 q 184 424 192 419 q 165 440 176 429 l 147 458 l 149 388 q 149 348 149 372 q 151 294 150 324 q 152 233 151 265 q 154 172 153 201 q 156 115 156 143 q 157 65 157 88 q 157 26 157 42 q 157 4 157 10 l 157 -21 l 49 88 l 43 272 l 43 272 z "},"i":{"ha":218,"x_min":28,"x_max":189,"o":"m 42 201 q 35 247 38 228 q 31 291 32 265 q 28 356 29 317 q 28 465 28 396 q 28 589 28 538 q 29 642 28 640 q 47 626 31 642 q 86 588 63 611 l 140 532 l 139 440 q 140 214 135 304 q 160 65 144 124 q 166 47 161 58 q 176 26 171 36 q 185 10 181 15 q 189 3 188 6 q 178 9 189 -1 q 129 58 167 19 q 88 101 103 85 q 63 133 72 118 q 50 163 54 147 q 42 201 46 178 z "},"j":{"ha":382,"x_min":25,"x_max":354,"o":"m 163 -257 q 150 -251 157 -256 q 134 -239 143 -247 q 112 -217 125 -231 q 79 -185 99 -204 q 35 -138 44 -150 q 29 -126 25 -126 q 33 -128 31 -126 q 39 -133 36 -131 q 59 -145 50 -142 q 86 -149 68 -149 q 105 -147 97 -149 q 121 -142 113 -144 q 163 -118 138 -135 q 199 -90 189 -101 q 227 -37 214 -71 q 243 32 240 -3 q 244 92 244 51 q 238 225 243 133 q 232 387 233 308 q 232 535 231 465 q 235 625 233 603 q 240 650 238 647 q 258 635 242 650 q 296 597 274 619 l 350 543 l 347 519 q 344 454 344 503 q 344 346 343 406 q 345 226 344 286 q 349 131 346 167 q 351 92 350 113 q 352 50 351 71 q 353 10 353 29 q 354 -24 354 -10 q 354 -62 354 -47 q 353 -86 354 -76 q 350 -102 351 -96 q 347 -115 349 -108 q 293 -214 329 -186 q 254 -240 276 -226 q 221 -256 232 -253 q 190 -259 210 -258 q 163 -257 171 -260 z "},"k":{"ha":496,"x_min":28,"x_max":467,"o":"m 32 656 q 31 710 32 682 q 30 762 31 738 q 28 806 29 786 q 28 836 28 825 q 28 878 28 868 q 31 888 28 888 q 49 872 32 888 q 86 835 65 857 l 139 783 l 140 636 q 142 532 142 575 q 143 486 143 489 q 158 487 144 483 q 189 498 171 490 q 226 516 207 506 q 256 535 244 526 q 300 583 279 553 q 333 653 321 614 q 341 681 336 663 q 349 717 346 700 q 354 744 351 732 q 357 758 357 757 q 374 744 358 760 q 413 706 390 729 l 467 651 l 461 615 q 440 532 451 567 q 411 474 428 497 q 384 442 400 458 q 357 418 368 425 q 347 413 350 415 q 342 410 343 410 q 357 392 342 407 q 388 341 379 369 q 400 254 397 313 q 403 214 401 236 q 406 179 404 192 q 408 136 407 165 q 411 79 410 107 q 413 38 413 54 q 415 10 414 21 q 419 -9 417 -1 q 425 -26 421 -17 q 425 -31 426 -31 q 407 -15 424 -31 q 368 25 390 1 q 328 65 342 51 q 309 94 315 79 q 301 130 303 108 q 299 192 300 151 q 296 255 297 218 q 292 317 294 292 l 288 379 l 279 378 q 265 374 276 376 q 243 367 254 371 q 161 358 194 350 q 156 359 158 358 q 150 360 153 360 l 146 360 q 145 304 144 358 q 147 172 146 250 q 149 41 149 96 q 147 -15 149 -14 q 131 -1 147 -17 q 92 36 114 14 l 39 90 l 36 307 q 34 401 35 351 q 33 499 33 451 q 32 587 32 546 q 32 656 32 628 z "},"l":{"ha":424,"x_min":28,"x_max":396,"o":"m 342 81 q 363 59 353 69 q 379 42 372 49 l 396 25 q 390 22 396 24 q 370 20 385 21 q 329 19 356 19 q 263 18 303 18 q 181 16 215 17 q 146 14 147 15 q 88 67 142 13 l 35 121 l 33 317 q 33 407 33 357 q 31 508 32 457 q 30 609 31 560 q 29 696 29 658 q 28 828 28 774 q 29 883 28 882 q 46 871 31 885 q 85 833 61 857 l 138 779 l 142 456 q 142 329 142 389 q 144 226 143 269 q 144 156 144 182 q 144 129 144 129 q 161 129 144 129 q 199 129 178 129 q 239 130 219 129 q 265 132 258 131 l 288 135 l 342 81 z "},"m":{"ha":835,"x_min":28,"x_max":808,"o":"m 39 128 q 38 160 39 135 q 37 224 38 186 q 35 307 36 261 q 33 403 35 353 q 31 498 32 453 q 30 578 31 543 q 28 636 29 614 q 28 663 28 658 q 33 682 28 682 q 56 664 38 682 q 88 640 72 649 q 131 624 104 631 q 185 617 154 617 q 236 624 215 617 q 257 632 244 626 q 282 644 269 638 q 305 656 294 650 q 319 665 315 661 l 325 671 q 328 672 326 672 q 335 666 329 672 q 350 653 342 660 q 367 638 358 644 q 381 628 376 631 q 422 611 399 618 q 467 600 444 604 q 512 594 490 596 q 550 596 533 593 q 605 616 575 600 q 643 644 635 632 q 651 653 647 653 q 672 635 653 653 q 718 590 692 617 l 782 526 l 779 476 q 778 399 778 449 q 778 297 778 349 q 778 201 778 244 q 781 140 779 157 q 801 33 788 72 q 806 19 804 25 q 807 13 808 13 q 790 26 806 11 q 751 65 774 42 l 696 119 l 689 143 q 678 181 682 161 q 672 228 675 200 q 668 295 669 256 q 665 392 667 335 l 664 485 l 626 485 q 590 486 603 485 q 560 490 576 488 q 504 508 532 497 q 460 531 476 519 l 442 544 l 438 494 q 435 428 436 474 q 433 338 435 382 q 433 279 433 301 q 433 241 432 257 q 434 213 433 225 q 438 186 435 201 q 453 88 444 126 q 475 21 463 49 q 481 8 478 14 q 483 -1 483 1 q 467 11 483 -4 q 428 50 451 26 l 372 106 l 361 133 q 325 310 338 189 q 322 358 322 333 q 321 428 321 382 l 322 506 l 290 506 q 260 508 272 507 q 236 513 249 510 q 192 530 217 518 q 154 553 168 542 l 140 564 l 140 528 q 141 484 140 515 q 142 408 142 453 q 144 309 143 364 q 146 196 144 254 q 149 83 147 125 q 150 19 150 42 q 150 -9 150 -3 q 149 -15 150 -15 q 131 1 147 -15 q 92 39 115 17 l 39 93 l 39 128 l 39 128 z "},"n":{"ha":543,"x_min":28,"x_max":515,"o":"m 135 -25 q 118 -10 133 -25 q 81 28 103 6 l 28 79 l 28 381 l 28 688 q 33 694 28 696 q 44 681 38 692 q 59 663 49 674 q 81 640 69 651 q 106 618 97 624 q 125 607 114 613 q 250 589 189 583 q 349 628 311 594 l 360 638 l 489 507 l 488 392 q 487 280 486 335 q 489 180 488 225 q 493 103 490 135 q 499 60 496 71 q 504 44 501 53 q 510 31 507 35 q 514 17 515 18 q 498 30 514 15 q 460 67 482 44 q 425 101 438 88 q 406 124 413 114 q 395 143 399 133 q 388 168 392 153 q 382 200 383 182 q 379 268 381 218 q 378 303 379 285 q 377 342 378 322 q 376 379 376 361 q 376 411 376 397 l 375 478 l 336 478 q 301 478 313 478 q 271 483 289 479 q 157 538 199 501 l 140 553 l 139 383 l 139 169 q 138 116 138 150 q 138 50 138 82 q 137 -3 138 18 q 135 -25 136 -25 z "},"o":{"ha":507,"x_min":28,"x_max":479,"o":"m 376 22 q 352 18 368 19 q 319 16 336 17 q 286 15 303 15 q 260 17 269 15 q 242 17 254 17 q 217 19 229 18 q 199 22 206 21 q 186 24 192 22 q 174 29 181 26 q 157 39 168 32 q 122 65 143 46 q 78 110 101 83 l 43 147 l 39 181 q 34 231 36 203 q 31 297 32 260 q 28 381 29 333 q 28 493 28 429 l 28 610 q 29 660 28 636 q 39 656 32 663 q 133 638 56 643 q 203 637 169 635 q 288 650 236 639 l 336 660 l 357 639 q 385 611 367 629 q 424 575 404 593 l 467 532 l 468 415 q 469 323 468 367 q 471 267 469 279 q 477 188 475 218 q 478 138 479 157 q 475 106 478 118 q 467 81 472 93 q 376 22 449 38 m 153 128 q 177 126 161 126 q 211 128 193 126 q 247 131 229 129 q 272 135 264 132 q 312 147 294 139 q 340 167 329 156 q 355 185 350 176 q 364 213 360 194 q 361 363 372 239 q 358 414 358 382 q 357 471 357 446 l 357 532 l 351 531 q 329 526 343 528 q 299 524 315 525 q 267 524 283 524 q 236 525 250 524 q 208 528 224 526 q 179 533 193 531 q 155 537 165 535 q 143 540 144 539 q 142 540 143 542 q 140 538 140 539 q 140 514 140 535 q 139 460 139 493 q 138 390 139 428 q 138 315 138 351 q 139 248 139 278 q 140 203 139 218 q 143 161 143 179 q 143 139 143 143 q 153 128 143 129 z "},"p":{"ha":581,"x_min":28,"x_max":553,"o":"m 35 64 q 34 182 35 119 q 32 303 33 244 q 30 413 31 363 q 29 497 29 464 q 28 560 28 531 q 28 613 28 590 l 28 661 q 33 660 31 661 q 39 657 36 658 q 44 654 42 656 q 73 642 60 647 q 104 633 86 638 q 165 624 128 628 q 229 621 201 621 q 271 622 246 621 q 322 626 296 624 q 369 631 347 629 q 399 636 390 633 q 411 640 406 639 q 418 642 417 642 q 437 626 421 642 q 476 589 453 611 q 512 553 500 565 q 528 531 524 542 q 535 505 533 519 q 538 461 536 490 q 541 406 539 442 q 546 340 543 371 q 552 226 551 269 q 547 164 553 183 q 471 90 535 107 q 393 90 432 79 q 306 132 354 100 q 286 146 294 139 q 267 162 278 153 q 242 185 257 171 q 207 219 228 199 l 140 285 l 143 181 q 144 106 143 151 q 145 8 144 60 q 147 -99 146 -44 q 148 -197 147 -153 q 149 -270 149 -240 q 149 -304 149 -300 q 147 -315 149 -315 q 130 -300 146 -315 q 92 -261 114 -285 l 38 -208 l 35 64 m 139 547 q 138 513 138 547 q 139 431 139 479 l 142 314 l 161 294 q 182 274 169 286 q 208 249 194 261 q 233 228 222 238 q 249 217 244 219 q 273 206 256 211 q 303 199 290 201 q 329 197 318 196 q 356 200 340 197 q 429 247 411 211 q 436 272 433 258 q 440 303 439 285 q 441 345 442 321 q 438 404 440 369 q 435 452 436 428 q 432 488 433 476 l 431 514 l 418 514 q 394 513 413 513 q 357 511 376 513 q 242 516 299 508 q 156 539 185 524 q 144 544 149 542 q 139 547 140 547 z "},"q":{"ha":557,"x_min":26,"x_max":529,"o":"m 49 307 q 36 356 40 331 q 29 433 32 382 q 27 509 26 471 q 31 579 28 547 q 39 633 35 611 q 50 663 43 656 q 57 667 53 665 q 69 668 61 668 q 94 667 78 668 q 139 663 111 665 q 243 655 190 656 q 326 658 296 654 l 350 663 l 403 610 l 456 557 l 457 407 q 458 313 457 357 q 461 223 460 268 q 465 128 463 178 q 469 19 467 79 q 479 -100 472 -54 q 499 -182 486 -146 q 513 -219 506 -206 q 529 -243 519 -232 l 518 -253 l 485 -218 q 445 -177 464 -197 q 421 -150 426 -157 q 363 58 375 -86 q 361 72 361 65 q 360 85 361 79 q 358 96 358 90 q 352 96 358 97 q 338 92 346 94 q 261 94 303 82 q 238 103 249 99 q 215 118 228 108 q 186 144 203 128 q 143 186 169 160 q 99 230 115 213 q 74 260 83 247 q 59 283 64 272 q 49 307 54 293 m 158 551 q 145 494 150 540 q 140 393 140 449 q 143 286 139 338 q 156 214 147 235 q 169 201 158 203 q 192 199 181 199 q 247 207 222 199 q 298 228 272 215 q 332 251 324 242 q 343 265 339 260 q 349 280 347 271 q 350 303 350 289 q 349 343 350 318 q 347 406 347 368 q 344 472 346 444 l 343 542 l 329 543 q 301 546 324 543 q 250 551 278 549 q 201 556 218 554 q 175 557 183 557 q 164 556 167 557 q 158 551 161 554 z "},"r":{"ha":468,"x_min":28,"x_max":440,"o":"m 385 594 l 440 539 l 426 526 q 326 483 383 489 q 235 488 274 476 q 163 531 196 500 q 145 548 150 544 q 139 549 140 551 q 138 522 138 547 q 139 457 139 496 q 140 370 139 418 q 143 276 142 322 q 145 191 144 231 q 147 129 146 151 q 151 59 149 96 q 156 3 153 22 q 159 -44 158 -35 q 157 -53 160 -53 q 140 -37 156 -53 q 101 1 124 -21 l 47 56 l 43 114 q 39 172 40 143 q 36 231 38 200 q 33 297 35 263 q 31 375 32 332 q 28 473 29 421 q 28 569 28 525 q 28 644 28 614 q 29 679 28 675 l 32 689 l 76 644 q 101 621 92 629 q 116 608 110 613 q 126 601 122 603 q 135 599 129 600 q 199 593 161 592 q 260 601 238 594 q 288 615 272 606 q 315 636 304 625 l 329 649 l 385 594 z "},"s":{"ha":431,"x_min":26,"x_max":404,"o":"m 157 96 q 126 126 144 107 q 88 164 107 144 q 55 200 69 183 q 36 222 40 217 q 28 238 31 231 q 29 246 26 246 q 46 231 31 246 q 82 196 61 217 q 110 169 99 179 q 128 152 121 158 q 142 142 136 146 q 154 136 147 139 q 176 127 169 129 q 199 125 182 125 q 233 131 219 125 q 261 151 247 136 q 279 177 272 163 q 288 201 286 192 q 283 212 288 208 q 258 229 279 215 q 231 247 243 239 q 207 267 219 256 q 178 292 194 278 q 140 331 163 307 q 103 369 117 354 q 81 395 89 385 q 71 413 74 406 q 68 431 68 421 q 72 461 67 447 q 94 501 78 475 q 110 526 101 513 q 122 546 118 539 q 147 585 133 564 q 167 613 160 606 q 179 619 171 619 q 206 601 186 619 q 267 542 225 583 q 300 508 286 522 q 325 479 314 493 q 346 451 336 465 q 367 421 356 438 q 385 395 376 407 q 396 381 393 383 q 400 371 404 372 q 333 432 399 369 l 271 496 l 257 478 q 245 458 251 469 q 235 439 239 447 q 222 417 231 432 q 204 390 213 403 q 178 329 178 349 q 239 292 178 322 l 272 275 l 329 217 q 369 178 354 193 q 390 153 383 164 q 399 135 397 143 q 401 115 401 126 q 382 56 401 83 q 342 21 367 32 q 286 15 317 10 q 272 19 281 17 q 257 25 264 22 q 236 37 249 29 q 210 55 224 44 q 181 76 196 65 q 157 96 167 88 z "},"t":{"ha":433,"x_min":28,"x_max":404,"o":"m 81 636 q 60 658 69 647 q 43 675 50 668 q 28 692 35 683 q 42 693 28 692 q 75 696 56 694 q 115 699 94 697 q 147 700 135 700 l 165 700 l 165 772 q 165 828 165 801 q 163 865 164 856 l 161 886 l 274 774 l 275 738 l 276 701 l 285 701 q 301 692 290 701 q 349 646 313 682 l 404 589 l 278 589 l 279 433 q 281 328 279 372 q 283 253 282 285 q 285 201 283 222 q 290 167 288 181 q 295 141 293 150 q 301 125 297 132 q 313 109 306 118 q 336 86 321 100 q 367 53 360 63 q 367 43 374 43 q 346 53 363 43 q 334 59 339 56 q 321 70 329 63 q 300 90 313 78 q 268 121 288 101 q 231 160 244 144 q 209 186 217 175 q 197 207 201 197 q 188 231 192 217 q 180 266 183 244 q 174 319 176 288 q 170 394 172 350 q 167 499 168 438 l 165 583 l 150 582 l 136 581 l 81 636 z "},"u":{"ha":475,"x_min":28,"x_max":447,"o":"m 338 686 q 355 672 339 688 q 393 633 371 657 l 447 581 l 444 554 q 441 472 442 543 q 440 288 440 400 l 439 46 l 433 38 q 406 16 419 22 q 357 4 392 10 q 311 -1 336 0 q 271 0 286 -3 q 235 9 256 3 q 201 22 214 15 q 189 29 194 25 q 174 41 183 33 q 152 61 165 49 q 119 93 139 74 q 50 169 57 156 q 44 184 47 175 q 38 203 40 193 q 32 247 35 215 q 28 322 29 278 q 28 418 28 365 q 29 526 28 471 q 31 602 31 572 q 33 650 32 632 q 36 675 35 668 q 39 682 38 682 q 56 667 40 682 q 94 631 72 651 l 146 578 l 143 524 q 142 475 142 508 q 141 401 142 442 q 140 315 140 360 q 140 233 140 271 q 140 167 140 194 q 142 133 140 140 l 144 115 l 154 114 q 172 112 158 113 q 201 111 186 111 q 261 117 232 111 q 303 129 290 122 q 319 145 310 133 q 328 163 328 157 q 328 181 328 163 q 328 231 328 200 q 328 304 328 263 q 329 393 329 346 q 330 528 329 474 q 331 617 331 583 q 333 667 332 651 q 338 686 335 683 z "},"v":{"ha":513,"x_min":22,"x_max":485,"o":"m 175 147 q 154 199 164 174 q 135 255 144 224 q 113 327 125 286 q 86 426 101 368 q 37 621 51 554 q 29 688 22 688 q 47 672 31 688 q 85 635 63 657 l 138 582 l 140 564 q 163 457 143 539 q 214 263 182 375 q 233 192 228 211 q 240 175 239 174 q 247 185 242 176 q 259 205 253 193 q 272 231 265 217 q 285 257 279 244 q 310 322 300 289 q 333 401 321 354 q 362 528 353 471 q 374 650 371 585 l 375 689 l 485 582 l 483 544 q 482 509 483 529 q 478 467 481 489 q 473 424 476 444 q 467 388 469 403 q 459 353 464 375 q 448 307 454 331 q 435 260 442 283 q 425 222 429 236 q 394 145 413 185 q 354 69 375 106 q 324 31 340 50 q 301 11 307 11 q 282 26 299 11 q 242 67 265 42 l 186 121 l 175 147 l 175 147 z "},"w":{"ha":733,"x_min":25,"x_max":706,"o":"m 692 479 q 687 442 690 468 q 681 388 683 415 q 664 245 671 296 q 650 171 657 194 q 617 88 636 122 q 578 46 597 54 q 557 44 569 43 q 535 47 544 44 q 504 68 522 53 q 446 124 486 83 q 406 166 422 147 q 385 193 390 185 q 376 206 378 204 q 374 203 375 207 q 353 140 360 158 q 340 107 347 121 q 316 72 329 88 q 293 50 303 56 q 251 54 278 42 q 223 76 243 58 q 181 117 203 94 q 142 159 160 139 q 121 186 124 179 q 116 199 118 192 q 110 221 114 206 q 103 265 107 236 q 90 340 99 293 q 80 400 85 374 q 71 449 75 426 q 63 492 67 471 q 54 539 58 514 q 46 583 51 556 q 38 631 40 610 q 32 667 35 651 q 28 686 29 683 q 38 685 25 694 q 86 638 50 675 q 119 604 108 615 q 136 584 131 593 q 143 565 142 575 q 147 536 144 556 q 155 490 150 515 q 167 425 160 465 q 174 384 169 411 q 185 324 179 357 q 197 258 192 292 q 208 196 203 224 l 210 183 l 219 199 q 229 215 224 204 q 239 236 235 226 q 249 265 243 246 q 260 308 254 283 q 274 361 267 333 q 286 417 281 389 q 294 461 289 433 q 306 511 300 489 q 317 567 311 533 q 329 628 324 601 q 339 674 335 654 q 344 694 343 693 q 347 693 346 694 q 349 690 349 692 q 353 688 350 689 q 364 681 363 681 q 381 665 365 681 q 418 628 397 650 l 471 576 l 469 540 q 467 469 469 511 q 460 369 464 428 q 456 313 457 342 q 456 259 456 285 q 457 213 456 233 q 461 181 458 192 q 469 159 465 161 q 488 171 474 157 q 539 275 518 201 q 553 350 546 303 q 569 486 560 397 q 577 551 572 513 q 586 617 582 589 q 593 672 592 657 q 592 689 594 686 q 590 696 589 694 q 608 680 590 696 q 646 643 625 664 q 685 604 667 622 q 704 583 703 586 q 703 556 706 581 q 692 479 700 531 z "},"x":{"ha":619,"x_min":28,"x_max":592,"o":"m 183 63 q 158 53 167 56 q 140 54 149 50 q 118 70 131 58 q 82 106 106 82 q 43 144 58 128 q 28 163 28 161 q 42 165 28 165 q 60 168 50 165 q 90 179 71 171 q 178 226 139 199 q 249 289 217 253 l 267 310 l 257 332 q 231 403 247 354 q 199 506 215 451 q 172 610 183 561 q 157 682 160 660 q 156 694 154 693 q 160 693 157 696 q 183 672 165 689 q 219 635 200 654 q 252 600 238 615 q 267 583 267 585 q 271 555 267 576 q 282 506 275 533 q 297 450 289 479 q 311 400 304 421 l 317 381 l 326 396 q 382 495 354 439 q 429 607 410 551 q 440 636 433 621 q 451 664 446 651 q 460 685 456 676 q 465 693 464 693 q 482 678 474 686 q 499 661 489 671 q 521 640 510 651 l 574 586 l 561 557 q 549 528 556 544 q 540 501 543 513 q 500 403 525 457 q 451 311 475 349 q 432 281 444 300 q 408 244 419 261 l 381 204 l 385 194 q 392 186 388 189 q 410 179 396 183 q 449 167 433 171 q 475 164 465 164 q 483 163 479 164 q 492 158 486 163 q 510 142 499 153 q 540 111 521 131 q 578 72 564 88 q 592 54 592 57 q 546 58 586 49 q 506 70 522 64 q 473 86 489 76 q 442 109 457 96 q 406 142 426 122 l 364 183 l 333 154 q 267 101 301 122 q 183 63 232 81 z "},"y":{"ha":507,"x_min":28,"x_max":479,"o":"m 143 -154 q 97 -108 115 -128 q 76 -86 78 -89 q 78 -82 74 -79 q 94 -96 83 -85 q 149 -128 115 -114 q 204 -143 183 -143 q 245 -133 224 -143 q 288 -107 267 -124 q 321 -64 303 -96 q 350 -3 339 -32 q 353 11 351 3 q 357 27 356 19 q 359 41 358 35 q 358 47 360 47 q 351 48 358 49 q 336 44 344 47 q 314 41 325 42 q 289 42 303 40 q 247 48 265 44 q 210 61 229 51 q 197 67 203 64 q 183 78 192 71 q 162 99 175 86 q 128 132 149 111 q 82 180 101 160 q 60 207 63 200 q 33 294 43 235 q 30 317 31 307 q 28 341 29 326 q 28 378 28 356 q 28 440 28 401 q 28 529 28 485 q 31 609 29 574 q 34 667 32 644 q 38 692 36 690 q 93 642 39 693 l 146 588 l 143 532 q 142 501 143 521 q 141 456 142 481 q 140 403 140 431 q 140 349 140 375 q 140 281 140 307 q 140 238 140 254 q 142 210 140 221 q 144 190 143 200 q 149 168 147 178 q 151 157 150 158 q 164 155 153 156 q 190 154 175 154 q 242 158 222 154 q 286 175 261 163 q 342 233 328 194 q 356 289 350 257 q 361 346 361 321 q 360 390 361 363 q 358 451 360 418 q 356 515 357 483 q 353 571 354 547 q 349 654 349 624 q 351 685 349 685 q 370 669 354 685 q 407 633 386 654 l 460 581 l 461 531 q 463 473 461 511 q 467 401 464 435 q 474 256 471 317 q 478 150 476 194 q 478 72 479 106 q 476 10 478 39 q 461 -107 472 -75 q 433 -169 453 -136 q 397 -217 414 -201 q 381 -228 392 -222 q 360 -240 371 -235 q 335 -251 343 -249 q 314 -254 328 -253 q 293 -253 301 -254 q 269 -246 285 -251 q 238 -233 250 -239 q 214 -219 226 -228 q 185 -194 201 -210 q 143 -154 169 -179 z "},"z":{"ha":569,"x_min":28,"x_max":543,"o":"m 142 547 q 126 558 139 547 q 82 600 113 569 q 44 640 60 624 q 28 657 28 656 q 54 658 28 660 q 116 653 79 656 q 190 650 153 651 q 258 647 226 649 q 303 646 289 646 l 340 646 l 397 589 q 430 556 418 568 q 447 537 442 543 q 452 528 451 531 q 453 522 453 525 q 433 474 449 506 q 392 401 418 443 q 367 365 383 389 q 334 317 351 342 q 301 268 317 292 q 275 232 285 244 l 261 215 l 307 214 q 384 217 346 214 q 431 224 422 219 q 435 224 433 225 q 443 219 438 224 q 460 203 449 214 q 492 172 471 193 q 526 137 514 149 q 540 119 538 125 q 538 110 543 113 q 519 107 532 108 q 483 105 513 106 q 418 104 453 104 q 337 101 383 103 q 258 99 290 100 q 184 95 201 96 q 160 96 167 94 q 139 113 157 96 q 99 151 121 131 q 60 190 78 172 q 43 210 43 208 q 51 217 46 213 q 59 224 54 219 q 69 232 64 228 q 110 272 89 249 q 163 339 131 294 q 208 402 183 368 q 251 466 232 436 q 284 516 271 496 q 296 538 297 536 q 274 540 296 538 q 224 543 251 542 q 173 546 197 544 q 142 547 149 547 z "},"{":{"ha":426,"x_min":28,"x_max":399,"o":"m 218 567 q 163 413 206 471 l 147 392 l 175 364 q 201 333 192 346 q 217 306 211 321 q 224 270 222 292 q 228 213 226 249 q 231 163 229 185 q 232 135 232 140 q 235 124 233 126 q 243 121 236 122 q 253 119 247 119 q 261 119 258 119 q 267 119 264 119 q 276 113 269 118 q 293 96 282 107 q 324 67 304 85 q 362 27 346 43 q 376 11 378 11 q 339 11 369 4 q 282 32 304 17 q 255 57 276 36 q 207 103 233 78 q 167 143 182 128 q 145 169 153 158 q 134 190 138 181 q 126 215 131 200 q 122 238 124 224 q 119 272 121 253 q 116 310 117 290 q 115 347 115 331 q 115 374 115 364 q 110 392 114 383 q 97 410 106 400 q 69 438 88 419 q 40 469 53 456 q 28 483 28 482 q 34 495 28 486 q 49 515 40 504 q 73 554 63 536 q 90 593 83 572 q 102 640 97 614 q 111 701 107 665 q 115 738 113 724 q 119 763 117 753 q 123 782 121 774 q 128 799 125 790 q 160 855 140 835 q 214 890 181 875 q 248 897 226 896 q 281 894 269 899 q 344 836 290 890 q 383 797 368 814 q 397 781 399 781 l 393 781 q 382 783 390 781 q 355 787 367 788 q 328 782 343 786 q 259 731 283 767 q 226 633 235 696 q 222 601 224 621 q 218 567 221 582 z "},"|":{"ha":182,"x_min":28,"x_max":154,"o":"m 147 392 q 150 324 149 364 q 152 240 151 283 q 153 154 153 197 q 153 77 154 111 q 152 22 153 43 q 150 1 151 1 q 133 17 142 8 q 117 33 126 24 q 96 54 107 43 l 42 108 l 42 260 q 42 322 42 290 q 41 380 42 353 q 40 428 40 407 q 39 460 39 449 q 36 514 38 479 q 33 576 35 549 q 33 635 33 593 q 31 719 32 676 q 28 828 29 769 q 28 888 28 864 q 29 913 28 913 q 47 897 31 913 q 86 858 63 881 l 140 804 l 139 778 q 139 733 139 771 q 140 650 139 694 q 143 535 142 599 q 145 453 144 494 q 147 392 146 411 z "},"}":{"ha":414,"x_min":28,"x_max":388,"o":"m 385 399 q 384 385 388 393 q 369 353 381 378 q 356 321 361 335 q 347 292 350 307 q 340 260 343 278 q 335 215 338 242 q 330 175 332 192 q 326 147 328 158 q 321 126 324 135 q 314 107 318 117 q 250 38 290 53 q 221 32 239 33 q 196 33 203 31 q 176 51 193 35 q 138 88 158 68 q 101 124 118 107 q 85 143 85 142 q 101 143 85 146 q 138 147 118 142 q 172 167 157 154 q 197 204 186 181 q 207 226 203 217 q 214 248 211 236 q 219 276 217 260 q 224 315 221 292 q 229 368 226 347 q 236 405 232 389 q 246 435 240 421 q 261 468 251 449 q 267 479 264 474 q 272 489 269 485 l 276 497 q 270 506 276 499 q 254 522 264 513 q 219 565 233 544 q 198 608 206 585 q 187 661 190 632 q 183 728 183 690 l 183 779 l 176 779 q 158 776 168 779 q 143 768 149 772 q 140 767 142 767 q 131 772 138 767 q 114 788 125 776 q 83 819 103 799 l 28 875 l 38 881 q 60 890 49 888 q 92 890 72 892 q 115 888 107 889 q 133 881 122 886 q 144 874 139 878 q 158 863 150 871 q 179 844 167 856 q 213 811 192 832 q 259 763 243 781 q 283 730 275 746 q 292 695 290 714 q 293 643 293 676 q 295 572 293 601 q 305 517 297 542 q 324 474 313 493 q 356 433 336 454 q 375 412 367 422 q 385 399 383 401 z "},"~":{"ha":538,"x_min":28,"x_max":510,"o":"m 457 490 q 488 460 478 471 q 503 443 499 449 q 509 435 508 438 q 508 431 510 432 q 490 416 504 425 q 463 403 475 407 q 425 397 449 397 q 409 397 417 397 q 393 398 401 397 q 373 401 385 399 q 343 407 361 403 q 313 413 325 411 q 292 416 301 415 q 275 417 283 417 q 256 418 267 418 q 200 413 226 418 q 158 397 174 407 q 147 390 149 392 q 149 385 146 388 q 150 380 151 382 q 144 378 149 378 q 124 394 142 378 q 83 433 107 410 l 28 489 l 36 497 q 88 522 49 511 q 110 526 99 525 q 150 528 122 528 q 176 528 167 528 q 196 526 186 528 q 216 524 206 525 q 243 518 226 522 q 270 512 260 514 q 288 509 281 510 q 303 508 296 508 q 319 508 310 508 q 347 511 339 510 q 365 518 354 513 q 381 526 372 521 q 393 535 389 532 l 403 544 l 457 490 l 457 490 z "},"":{"ha":188,"x_min":28,"x_max":160,"o":"m 138 486 q 121 500 138 485 q 82 538 104 515 l 28 592 l 29 617 q 30 634 29 626 q 32 643 31 642 q 89 593 35 644 l 142 539 l 140 514 q 140 495 140 503 q 138 486 139 488 m 156 261 q 156 208 156 250 q 156 109 156 167 q 158 -14 157 51 q 159 -137 158 -79 q 160 -240 160 -196 q 160 -300 160 -285 q 157 -326 160 -324 q 140 -313 156 -328 q 100 -275 124 -299 q 69 -244 81 -256 q 53 -227 58 -233 q 47 -218 47 -221 q 47 -212 46 -215 q 49 -185 49 -210 q 47 -119 49 -160 q 47 -74 47 -103 q 46 -12 46 -46 q 46 56 46 21 q 46 125 46 92 q 46 192 46 158 q 46 258 46 226 q 45 314 46 289 q 44 353 44 339 q 43 379 43 367 q 43 401 43 392 l 43 421 q 60 406 51 414 l 99 367 l 154 311 l 156 261 z "},"":{"ha":607,"x_min":28,"x_max":581,"o":"m 528 310 q 562 276 550 288 q 577 258 574 264 q 578 249 581 251 q 567 246 575 247 q 533 240 557 243 q 478 233 508 236 q 419 228 449 231 q 372 226 390 226 l 344 226 l 344 206 q 345 165 344 197 q 349 94 346 132 q 351 33 350 54 q 351 4 351 13 q 351 -5 351 -4 q 350 -6 351 -6 l 333 11 q 316 28 326 18 q 294 49 306 38 l 242 103 l 239 176 q 236 229 238 207 q 235 253 235 251 q 229 257 233 254 q 218 264 225 260 q 191 285 210 268 q 140 333 172 301 q 99 375 115 358 q 72 404 82 392 q 56 426 61 417 q 44 446 50 435 q 31 483 35 467 q 28 525 28 500 q 76 665 28 603 q 201 749 124 726 l 221 754 q 222 782 222 756 q 219 846 221 808 q 218 909 218 882 q 218 938 218 936 q 235 922 219 938 q 274 883 251 907 l 329 829 l 329 800 q 332 763 329 771 q 346 756 335 756 q 365 755 350 756 q 397 753 381 754 q 436 749 424 750 q 458 742 449 747 q 479 726 468 738 q 514 692 490 714 q 553 653 538 669 q 568 636 568 638 q 557 635 568 632 q 505 641 533 639 q 449 644 476 643 q 397 647 421 646 q 357 646 372 647 l 333 644 l 335 540 q 335 465 335 500 q 338 403 336 429 q 340 362 339 378 q 340 344 340 346 q 358 343 342 342 q 414 349 375 344 q 468 361 460 356 q 472 362 469 363 q 481 356 475 361 q 498 340 488 350 q 528 310 508 329 m 233 338 l 232 358 q 230 405 231 368 q 228 486 229 442 q 226 527 226 508 q 225 561 226 546 q 224 593 224 578 q 218 588 224 593 q 206 576 213 583 q 192 560 199 568 q 181 547 185 553 q 149 485 158 515 q 139 419 139 454 q 156 354 139 363 q 169 349 160 351 q 188 344 178 347 q 208 340 199 342 q 221 339 217 339 l 233 338 z "},"":{"ha":631,"x_min":26,"x_max":603,"o":"m 549 65 q 587 27 571 43 q 603 10 603 11 q 585 8 603 8 q 543 7 567 7 q 479 6 518 7 q 410 4 440 6 q 353 1 378 1 q 324 0 329 0 q 311 1 319 0 q 296 1 303 1 q 276 3 283 1 q 260 9 268 4 q 239 26 251 14 q 203 61 226 38 q 165 99 178 86 q 149 120 153 111 q 147 139 144 129 q 154 168 150 149 q 161 196 158 181 q 167 221 164 211 q 173 283 171 244 q 172 346 175 322 l 171 371 l 160 368 q 142 365 150 368 q 126 373 138 364 q 81 418 115 382 q 42 458 57 442 q 28 475 26 474 q 54 481 31 478 q 104 486 78 485 q 133 487 119 486 q 154 489 147 488 l 167 490 l 167 563 q 168 626 167 606 q 172 661 169 646 q 292 844 197 800 q 365 860 328 863 q 444 839 401 858 q 457 833 451 836 q 470 823 463 829 q 490 805 478 817 q 521 775 501 793 q 574 720 561 735 q 585 703 588 706 q 581 706 583 704 q 569 714 575 708 q 496 746 544 738 q 465 750 476 750 q 436 746 454 750 q 353 701 389 736 q 297 610 317 665 q 279 514 283 568 l 276 490 l 385 488 l 439 433 q 477 394 461 410 q 492 378 493 379 q 460 377 490 378 q 386 378 429 376 l 281 378 l 281 253 q 281 163 281 201 q 279 121 281 124 l 278 114 l 303 115 q 346 117 314 117 q 413 118 378 118 l 494 119 l 549 65 l 549 65 z "},"":{"ha":539,"x_min":26,"x_max":510,"o":"m 478 742 q 447 664 464 704 q 410 586 429 624 q 374 517 392 549 q 344 468 357 486 q 335 447 332 451 q 336 431 336 446 q 336 396 336 415 l 336 349 l 356 349 q 378 353 375 349 q 392 344 381 354 q 435 303 403 335 q 472 264 457 281 q 488 244 488 247 q 482 239 488 240 l 407 239 l 338 239 l 339 132 q 339 53 339 83 q 338 24 339 24 q 319 38 336 22 q 281 76 303 53 l 226 131 l 228 146 q 229 168 229 153 q 228 199 229 183 l 226 236 l 188 233 l 133 288 q 94 328 108 313 q 83 344 81 343 q 106 347 85 346 q 154 349 126 347 l 224 350 l 224 475 l 194 504 q 174 526 182 518 q 161 547 167 535 q 149 576 156 558 q 133 628 143 594 q 113 688 125 654 q 94 743 101 721 q 41 901 56 856 q 28 949 26 946 q 40 943 29 953 q 83 900 50 933 q 139 840 139 847 q 147 815 139 838 q 165 760 154 792 q 189 691 176 729 q 210 629 201 653 q 223 589 217 606 q 231 572 229 572 q 235 578 232 575 q 240 583 238 581 q 244 590 242 586 q 274 642 257 610 q 309 713 292 675 q 342 788 326 750 q 369 857 358 826 q 389 907 379 886 q 401 929 399 928 q 419 914 403 929 q 457 876 435 899 l 510 824 l 501 806 q 492 779 499 797 q 478 742 485 761 z "},"":{"ha":179,"x_min":28,"x_max":150,"o":"m 139 322 q 146 161 143 232 q 148 102 147 131 q 149 51 149 74 q 150 15 150 29 q 149 1 150 1 q 132 17 140 8 q 115 33 125 24 q 94 54 106 43 l 40 108 q 33 269 36 199 q 31 328 32 300 q 29 380 31 357 q 28 417 28 403 q 28 431 28 431 q 45 415 29 431 q 85 376 61 399 l 139 322 m 40 593 q 33 754 36 683 q 31 813 32 785 q 29 865 31 842 q 28 901 28 888 q 28 915 28 915 q 45 899 29 915 q 85 861 61 883 l 139 807 q 146 646 143 717 q 148 587 147 615 q 149 536 149 558 q 150 500 150 514 q 149 486 150 486 l 94 540 l 40 593 z "},"":{"ha":544,"x_min":24,"x_max":521,"o":"m 508 460 q 514 400 521 435 q 457 315 504 349 q 405 291 432 299 q 338 281 378 283 l 310 279 l 338 251 q 370 210 361 226 q 382 171 379 194 q 375 99 388 135 q 335 36 363 64 q 265 -3 306 7 q 220 -9 249 -7 q 175 -8 192 -11 q 154 -6 161 -7 q 140 -1 147 -6 q 119 16 132 4 q 85 51 107 28 q 35 102 47 89 q 29 115 24 115 q 36 110 31 115 q 53 105 40 107 q 82 102 65 103 q 116 103 99 101 q 147 107 133 104 q 225 146 196 117 q 260 199 246 167 q 272 253 275 231 q 268 262 271 260 q 249 268 265 264 q 221 277 232 272 q 198 290 210 282 q 169 315 186 299 q 125 358 153 331 q 82 401 97 385 q 58 429 67 418 q 44 451 49 440 q 36 476 40 461 q 32 523 32 494 q 38 571 32 551 q 58 624 44 599 q 89 668 72 650 l 100 681 l 96 697 q 92 734 92 713 q 96 769 92 756 q 110 802 100 785 q 126 828 119 819 q 197 867 154 858 q 276 860 240 876 q 299 844 286 856 q 340 806 313 833 q 393 751 378 768 q 408 728 408 733 q 394 738 408 724 q 369 753 379 750 q 303 755 338 763 q 246 728 269 747 q 217 688 229 713 q 203 639 206 664 q 206 618 201 624 q 218 613 208 614 q 272 610 228 611 q 340 605 321 608 q 378 590 358 601 q 403 568 383 588 q 447 526 424 549 q 488 483 469 503 q 508 460 506 464 m 374 449 q 395 480 388 464 q 397 499 403 496 q 382 500 396 500 q 350 500 368 500 q 306 501 324 500 q 274 508 288 503 q 248 521 260 513 q 222 543 236 529 l 201 563 l 193 551 q 156 489 169 528 q 142 414 142 450 q 143 398 142 401 q 147 393 144 394 q 165 392 151 392 q 197 392 179 392 q 233 392 215 392 q 258 394 250 393 q 374 449 329 403 z "},"":{"ha":381,"x_min":28,"x_max":361,"o":"m 81 1168 q 105 1145 86 1164 q 144 1105 124 1126 q 183 1065 165 1083 q 201 1043 200 1047 q 185 1000 217 1017 q 144 1001 165 989 q 124 1020 140 1004 q 88 1055 107 1036 q 53 1090 69 1074 q 33 1113 38 1107 q 28 1133 28 1119 q 33 1156 28 1147 q 40 1165 38 1165 q 47 1167 46 1165 q 72 1147 51 1168 q 96 1132 94 1126 q 78 1156 97 1136 q 64 1171 67 1167 q 64 1175 61 1175 q 81 1168 71 1175 m 349 1043 q 331 1000 361 1015 q 292 1001 313 989 q 271 1020 288 1004 q 235 1055 254 1036 q 201 1090 217 1074 q 181 1113 185 1107 q 174 1133 174 1119 q 179 1156 174 1147 q 188 1165 183 1165 q 194 1167 192 1165 q 219 1147 197 1168 q 236 1133 232 1136 q 242 1132 240 1129 q 225 1156 243 1135 q 211 1171 214 1167 q 211 1175 208 1175 q 226 1168 217 1175 q 251 1145 232 1164 q 292 1105 271 1126 q 329 1065 313 1083 q 349 1043 346 1047 z "},"":{"ha":790,"x_min":24,"x_max":761,"o":"m 494 336 q 533 298 517 314 q 549 281 549 282 q 508 268 549 274 q 457 263 485 263 q 410 267 429 263 q 381 274 393 269 q 355 287 368 278 q 325 310 342 296 q 283 350 308 325 q 247 388 261 372 q 223 414 232 403 q 208 434 214 425 q 200 453 203 443 q 192 513 189 482 q 210 572 196 544 q 249 619 225 599 q 301 646 272 639 q 392 628 344 654 q 419 603 397 624 q 465 560 442 583 q 506 519 488 538 q 522 499 524 500 q 516 501 521 497 q 504 510 511 504 q 439 536 474 533 q 372 521 404 539 q 323 467 343 504 q 303 394 303 431 l 303 378 l 315 376 q 337 373 328 374 q 353 372 346 372 q 369 373 361 372 q 389 376 376 374 q 417 381 404 379 q 432 386 429 383 l 442 390 l 494 336 m 726 618 q 743 583 736 599 q 754 549 750 567 q 760 509 758 531 q 761 458 761 488 q 749 310 761 376 q 714 206 736 244 q 687 167 699 182 q 660 140 675 153 q 476 93 592 82 q 446 97 465 93 q 410 103 426 100 q 303 136 346 115 q 215 196 260 157 q 181 228 201 208 q 142 269 161 249 q 106 307 122 289 q 83 333 89 325 q 38 428 53 374 q 29 536 24 482 q 70 682 38 619 q 161 793 103 744 q 363 861 242 857 q 442 858 406 863 q 517 842 478 853 l 540 835 l 589 786 l 644 731 l 651 722 l 642 724 q 641 719 636 725 q 674 685 646 713 q 708 647 699 658 q 726 618 717 635 m 638 417 q 644 453 642 436 q 647 486 646 469 q 649 522 649 503 q 650 565 650 542 q 649 610 650 592 q 646 644 649 629 q 638 674 643 660 q 625 704 633 688 q 610 730 614 726 q 599 736 607 733 q 556 745 578 743 q 499 749 533 747 q 454 749 469 750 q 424 746 439 749 q 368 732 400 742 q 318 713 336 722 q 246 660 281 693 q 189 590 211 626 q 165 539 175 567 q 148 482 154 511 q 140 424 142 453 q 140 369 138 394 q 150 320 143 344 q 165 276 157 296 q 174 262 171 265 q 189 253 178 258 q 376 203 258 215 q 421 203 393 200 q 465 210 449 206 q 557 257 521 222 q 607 323 589 288 q 638 417 625 358 z "},"":{"ha":344,"x_min":25,"x_max":317,"o":"m 317 513 l 313 508 q 291 493 306 501 q 265 482 276 485 q 237 477 254 479 q 208 476 219 475 q 183 483 197 479 q 158 492 168 488 q 138 505 149 496 q 97 546 128 514 q 67 576 78 564 q 51 595 57 588 q 42 610 44 603 q 36 625 39 617 q 33 653 33 635 q 32 692 32 671 q 34 731 32 713 q 39 761 36 750 q 44 772 42 771 q 67 767 47 772 q 97 761 78 763 q 135 761 115 760 q 175 765 156 763 q 208 772 194 768 l 225 778 l 225 800 q 226 819 226 810 q 225 832 225 828 l 224 840 l 200 839 q 158 840 179 838 q 126 847 138 842 q 110 856 119 849 q 74 892 100 864 q 43 922 56 910 q 29 938 31 935 q 38 938 25 946 q 62 926 47 929 q 108 924 76 924 q 142 924 133 924 q 163 928 151 925 q 194 941 183 935 q 218 963 206 947 l 224 969 l 304 886 l 308 771 q 311 668 310 722 q 314 583 313 614 l 317 513 m 232 594 l 229 675 l 196 676 q 163 678 172 678 q 143 683 154 679 q 136 685 139 685 q 131 686 133 685 q 125 688 128 686 q 121 672 124 688 q 117 651 118 664 q 117 610 117 638 l 117 563 l 125 561 q 150 560 136 560 q 175 563 164 560 q 201 572 188 565 q 224 586 215 579 l 232 594 z "},"":{"ha":928,"x_min":28,"x_max":900,"o":"m 847 167 q 885 127 871 143 q 900 110 900 111 q 883 108 897 104 q 825 131 868 113 q 769 152 800 140 q 717 171 738 164 q 573 222 624 204 q 517 243 522 240 q 497 263 514 246 q 456 303 479 279 q 426 333 436 321 q 409 351 415 344 q 401 360 403 357 q 400 367 400 364 q 408 389 400 376 q 449 439 417 401 q 588 615 536 542 q 650 724 640 689 q 656 735 653 735 q 672 719 664 728 q 689 703 679 713 q 710 682 699 693 l 763 629 l 761 619 q 702 510 756 588 q 564 336 649 433 q 547 317 554 325 q 542 308 540 308 q 550 304 542 307 q 652 268 614 282 q 725 240 690 254 q 786 219 778 217 q 801 210 792 219 q 847 167 811 201 m 414 219 q 429 210 419 219 q 475 167 439 201 q 513 127 499 143 q 528 110 528 111 q 510 108 525 104 q 453 131 496 113 q 397 152 429 140 q 344 171 365 164 q 201 222 251 204 q 146 243 150 240 q 125 263 143 246 q 83 303 107 279 q 53 333 64 321 q 37 351 43 344 q 29 360 31 357 q 28 367 28 364 q 36 389 28 376 q 76 439 44 401 q 216 615 164 542 q 278 724 268 689 q 283 735 281 735 q 300 719 292 728 q 317 703 307 713 q 338 682 326 693 l 390 629 l 389 619 q 330 510 383 588 q 192 336 276 433 q 175 317 182 325 q 169 308 168 308 q 178 304 169 307 q 280 268 242 282 q 353 240 318 254 q 414 219 407 217 z "},"":{"ha":511,"x_min":28,"x_max":483,"o":"m 81 540 q 43 578 58 563 q 28 596 28 594 q 54 597 28 597 q 85 596 64 596 q 129 597 107 596 q 168 599 151 599 q 186 601 185 600 q 188 620 188 603 q 185 661 188 638 q 182 709 183 685 q 181 744 181 733 l 179 769 l 235 714 l 292 658 l 292 638 q 295 609 292 613 q 324 606 299 606 q 364 608 350 606 l 376 610 l 429 557 q 467 518 451 535 q 483 500 483 501 q 460 496 483 497 q 381 493 436 494 q 342 491 361 492 q 315 490 322 490 l 299 489 l 300 461 q 303 421 301 450 q 307 363 304 392 q 311 292 311 310 q 306 275 311 275 q 288 291 304 275 q 249 331 272 307 q 206 374 218 361 q 197 388 194 386 q 201 395 200 389 q 200 421 201 401 q 198 448 199 435 q 196 468 197 461 l 194 483 l 179 483 q 165 484 174 483 q 150 486 157 485 l 133 488 l 81 540 m 429 200 q 468 161 453 178 q 483 143 483 144 q 460 139 483 140 q 381 136 436 138 q 342 134 361 135 q 315 133 322 133 l 181 126 q 165 127 174 126 q 150 129 157 128 l 133 131 l 81 183 q 43 222 58 206 q 28 239 28 238 q 54 240 28 240 q 81 240 61 239 q 128 241 101 240 q 187 243 156 242 q 245 246 218 244 q 294 248 272 247 q 324 249 315 249 q 364 251 350 249 l 376 253 l 429 200 z "},"":{"ha":446,"x_min":28,"x_max":418,"o":"m 383 388 q 408 362 399 372 q 418 350 418 351 q 403 343 415 344 q 347 339 390 342 q 242 334 276 336 q 190 329 208 332 q 169 326 179 326 q 156 325 160 325 l 146 325 l 111 360 q 85 385 96 375 q 74 399 75 396 q 74 404 71 401 q 81 413 74 406 q 97 428 88 419 q 149 483 125 453 q 206 561 174 514 q 268 693 253 632 q 272 712 271 704 q 272 738 272 719 q 270 773 272 760 q 263 804 268 786 l 260 813 l 254 810 q 235 793 251 808 q 200 758 219 778 q 169 726 182 740 q 145 701 156 713 q 126 678 135 689 q 110 654 118 667 l 103 644 l 131 617 q 150 597 143 604 q 156 589 157 589 q 150 590 151 589 q 126 610 146 592 q 84 649 106 628 q 45 688 63 671 q 28 708 28 706 q 42 734 28 714 q 75 778 56 754 q 97 801 81 785 q 130 834 113 817 q 162 865 147 851 q 181 882 176 879 q 225 889 207 900 q 240 876 228 888 q 268 849 253 864 q 292 824 283 833 q 307 806 301 814 q 317 790 313 799 q 325 768 321 781 q 345 696 340 728 q 343 631 350 664 q 331 592 340 618 q 315 550 322 565 q 281 492 303 525 q 236 428 260 458 q 232 421 233 424 q 228 415 231 418 l 224 411 l 232 411 q 240 411 236 411 q 251 413 244 411 q 279 413 263 413 q 307 415 296 414 q 331 417 325 417 q 340 421 338 418 l 347 425 l 383 388 l 383 388 z "},"":{"ha":429,"x_min":28,"x_max":403,"o":"m 354 538 q 378 513 369 522 q 392 497 388 503 q 398 485 396 490 q 400 472 400 479 q 386 421 403 450 q 346 374 369 392 q 273 336 314 349 q 196 329 232 324 q 165 335 178 331 q 139 347 151 339 q 112 368 126 354 q 76 403 97 382 q 43 438 53 426 q 33 456 33 450 q 54 439 33 460 q 81 415 72 421 q 110 406 90 410 q 149 403 125 403 q 185 406 172 403 q 307 483 267 424 q 318 504 313 492 q 322 518 324 517 q 315 518 322 518 q 297 517 307 518 q 275 514 286 515 q 256 511 264 513 q 238 508 244 508 q 226 510 232 507 q 213 521 221 513 q 189 544 204 529 q 174 558 181 551 q 163 571 168 565 q 153 582 157 576 q 164 594 153 586 q 216 647 190 618 q 256 696 242 676 q 272 726 263 707 q 285 760 281 744 q 288 776 288 769 q 290 797 289 783 q 290 806 290 801 q 289 813 289 810 l 289 819 q 281 818 288 821 q 265 810 275 815 q 246 798 256 804 q 228 786 236 792 q 172 733 196 761 q 129 668 149 706 q 112 626 119 649 q 103 593 104 604 q 101 583 103 583 q 90 593 100 583 q 64 618 79 603 l 28 654 l 29 664 q 38 698 31 675 q 56 739 46 721 q 147 853 92 811 q 172 870 157 861 q 201 887 186 879 q 227 899 215 894 q 244 904 239 904 q 260 897 251 904 q 301 858 269 889 q 333 825 325 833 q 346 807 340 817 q 357 777 353 794 q 364 744 361 760 q 353 670 367 708 q 308 596 339 632 q 300 585 300 588 q 303 583 301 585 q 308 579 306 581 q 325 565 311 578 q 354 538 339 553 z "},"":{"ha":229,"x_min":28,"x_max":200,"o":"m 200 1089 l 181 1050 q 165 1015 174 1035 q 150 982 156 994 q 142 962 146 971 q 138 951 138 953 q 120 965 136 950 q 82 1003 104 981 q 43 1041 58 1025 q 28 1058 28 1057 q 37 1085 28 1063 q 58 1132 46 1107 q 79 1177 69 1157 q 90 1197 89 1197 q 108 1181 92 1197 q 147 1143 124 1165 l 200 1089 z "},"":{"ha":256,"x_min":26,"x_max":228,"o":"m 222 368 q 227 343 228 357 q 222 316 226 329 q 210 292 218 303 q 192 275 201 281 q 173 272 181 271 q 156 279 165 272 q 133 299 151 282 q 93 339 115 317 q 58 375 71 361 q 40 399 46 389 q 31 417 33 408 q 28 438 29 425 q 31 475 26 454 q 40 503 35 496 q 51 513 47 513 q 64 504 56 513 q 81 494 72 494 q 93 493 88 494 q 107 485 99 492 q 128 467 115 479 q 161 435 140 456 q 202 392 185 411 q 222 368 219 372 z "},"":{"ha":299,"x_min":28,"x_max":274,"o":"m 269 -146 q 246 -232 274 -189 q 168 -269 215 -275 q 144 -263 157 -267 q 125 -254 132 -260 q 105 -237 119 -250 q 76 -208 90 -224 q 49 -179 61 -193 q 35 -161 36 -165 q 28 -131 28 -147 l 119 -131 l 118 -132 q 107 -158 111 -144 q 101 -183 103 -172 l 100 -196 l 110 -196 q 128 -193 117 -196 q 144 -187 138 -190 q 160 -174 150 -183 q 188 -128 176 -157 q 196 -81 199 -99 q 189 -75 194 -74 q 174 -64 188 -75 q 145 -40 160 -53 q 120 -15 131 -26 q 117 -1 110 -3 q 128 0 124 0 q 141 -6 133 0 q 163 -26 149 -12 q 204 -67 178 -40 l 267 -129 l 269 -146 l 269 -146 z "},"":{"ha":153,"x_min":28,"x_max":125,"o":"m 113 538 q 116 465 114 503 q 119 394 118 426 q 122 340 121 363 q 124 317 124 318 q 122 313 125 313 q 110 323 121 313 q 85 349 100 333 l 49 385 l 47 428 q 44 479 46 446 q 42 543 43 513 q 35 674 38 610 q 31 788 32 738 q 28 870 29 839 q 28 901 28 901 q 65 868 29 903 l 101 832 l 101 811 q 103 752 101 794 q 108 639 106 710 q 110 585 110 615 q 113 538 111 556 z "},"":{"ha":435,"x_min":28,"x_max":415,"o":"m 403 604 q 388 450 415 528 q 369 409 379 425 q 339 374 358 393 q 221 325 278 314 q 190 334 203 328 q 163 351 176 340 q 144 368 158 354 q 113 399 129 382 q 74 439 89 422 q 51 472 60 456 q 39 508 43 489 q 31 557 35 528 q 28 595 29 569 q 28 648 28 621 q 28 699 28 675 q 31 733 29 722 q 57 817 39 785 q 107 872 75 850 q 138 888 124 883 q 172 894 153 892 q 206 893 185 896 q 233 888 226 890 q 247 876 236 886 q 274 850 258 865 q 304 818 296 828 q 321 796 313 808 q 331 778 326 788 q 339 765 336 769 q 346 753 342 761 q 354 739 350 746 q 385 676 374 708 q 403 604 397 644 m 311 514 q 333 643 335 576 q 303 769 331 710 q 275 813 292 793 l 268 821 l 254 821 q 210 813 229 819 q 171 792 192 807 q 126 735 143 769 q 103 647 110 701 q 101 621 101 639 q 100 582 100 603 q 101 540 100 561 q 103 507 101 519 q 114 437 107 465 q 128 406 121 408 q 157 399 138 400 q 189 400 176 397 q 269 450 232 413 q 294 480 285 465 q 311 514 304 494 z "},"":{"ha":928,"x_min":26,"x_max":900,"o":"m 410 599 q 431 579 413 596 q 472 539 449 563 q 501 508 490 519 q 518 491 513 497 q 526 481 524 485 q 528 475 528 478 q 526 465 528 469 q 519 453 525 460 q 505 434 514 446 q 479 403 496 422 q 339 226 392 300 q 276 118 286 153 q 272 107 274 107 q 255 122 271 107 q 217 160 239 138 l 164 213 l 165 224 q 183 267 168 239 q 225 331 199 294 q 286 413 251 368 q 363 506 321 457 q 379 525 371 514 q 386 533 383 531 q 376 538 385 535 q 275 574 314 560 q 203 601 236 589 q 140 622 149 624 q 126 631 136 622 q 79 675 115 639 q 41 715 56 699 q 28 732 26 731 q 45 733 31 738 q 103 711 60 729 q 158 690 126 701 q 211 671 190 678 q 354 619 304 638 q 410 599 404 601 m 844 539 q 890 491 881 501 q 899 475 900 481 q 897 465 899 469 q 891 453 896 460 q 876 434 886 446 q 850 403 867 422 q 710 226 763 300 q 649 118 658 153 q 647 113 647 115 q 646 110 647 111 l 644 107 q 627 122 643 107 q 589 160 611 138 l 536 213 l 538 224 q 597 331 543 254 q 735 506 650 408 q 752 525 746 517 q 758 535 758 533 q 749 538 757 535 q 647 574 686 560 q 575 603 608 589 q 513 622 519 624 q 497 631 508 622 q 451 675 486 639 q 413 715 428 699 q 400 732 399 731 q 417 733 403 738 q 475 711 432 729 q 531 690 499 701 q 582 671 563 678 q 726 619 676 638 q 782 599 776 601 q 803 579 785 596 q 844 539 821 563 z "},"":{"ha":885,"x_min":28,"x_max":856,"o":"m 603 690 q 585 657 596 676 q 561 615 574 638 q 535 569 549 592 q 511 525 522 546 q 488 483 500 504 q 463 440 475 461 q 442 402 451 419 q 426 374 432 385 q 403 333 414 351 q 381 294 393 314 q 356 251 369 274 q 324 200 342 229 q 270 114 292 149 q 236 58 249 79 q 218 28 224 38 q 213 18 213 19 q 210 10 213 14 q 204 8 207 7 q 191 28 203 8 q 164 75 179 47 l 126 142 l 147 176 q 176 222 156 190 q 215 285 196 253 q 261 359 242 328 q 295 415 281 390 q 324 465 310 440 q 354 519 338 489 q 374 554 363 535 q 397 593 385 574 q 419 631 408 613 q 438 665 429 650 q 456 700 446 681 q 478 740 467 719 q 500 779 489 760 q 519 815 511 799 q 569 906 554 881 q 588 933 583 931 q 598 924 590 936 q 629 871 606 913 l 667 804 l 651 779 q 631 744 646 769 q 603 690 617 718 m 847 92 q 850 32 849 54 q 853 -3 851 10 q 855 -20 854 -15 q 856 -26 856 -25 l 856 -29 q 843 -19 854 -29 q 817 7 832 -8 l 781 44 l 778 85 q 775 123 776 101 q 772 160 774 144 l 771 194 l 765 194 q 752 194 763 194 q 729 192 742 193 q 672 188 700 189 q 619 187 643 188 q 578 187 596 186 q 556 190 561 188 q 543 200 553 192 q 513 229 533 208 q 483 259 489 253 q 478 268 476 265 q 497 290 481 274 q 535 333 521 314 q 565 381 549 351 q 588 425 576 400 q 607 467 600 450 q 620 509 614 485 q 628 544 626 533 q 632 557 629 557 q 644 547 633 557 q 669 521 654 536 q 701 489 696 494 q 704 479 706 483 q 702 471 703 476 q 699 458 701 465 q 686 412 696 442 q 665 360 676 382 q 644 316 657 340 q 619 276 631 292 l 611 264 l 622 264 q 638 265 626 264 q 663 267 650 265 q 688 269 674 268 q 708 271 701 269 q 732 274 726 271 q 739 274 736 275 q 751 261 742 272 q 767 249 767 249 l 767 258 q 766 269 767 263 q 765 283 765 276 q 765 338 765 297 q 765 421 765 378 q 766 499 765 464 q 767 538 767 533 q 771 546 767 546 q 810 511 774 546 q 840 479 835 485 q 843 471 846 474 q 839 434 840 467 q 839 322 838 401 q 839 257 839 283 q 840 207 839 231 q 842 157 840 183 q 847 92 844 131 m 108 639 q 110 585 110 615 q 113 538 111 556 q 116 465 114 503 q 119 394 118 426 q 122 340 121 363 q 124 317 124 318 q 122 313 125 313 q 110 323 121 313 q 85 349 100 333 l 49 385 l 47 428 q 44 479 46 446 q 42 543 43 513 q 35 674 38 610 q 31 788 32 738 q 28 870 29 839 q 28 901 28 901 q 65 868 29 903 l 101 832 l 101 811 q 103 752 101 794 q 108 639 106 710 z "},"":{"ha":951,"x_min":28,"x_max":924,"o":"m 888 47 q 913 20 903 31 q 922 8 924 10 q 908 1 919 3 q 853 -3 896 0 q 747 -8 782 -6 q 696 -12 713 -10 q 675 -16 685 -15 q 661 -17 665 -17 l 651 -17 l 615 18 q 590 44 600 33 q 579 57 579 56 q 578 63 578 58 q 585 71 579 64 q 601 86 592 78 q 654 142 629 111 q 710 219 679 172 q 749 288 735 256 q 772 351 764 319 q 776 370 775 363 q 776 396 776 378 q 775 431 776 418 q 768 463 774 444 l 765 472 l 760 468 q 741 451 757 467 q 706 417 725 436 q 674 385 688 399 q 651 359 661 371 q 632 336 640 347 q 615 313 624 325 l 608 303 l 636 275 q 660 247 663 249 q 654 249 657 247 q 631 268 650 250 q 590 308 611 286 q 551 347 568 329 q 533 367 533 364 q 547 392 533 372 q 579 436 560 413 q 601 459 585 443 q 635 493 617 475 q 667 525 653 511 q 686 542 682 539 q 729 547 711 558 q 744 534 732 546 q 772 507 757 522 q 797 482 788 492 q 812 465 806 472 q 822 448 818 457 q 831 426 825 439 q 850 354 846 386 q 849 290 854 322 q 837 250 846 276 q 821 208 828 224 q 787 150 808 183 q 742 86 765 117 q 738 81 739 83 q 733 75 736 78 q 729 69 731 72 l 738 69 q 746 69 742 69 q 757 71 750 69 q 784 72 768 71 q 813 74 800 72 q 835 76 829 75 q 846 79 842 76 l 851 83 l 888 47 m 651 779 q 631 744 646 769 q 603 690 617 718 q 585 657 596 676 q 561 615 574 638 q 535 569 549 592 q 511 525 522 546 q 488 483 500 504 q 463 440 475 461 q 442 402 451 419 q 426 374 432 385 q 403 333 414 351 q 381 294 393 314 q 356 251 369 274 q 324 200 342 229 q 270 114 292 149 q 236 58 249 79 q 218 28 224 38 q 213 18 213 19 q 210 10 213 14 q 204 8 207 7 q 191 28 203 8 q 164 75 179 47 l 126 142 l 147 176 q 176 222 156 190 q 215 285 196 253 q 261 359 242 328 q 295 415 281 390 q 324 465 310 440 q 354 519 338 489 q 374 554 363 535 q 397 593 385 574 q 419 631 408 613 q 438 665 429 650 q 456 700 446 681 q 478 740 467 719 q 500 779 489 760 q 519 815 511 799 q 569 906 554 881 q 588 933 583 931 q 598 924 590 936 q 629 871 606 913 l 667 804 l 651 779 m 108 639 q 110 585 110 615 q 113 538 111 556 q 116 465 114 503 q 119 394 118 426 q 122 340 121 363 q 124 317 124 318 q 122 313 125 313 q 110 323 121 313 q 85 349 100 333 l 49 385 l 47 428 q 44 479 46 446 q 42 543 43 513 q 35 674 38 610 q 31 788 32 738 q 28 870 29 839 q 28 901 28 901 q 65 868 29 903 l 101 832 l 101 811 q 103 752 101 794 q 108 639 106 710 z "},"":{"ha":1061,"x_min":28,"x_max":1032,"o":"m 400 472 q 386 421 403 450 q 346 374 369 392 q 273 336 314 349 q 196 329 232 324 q 165 335 178 331 q 139 347 151 339 q 112 368 126 354 q 76 403 97 382 q 43 438 53 426 q 33 456 33 450 q 54 439 33 460 q 81 415 72 421 q 110 406 90 410 q 149 403 125 403 q 185 406 172 403 q 307 483 267 424 q 318 504 313 492 q 322 518 324 517 q 315 518 322 518 q 297 517 307 518 q 275 514 286 515 q 256 511 264 513 q 238 508 244 508 q 226 510 232 507 q 213 521 221 513 q 189 544 204 529 q 174 558 181 551 q 163 571 168 565 q 153 582 157 576 q 164 594 153 586 q 216 647 190 618 q 256 696 242 676 q 272 726 263 707 q 285 760 281 744 q 288 776 288 769 q 290 797 289 783 q 290 806 290 801 q 289 813 289 810 l 289 819 q 281 818 288 821 q 265 810 275 815 q 246 798 256 804 q 228 786 236 792 q 172 733 196 761 q 129 668 149 706 q 112 626 119 649 q 103 593 104 604 q 101 583 103 583 q 90 593 100 583 q 64 618 79 603 l 28 654 l 29 664 q 38 698 31 675 q 56 739 46 721 q 147 853 92 811 q 172 870 157 861 q 201 887 186 879 q 227 899 215 894 q 244 904 239 904 q 260 897 251 904 q 301 858 269 889 q 333 825 325 833 q 346 807 340 817 q 357 777 353 794 q 364 744 361 760 q 353 670 367 708 q 308 596 339 632 q 300 585 300 588 q 303 583 301 585 q 308 579 306 581 q 325 565 311 578 q 354 538 339 553 q 378 513 369 522 q 392 497 388 503 q 398 485 396 490 q 400 472 400 479 m 778 690 q 760 657 771 676 q 737 615 749 638 q 712 569 725 592 q 688 525 699 546 q 664 483 676 504 q 640 440 651 461 q 618 402 628 419 q 603 374 608 385 q 580 333 590 351 q 558 294 569 314 q 532 251 546 274 q 500 200 518 229 q 447 114 468 149 q 413 58 425 79 q 394 28 400 38 q 389 18 389 19 q 386 10 389 14 q 381 8 383 7 q 367 28 379 8 q 340 75 356 47 l 303 142 l 324 176 q 351 222 332 190 q 390 285 371 253 q 437 359 418 328 q 471 415 456 390 q 500 465 486 440 q 531 519 514 489 q 572 593 549 550 q 614 665 596 636 q 633 700 622 681 q 654 740 643 719 q 676 779 665 760 q 696 815 688 799 q 745 906 731 881 q 764 933 760 931 q 774 924 767 936 q 806 871 782 913 l 843 804 l 828 779 q 807 744 821 769 q 778 690 793 718 m 1022 92 q 1026 32 1025 54 q 1029 -3 1028 10 q 1031 -20 1031 -15 q 1032 -26 1032 -25 l 1032 -29 q 1019 -19 1031 -29 q 993 7 1008 -8 l 957 44 l 954 85 q 951 123 953 101 q 949 160 950 144 l 947 194 l 942 194 q 928 194 939 194 q 906 192 918 193 q 848 188 876 189 q 796 187 819 188 q 755 187 772 186 q 732 190 738 188 q 719 200 729 192 q 689 229 710 208 q 659 259 665 253 q 654 268 653 265 q 674 290 657 274 q 711 333 697 314 q 742 381 725 351 q 765 425 753 400 q 783 467 776 450 q 797 509 790 485 q 804 544 803 533 q 808 557 806 557 l 819 546 q 832 534 825 540 q 846 521 839 528 q 877 489 872 494 q 881 479 882 483 q 875 458 876 472 q 863 412 872 442 q 842 360 853 382 q 819 316 832 340 q 796 276 807 292 l 788 264 l 799 264 q 815 265 803 264 q 838 267 826 265 q 864 269 850 268 q 885 271 878 269 q 908 274 900 271 q 915 274 913 275 q 928 261 918 272 q 942 249 942 250 q 942 258 943 249 q 942 283 942 268 q 942 338 942 297 q 942 421 942 378 q 942 499 942 464 q 943 538 943 533 q 947 546 943 546 q 985 511 950 546 q 1005 491 997 499 q 1016 479 1013 483 q 1019 474 1019 475 q 1019 471 1019 472 q 1015 434 1017 467 q 1014 322 1014 401 q 1015 257 1014 283 q 1016 207 1015 231 q 1018 157 1017 183 q 1022 92 1019 131 z "},"":{"ha":600,"x_min":28,"x_max":572,"o":"m 557 64 q 570 -6 568 32 q 565 -71 572 -43 q 542 -126 558 -97 q 507 -174 526 -154 q 455 -215 489 -193 q 392 -246 421 -236 q 322 -256 363 -257 q 254 -244 282 -256 q 231 -235 242 -240 q 209 -220 221 -229 q 181 -196 197 -211 q 140 -156 165 -181 q 97 -112 114 -131 q 69 -80 81 -94 q 50 -53 57 -65 q 38 -25 43 -40 q 29 -1 31 -10 q 28 28 28 7 l 28 60 l 39 82 q 67 125 50 104 q 122 186 83 146 q 190 263 168 235 q 222 318 211 290 q 233 353 229 338 q 239 388 236 369 q 238 412 239 394 q 236 448 238 429 q 233 482 235 467 q 231 500 232 497 q 231 504 228 504 q 248 489 232 504 q 288 450 264 474 q 323 415 311 426 q 340 391 335 403 q 345 363 344 379 q 347 317 346 347 q 348 289 347 300 q 348 271 349 278 q 346 258 347 264 q 343 244 344 253 q 326 197 338 221 q 299 151 314 172 q 274 122 292 142 q 236 82 256 101 q 178 17 200 44 q 147 -33 157 -10 q 136 -76 136 -56 q 144 -121 136 -96 q 150 -133 147 -131 q 164 -139 153 -136 q 187 -143 172 -142 q 217 -144 201 -144 q 247 -143 232 -144 q 271 -139 263 -142 q 313 -122 288 -135 q 357 -99 339 -110 q 432 -16 403 -67 q 461 86 461 35 q 460 106 461 94 q 456 131 458 118 q 450 153 453 143 q 446 168 447 164 q 439 177 443 171 q 429 189 435 183 q 419 202 419 199 q 426 201 418 206 q 449 181 429 200 q 492 139 468 163 q 523 106 511 118 q 542 87 535 94 q 551 74 549 79 q 557 64 554 69 m 319 544 q 296 562 315 544 q 254 602 276 579 q 213 645 232 625 q 193 672 194 665 q 192 706 186 688 q 211 731 199 724 q 222 733 219 733 q 231 731 224 733 q 253 711 235 728 q 292 674 271 694 q 329 635 313 653 q 347 613 346 617 q 351 592 351 604 q 347 574 351 581 q 346 563 343 565 q 342 550 347 560 q 329 543 333 536 q 319 544 328 544 z "},"":{"ha":515,"x_min":28,"x_max":490,"o":"m 443 99 q 460 56 450 78 q 479 24 469 35 q 485 11 490 11 q 465 28 482 11 q 422 68 447 44 l 364 126 l 351 154 q 338 186 343 171 q 329 219 332 201 q 325 260 326 238 q 324 313 324 282 l 324 360 l 211 360 l 190 381 q 174 397 181 390 q 167 403 168 403 l 167 317 q 167 242 167 282 q 165 167 167 203 q 163 103 164 131 q 160 68 161 76 q 153 47 157 60 q 147 22 150 33 q 140 3 143 11 q 138 -6 138 -6 q 120 10 136 -6 q 82 49 104 26 l 28 101 l 36 129 q 45 162 42 147 q 51 194 49 176 q 53 236 53 211 q 54 301 54 261 q 54 388 54 332 q 53 508 54 443 q 51 640 53 572 q 49 763 50 707 q 47 853 49 818 q 46 890 46 889 q 76 882 39 900 q 116 865 101 871 q 154 856 131 860 q 197 851 171 853 q 247 847 222 849 q 292 844 272 844 q 317 846 313 844 q 325 846 321 849 q 344 828 329 843 q 367 806 351 821 q 401 775 383 792 q 434 742 418 758 q 458 717 450 725 q 465 708 464 711 q 463 689 465 704 q 457 632 460 674 q 451 538 454 590 q 444 432 447 486 q 439 338 440 378 q 436 266 436 308 q 436 193 436 224 q 437 154 436 169 q 438 128 438 139 q 440 111 439 118 q 443 99 442 104 m 339 639 q 343 706 342 678 q 344 735 344 733 q 335 736 340 736 q 326 736 331 736 q 314 738 321 736 q 235 750 265 743 q 176 772 206 757 q 156 782 160 781 q 156 779 153 783 q 158 774 157 778 q 158 753 158 769 q 159 704 158 736 q 160 614 160 672 q 162 520 161 560 q 164 478 163 481 q 167 472 164 474 q 189 471 171 471 q 222 470 200 471 q 263 468 243 469 q 306 465 297 465 q 318 460 314 464 l 325 453 l 326 458 q 328 474 328 461 q 331 504 329 488 q 334 560 332 521 q 339 639 336 600 m 251 944 q 260 926 258 929 q 260 922 263 922 q 242 938 258 922 q 203 978 225 954 q 167 1014 179 1001 q 146 1040 154 1026 q 129 1071 138 1053 q 106 1122 121 1089 q 85 1168 89 1158 q 85 1178 82 1178 q 102 1163 86 1178 q 139 1125 118 1147 l 192 1072 l 217 1018 q 236 974 226 996 q 251 944 246 953 z "},"":{"ha":515,"x_min":28,"x_max":490,"o":"m 443 99 q 460 56 450 78 q 479 24 469 35 q 485 11 490 11 q 465 28 482 11 q 422 68 447 44 l 364 126 l 351 154 q 338 186 343 171 q 329 219 332 201 q 325 260 326 238 q 324 313 324 282 l 324 360 l 211 360 l 190 381 q 174 397 181 390 q 167 403 168 403 l 167 317 q 167 242 167 282 q 165 167 167 203 q 163 103 164 131 q 160 68 161 76 q 153 47 157 60 q 147 23 150 35 q 140 3 143 11 q 138 -6 138 -6 q 120 10 136 -6 q 82 49 104 26 l 28 101 l 36 129 q 45 162 42 147 q 51 194 49 176 q 53 236 53 211 q 54 301 54 261 q 54 388 54 332 q 53 508 54 443 q 51 640 53 572 q 49 763 50 707 q 47 853 49 818 q 46 890 46 889 q 76 882 39 900 q 116 865 101 871 q 154 856 131 860 q 197 851 171 853 q 247 847 222 849 q 292 844 272 844 q 317 846 313 844 q 325 846 321 849 q 344 828 329 843 q 367 806 351 821 q 401 775 383 792 q 434 742 418 758 q 458 717 450 725 q 465 708 464 711 q 463 689 465 704 q 457 632 460 674 q 451 538 454 590 q 444 432 447 486 q 439 338 440 378 q 436 266 436 308 q 436 193 436 224 q 437 154 436 169 q 438 128 438 139 q 440 111 439 118 q 443 99 442 104 m 339 639 q 343 706 342 678 q 344 735 344 733 q 335 736 340 736 q 326 736 331 736 q 314 738 321 736 q 235 750 265 743 q 176 772 204 757 q 156 782 160 781 q 156 779 153 783 q 158 774 157 778 q 158 753 158 769 q 159 704 158 736 q 160 614 160 672 q 162 520 161 560 q 163 478 163 481 q 167 472 164 474 q 189 471 171 471 q 222 470 200 471 q 263 468 243 469 q 306 465 297 465 q 318 460 314 464 l 325 453 l 326 458 q 328 474 328 461 q 331 504 329 488 q 334 560 332 521 q 339 639 336 600 m 286 1069 l 267 1031 q 251 995 260 1015 q 236 963 242 975 q 228 942 232 951 q 224 932 224 933 q 206 946 222 931 q 167 983 190 961 q 129 1022 144 1006 q 114 1039 114 1038 q 123 1065 114 1043 q 144 1113 132 1088 q 165 1158 156 1138 q 176 1178 175 1178 q 194 1162 178 1178 q 232 1124 210 1146 l 286 1069 z "},"":{"ha":515,"x_min":28,"x_max":490,"o":"m 317 846 q 325 846 321 849 q 344 828 329 843 q 367 806 351 821 q 401 775 383 792 q 434 742 418 758 q 458 717 450 725 q 465 708 464 711 q 463 689 465 704 q 457 632 460 674 q 451 538 454 590 q 444 432 447 486 q 439 338 440 378 q 436 266 436 308 q 436 193 436 224 q 437 154 436 169 q 438 128 438 139 q 440 111 439 118 q 443 99 442 104 q 460 56 450 78 q 479 24 469 35 q 485 11 490 11 q 465 28 482 11 q 422 68 447 44 l 364 126 l 351 154 q 338 186 343 171 q 329 219 332 201 q 325 260 326 238 q 324 313 324 282 l 324 360 l 211 360 l 190 381 q 167 401 169 401 l 167 317 q 167 242 167 282 q 165 167 167 203 q 163 103 164 131 q 160 68 161 76 q 153 47 157 60 q 147 22 150 33 q 140 3 143 11 q 138 -6 138 -6 q 120 10 136 -6 q 82 49 104 26 l 28 101 l 36 129 q 45 162 42 147 q 51 194 49 176 q 53 236 53 211 q 54 301 54 261 q 54 388 54 332 q 53 508 54 443 q 51 640 53 572 q 49 763 50 707 q 47 853 49 818 q 46 890 46 889 q 50 894 43 896 q 76 882 57 892 q 116 865 101 871 q 154 856 131 860 q 197 851 171 853 q 247 847 222 849 q 292 844 272 844 q 317 846 313 844 m 339 639 q 343 706 342 678 q 344 735 344 733 q 335 736 340 736 q 326 736 331 736 q 314 738 321 736 q 235 750 265 743 q 176 772 206 757 q 156 782 160 781 q 156 779 153 783 q 158 774 157 778 q 158 753 158 769 q 159 704 158 736 q 160 614 160 672 q 162 520 161 560 q 164 478 163 481 q 167 472 164 474 q 189 471 171 471 q 222 470 200 471 q 263 468 243 469 q 306 465 297 465 q 318 460 314 464 l 325 453 l 326 458 q 328 475 328 461 q 331 504 329 489 q 334 560 332 521 q 339 639 336 600 m 361 992 q 386 964 372 979 q 410 939 400 949 q 421 917 443 906 q 397 940 418 919 q 347 988 375 960 q 298 1036 319 1015 q 274 1057 276 1057 q 249 1046 257 1061 q 238 1026 246 1040 q 222 995 231 1013 q 206 962 214 978 q 194 936 199 946 q 188 922 192 928 q 185 914 185 915 q 167 930 183 914 q 129 968 151 946 l 75 1022 l 83 1044 q 99 1080 89 1060 q 119 1118 110 1100 q 137 1149 129 1136 q 147 1165 144 1163 q 193 1156 164 1175 q 222 1131 200 1151 q 270 1085 244 1111 q 322 1034 296 1060 q 361 992 347 1008 z "},"":{"ha":515,"x_min":17,"x_max":497,"o":"m 317 846 q 325 846 321 849 q 344 828 329 843 q 367 806 351 821 q 401 775 383 792 q 434 742 418 758 q 458 717 450 725 q 465 708 464 711 q 463 689 465 704 q 457 632 460 674 q 451 538 454 590 q 444 432 447 486 q 439 338 440 378 q 436 266 436 308 q 436 193 436 224 q 437 154 436 169 q 438 128 438 139 q 440 111 439 118 q 443 99 442 104 q 460 56 450 78 q 479 24 469 35 q 485 11 490 11 q 465 28 482 11 q 422 68 447 44 l 364 126 l 351 154 q 338 186 343 171 q 329 219 332 201 q 325 260 326 238 q 324 313 324 282 l 324 360 l 211 360 l 190 381 q 167 401 169 401 l 167 317 q 167 242 167 282 q 165 167 167 203 q 163 103 164 131 q 160 68 161 76 q 153 47 157 60 q 147 22 150 33 q 140 3 143 11 q 138 -6 138 -6 q 120 10 136 -6 q 82 49 104 26 l 28 101 l 36 129 q 45 162 42 147 q 51 194 49 176 q 53 236 53 211 q 54 301 54 261 q 54 388 54 332 q 53 508 54 443 q 51 640 53 572 q 49 763 50 707 q 47 853 49 818 q 46 890 46 889 q 50 894 43 896 q 76 882 57 892 q 116 865 101 871 q 154 856 131 860 q 197 851 171 853 q 247 847 222 849 q 292 844 272 844 q 317 846 313 844 m 339 639 q 343 706 342 678 q 344 735 344 733 q 335 736 340 736 q 326 736 331 736 q 314 738 321 736 q 235 750 265 743 q 176 772 206 757 q 156 782 160 781 q 156 779 153 783 q 158 774 157 778 q 158 753 158 769 q 159 704 158 736 q 160 614 160 672 q 162 520 161 560 q 164 478 163 481 q 167 472 164 474 q 189 471 171 471 q 222 470 200 471 q 263 468 243 469 q 306 465 297 465 q 318 460 314 464 l 325 453 l 326 458 q 328 475 328 461 q 331 504 329 489 q 334 560 332 521 q 339 639 336 600 m 446 1051 q 477 1021 467 1032 q 492 1004 488 1010 q 497 996 497 999 q 496 992 497 993 q 478 977 493 986 q 451 964 463 968 q 414 958 438 958 q 397 958 404 958 q 382 959 390 958 q 362 962 374 960 q 332 968 350 964 q 302 974 314 972 q 281 977 290 976 q 264 978 272 978 q 244 979 256 979 q 189 974 215 979 q 147 958 163 968 q 138 946 131 949 q 139 941 140 943 q 133 939 138 939 q 113 955 131 939 q 72 994 96 971 l 17 1050 l 25 1058 q 76 1085 36 1071 q 99 1088 88 1088 q 139 1089 111 1089 q 165 1089 156 1089 q 185 1088 175 1089 q 205 1085 194 1086 q 232 1079 215 1083 q 259 1073 249 1075 q 277 1070 269 1071 q 292 1069 285 1069 q 308 1069 299 1069 q 335 1072 326 1071 q 354 1079 343 1074 q 369 1088 361 1082 q 382 1097 378 1093 l 392 1106 l 446 1051 z "},"":{"ha":515,"x_min":28,"x_max":490,"o":"m 317 846 q 325 846 321 849 q 344 828 329 843 q 367 806 351 821 q 401 775 383 792 q 434 742 418 758 q 458 717 450 725 q 465 708 464 711 q 463 689 465 704 q 457 632 460 674 q 451 538 454 590 q 444 432 447 486 q 439 338 440 378 q 436 266 436 308 q 436 193 436 224 q 437 154 436 169 q 438 128 438 139 q 440 111 439 118 q 443 99 442 104 q 460 56 450 78 q 479 24 469 35 q 485 11 490 11 q 465 28 482 11 q 422 68 447 44 l 364 126 l 351 154 q 338 186 343 171 q 329 219 332 201 q 325 260 326 238 q 324 313 324 282 l 324 360 l 211 360 l 190 381 q 167 401 169 401 l 167 317 q 167 242 167 282 q 165 167 167 203 q 163 103 164 131 q 160 68 161 76 q 153 47 157 60 q 147 22 150 33 q 140 3 143 11 q 138 -6 138 -6 q 120 10 136 -6 q 82 49 104 26 l 28 101 l 36 129 q 45 162 42 147 q 51 194 49 176 q 53 236 53 211 q 54 301 54 261 q 54 388 54 332 q 53 508 54 443 q 51 640 53 572 q 49 763 50 707 q 47 853 49 818 q 46 890 46 889 q 50 894 43 896 q 76 882 57 892 q 116 865 101 871 q 154 856 131 860 q 197 851 171 853 q 247 847 222 849 q 292 844 272 844 q 317 846 313 844 m 339 639 q 343 706 342 678 q 344 735 344 733 q 335 736 340 736 q 326 736 331 736 q 314 738 321 736 q 235 750 265 743 q 176 772 206 757 q 156 782 160 781 q 156 779 153 783 q 158 774 157 778 q 158 753 158 769 q 159 704 158 736 q 160 614 160 672 q 162 520 161 560 q 164 478 163 481 q 167 472 164 474 q 189 471 171 471 q 222 470 200 471 q 263 468 243 469 q 306 465 297 465 q 318 460 314 464 l 325 453 l 326 458 q 328 475 328 461 q 331 504 329 489 q 334 560 332 521 q 339 639 336 600 m 147 1151 q 172 1128 153 1147 q 213 1088 192 1110 q 250 1049 233 1067 q 269 1026 267 1031 q 253 983 283 999 q 213 985 233 972 q 192 1003 208 988 q 156 1038 175 1019 q 122 1074 138 1057 q 101 1096 106 1090 q 94 1117 94 1103 q 100 1139 94 1131 q 108 1149 104 1149 q 115 1150 113 1149 q 140 1131 119 1151 q 157 1116 153 1119 q 163 1115 161 1113 q 146 1139 164 1118 q 132 1154 135 1150 q 132 1158 129 1158 q 147 1151 138 1158 m 415 1026 q 399 983 431 999 q 358 985 379 972 q 338 1003 354 988 q 302 1038 321 1019 q 267 1074 283 1057 q 247 1096 251 1090 q 241 1117 242 1103 q 247 1139 240 1131 q 254 1149 251 1149 q 261 1150 258 1149 q 286 1131 265 1151 q 310 1115 308 1110 q 292 1139 310 1121 q 278 1154 281 1150 q 278 1158 275 1158 q 293 1151 283 1158 q 318 1128 299 1147 q 358 1088 338 1110 q 397 1049 379 1067 q 415 1026 414 1031 z "},"":{"ha":515,"x_min":28,"x_max":490,"o":"m 317 846 q 325 846 321 849 q 344 828 329 843 q 367 806 351 821 q 401 775 383 792 q 434 742 418 758 q 458 717 450 725 q 465 708 464 711 q 463 689 465 704 q 457 632 460 674 q 451 538 454 590 q 444 432 447 486 q 439 338 440 378 q 436 266 436 308 q 436 193 436 224 q 437 154 436 169 q 438 128 438 139 q 440 111 439 118 q 443 99 442 104 q 460 56 450 78 q 479 24 469 35 q 485 11 490 11 q 465 28 482 11 q 422 68 447 44 l 364 126 l 351 154 q 338 186 343 171 q 329 219 332 201 q 325 260 326 238 q 324 313 324 282 l 324 360 l 211 360 l 190 381 q 167 401 169 401 l 167 317 q 167 242 167 282 q 165 167 167 203 q 163 103 164 131 q 160 68 161 76 q 153 47 157 60 q 147 22 150 33 q 140 3 143 11 q 138 -6 138 -6 q 120 10 136 -6 q 82 49 104 26 l 28 101 l 36 129 q 45 162 42 147 q 51 194 49 176 q 53 236 53 211 q 54 301 54 261 q 54 388 54 332 q 53 508 54 443 q 51 640 53 572 q 49 763 50 707 q 47 853 49 818 q 46 890 46 889 q 50 894 43 896 q 76 882 57 892 q 116 865 101 871 q 154 856 131 860 q 197 851 171 853 q 247 847 222 849 q 292 844 272 844 q 317 846 313 844 m 339 639 q 343 706 342 678 q 344 735 344 733 q 335 736 340 736 q 326 736 331 736 q 314 738 321 736 q 235 750 265 743 q 176 772 206 757 q 156 782 160 781 q 156 779 153 783 q 158 774 157 778 q 158 753 158 769 q 159 704 158 736 q 160 614 160 672 q 162 520 161 560 q 164 478 163 481 q 167 472 164 474 q 189 471 171 471 q 222 470 200 471 q 263 468 243 469 q 306 465 297 465 q 318 460 314 464 l 325 453 l 326 458 q 328 475 328 461 q 331 504 329 489 q 334 560 332 521 q 339 639 336 600 m 378 1063 q 354 978 382 1019 q 276 939 325 932 q 253 946 265 942 q 233 954 240 950 q 214 972 228 958 q 185 1000 200 985 q 157 1029 169 1015 q 143 1047 144 1043 q 139 1106 132 1071 q 167 1167 146 1140 q 194 1193 178 1182 q 226 1207 211 1204 q 238 1208 233 1208 q 250 1202 242 1208 q 272 1182 258 1196 q 313 1142 286 1168 l 376 1079 l 378 1063 m 268 1035 q 297 1081 286 1051 q 304 1129 308 1110 q 299 1133 304 1135 q 290 1131 296 1133 q 279 1126 285 1129 q 251 1104 267 1119 q 228 1076 235 1089 q 217 1051 221 1065 q 211 1025 213 1036 l 210 1013 l 218 1013 q 238 1015 226 1013 q 253 1022 247 1018 q 268 1035 260 1025 z "},"":{"ha":814,"x_min":28,"x_max":788,"o":"m 733 51 q 772 13 757 29 q 786 -4 788 -3 q 777 -5 785 -6 q 758 -3 769 -4 q 699 -1 733 1 q 630 -10 665 -3 q 560 -27 594 -17 q 501 -50 526 -37 l 488 -56 l 478 -46 q 465 -37 467 -37 q 448 -22 464 -37 q 410 17 432 -6 l 356 71 l 356 92 q 356 109 356 97 q 354 149 356 121 l 351 154 q 338 186 343 171 q 329 219 332 201 q 325 260 326 238 q 324 313 324 282 l 324 360 l 211 360 l 190 381 q 174 397 181 390 q 167 403 168 403 l 167 317 q 167 242 167 282 q 165 167 167 203 q 163 103 164 131 q 160 68 161 76 q 153 47 157 60 q 147 23 150 35 q 140 3 143 11 q 138 -6 138 -6 q 120 10 136 -6 q 82 49 104 26 l 28 101 l 36 129 q 45 162 42 147 q 51 194 49 176 q 53 236 53 211 q 54 301 54 261 q 54 388 54 332 q 53 508 54 443 q 51 640 53 572 q 49 763 50 707 q 47 853 49 818 q 46 890 46 889 q 76 882 39 900 q 116 865 101 871 q 154 856 131 860 q 197 851 171 853 q 247 847 222 849 q 292 844 272 844 q 317 846 313 844 q 322 847 319 847 q 332 840 325 846 l 332 878 l 332 890 l 343 881 q 375 860 358 867 q 424 851 392 854 q 588 869 515 839 l 611 879 l 664 826 q 701 788 686 804 q 717 771 717 772 q 710 765 717 769 q 693 757 703 761 q 672 749 683 753 q 653 744 661 746 q 629 740 643 742 q 601 738 615 739 q 575 736 588 736 q 556 736 563 736 q 498 747 519 739 q 457 769 476 754 q 442 779 442 779 l 442 767 q 442 751 442 760 q 443 732 442 743 l 458 717 q 465 708 464 711 q 463 689 465 704 q 456 628 460 672 q 450 528 453 583 q 451 500 450 513 q 451 478 451 488 q 453 458 451 467 l 460 458 q 475 460 468 458 q 503 463 485 463 q 542 465 522 464 l 588 467 l 642 413 q 663 391 653 401 q 679 374 672 381 l 696 357 q 682 355 696 356 q 649 353 668 354 q 565 347 604 351 q 497 333 525 342 q 489 335 493 332 q 474 350 485 339 q 454 367 457 367 l 464 89 l 467 89 q 474 90 471 89 q 516 100 492 96 q 565 107 540 104 q 613 110 590 110 q 651 110 635 111 l 679 106 l 733 51 m 331 504 q 334 557 332 519 q 339 632 336 594 q 338 663 338 647 q 336 693 338 678 q 336 715 336 704 q 335 736 336 725 q 326 737 331 736 q 314 738 321 738 q 235 750 265 743 q 176 772 206 757 q 156 782 160 781 q 156 779 153 783 q 158 774 157 778 q 158 753 158 769 q 159 704 158 736 q 160 614 160 672 q 162 520 161 560 q 164 478 163 481 q 167 472 164 474 q 189 471 171 471 q 222 470 200 471 q 263 468 243 469 q 306 465 297 465 q 318 460 314 464 l 325 453 l 326 458 q 328 474 328 461 q 331 504 329 488 z "},"":{"ha":543,"x_min":28,"x_max":515,"o":"m 51 856 q 88 827 74 836 q 121 811 101 818 q 194 799 161 797 q 261 818 228 801 q 285 833 275 825 q 313 857 296 840 l 343 885 l 396 832 q 433 794 418 810 q 449 776 449 778 q 440 763 449 772 q 420 743 432 754 q 395 722 408 732 q 372 707 382 713 q 271 690 322 682 q 210 706 236 694 q 156 742 183 718 l 138 757 l 138 732 q 140 701 139 721 q 142 663 140 682 q 145 594 143 639 q 150 493 147 549 q 155 379 153 438 q 160 272 157 321 q 163 185 161 225 q 165 136 164 146 l 167 114 l 178 115 q 243 124 215 121 q 294 128 271 128 q 336 128 317 129 q 375 124 356 126 l 408 119 l 463 65 q 500 26 485 42 q 514 10 515 10 q 502 10 514 8 q 475 14 490 11 q 438 18 451 17 q 406 18 425 19 q 360 14 385 17 q 315 8 336 11 q 275 1 293 6 q 249 -6 257 -3 q 240 -6 246 -8 q 203 29 238 -4 q 110 121 169 63 q 90 142 99 132 q 74 158 81 151 l 58 174 q 56 203 58 174 q 52 277 54 233 q 48 371 50 321 q 44 461 46 421 q 41 563 43 513 q 37 655 39 613 q 33 729 35 697 q 31 779 32 761 q 28 815 29 794 q 28 847 28 835 l 28 876 l 51 856 m 392 -146 q 368 -232 396 -189 q 290 -269 338 -275 q 267 -263 279 -267 q 247 -254 254 -260 q 227 -237 242 -250 q 198 -208 213 -224 q 171 -179 183 -193 q 157 -161 158 -165 q 150 -131 150 -147 l 243 -131 q 242 -131 242 -131 q 240 -132 242 -132 q 229 -158 233 -144 q 224 -183 225 -172 l 224 -196 l 232 -196 q 250 -193 239 -196 q 266 -187 260 -190 q 282 -174 272 -183 q 310 -128 299 -157 q 318 -81 321 -99 q 311 -75 317 -74 q 296 -64 310 -75 q 267 -40 282 -53 q 243 -15 253 -26 q 240 -1 233 -3 q 251 0 247 0 q 264 -6 256 0 q 286 -26 272 -12 q 326 -67 300 -40 l 389 -129 l 392 -146 z "},"":{"ha":511,"x_min":28,"x_max":483,"o":"m 429 51 q 468 13 453 29 q 482 -4 483 -3 q 473 -5 481 -6 q 454 -3 465 -4 q 395 -1 429 1 q 326 -10 361 -3 q 256 -27 290 -17 q 197 -50 222 -37 q 183 -56 183 -56 l 174 -46 q 163 -37 165 -37 q 144 -22 160 -37 q 106 17 128 -6 l 51 71 l 51 92 q 51 108 51 96 q 50 147 51 121 q 48 215 49 172 q 44 322 47 257 q 39 479 42 388 q 32 694 36 571 q 30 761 31 729 q 28 818 29 793 q 28 859 28 843 q 28 878 28 875 l 29 890 l 39 881 q 71 860 54 867 q 119 850 88 854 q 283 869 213 840 l 307 879 l 360 826 q 398 788 382 804 q 414 771 414 772 q 407 765 414 769 q 390 757 400 761 q 369 749 379 753 q 350 744 358 746 q 298 738 329 740 q 251 736 267 735 q 194 747 217 739 q 153 769 172 754 q 138 779 138 779 q 138 755 138 779 q 140 695 139 731 q 143 619 142 660 q 145 542 144 578 q 147 483 146 507 q 149 458 149 458 l 156 458 q 171 460 165 458 q 200 463 181 463 q 238 465 219 464 l 283 467 l 338 413 l 376 374 q 392 357 385 365 q 378 355 392 356 q 344 353 364 354 q 260 347 300 351 q 193 333 221 342 q 169 350 188 332 q 163 356 165 353 q 157 363 160 360 q 151 367 154 365 q 151 355 151 367 q 152 324 151 343 q 153 279 153 304 q 156 228 154 254 q 160 89 158 167 l 163 89 q 169 90 167 89 q 212 100 188 96 q 261 107 236 104 q 308 110 286 110 q 347 110 331 111 l 375 106 l 429 51 m 264 964 q 273 945 271 949 q 272 942 275 942 q 254 958 271 942 q 215 997 238 974 q 179 1033 192 1021 q 158 1059 167 1046 q 142 1090 150 1072 q 118 1142 133 1108 q 98 1188 101 1178 q 97 1197 94 1197 q 115 1182 99 1197 q 151 1144 131 1167 l 204 1092 l 229 1038 q 249 994 239 1015 q 264 964 258 972 z "},"":{"ha":511,"x_min":28,"x_max":483,"o":"m 429 51 q 468 13 453 29 q 482 -4 483 -3 q 473 -5 481 -6 q 454 -3 465 -4 q 395 -1 429 1 q 326 -10 361 -3 q 256 -27 290 -17 q 197 -50 222 -37 q 183 -56 183 -56 l 174 -46 q 163 -37 165 -37 q 144 -22 160 -37 q 106 17 128 -6 l 51 71 l 51 92 q 51 108 51 96 q 50 147 51 121 q 48 215 49 172 q 44 322 47 257 q 39 479 42 388 q 32 694 36 571 q 30 761 31 729 q 28 818 29 793 q 28 859 28 843 q 28 878 28 875 l 29 890 l 39 881 q 71 860 54 867 q 119 850 88 854 q 283 869 213 840 l 307 879 l 360 826 q 398 788 382 804 q 414 771 414 772 q 407 765 414 769 q 390 757 400 761 q 369 749 379 753 q 350 744 358 746 q 298 738 329 740 q 251 736 267 735 q 194 747 217 739 q 153 769 172 754 q 138 779 138 779 q 138 755 138 779 q 140 695 139 731 q 143 619 142 660 q 145 542 144 578 q 147 483 146 507 q 149 458 149 458 l 156 458 q 171 460 165 458 q 200 463 181 463 q 238 465 219 464 l 283 467 l 338 413 l 376 374 q 392 357 385 365 q 378 355 392 356 q 344 353 364 354 q 260 347 300 351 q 193 333 221 342 q 169 350 188 332 q 163 356 165 353 q 157 363 160 360 q 151 367 154 365 q 151 355 151 367 q 152 324 151 343 q 153 279 153 304 q 156 228 154 254 q 160 89 158 167 l 163 89 q 169 90 167 89 q 212 100 188 96 q 261 107 236 104 q 308 110 286 110 q 347 110 331 111 l 375 106 l 429 51 m 279 1089 l 260 1050 q 244 1015 253 1035 q 229 982 235 994 q 221 962 225 971 q 217 951 217 953 q 199 965 215 950 q 160 1003 183 981 q 122 1041 138 1025 q 107 1058 107 1057 q 116 1085 107 1063 q 137 1132 125 1107 q 158 1177 149 1157 q 169 1197 168 1197 q 187 1181 171 1197 q 225 1143 203 1165 l 279 1089 z "},"":{"ha":511,"x_min":-19,"x_max":483,"o":"m 153 769 q 138 779 138 779 q 138 755 138 779 q 140 695 139 731 q 143 619 142 660 q 145 542 144 578 q 147 483 146 507 q 149 458 149 458 l 156 458 q 171 461 160 458 q 200 463 181 463 q 238 465 219 464 l 283 467 l 338 413 l 376 374 q 392 357 385 365 q 378 355 392 356 q 344 353 364 354 q 260 347 300 351 q 193 333 221 342 q 185 336 190 333 q 169 350 181 339 q 163 356 165 353 q 157 363 160 360 q 151 367 154 365 q 151 355 151 367 q 152 324 151 343 q 153 279 153 304 q 156 228 154 254 q 160 89 158 167 l 163 89 q 169 90 167 89 q 212 100 188 96 q 261 107 236 104 q 308 110 286 110 q 347 110 331 111 l 375 106 l 429 51 q 468 13 453 29 q 482 -4 483 -3 q 473 -5 481 -6 q 454 -3 465 -4 q 395 -1 429 1 q 326 -10 361 -3 q 256 -27 290 -17 q 197 -50 222 -37 q 183 -56 183 -56 l 174 -46 q 163 -37 165 -37 q 144 -22 160 -37 q 106 17 128 -6 l 51 71 l 51 92 q 51 108 51 96 q 50 147 51 121 q 48 215 49 172 q 44 322 47 257 q 39 479 42 388 q 32 694 36 571 q 30 761 31 729 q 28 818 29 793 q 28 859 28 843 q 28 878 28 875 l 29 890 l 39 881 q 71 860 54 867 q 119 850 88 854 q 283 869 213 840 l 307 879 l 360 826 q 398 788 382 804 q 414 771 414 772 q 407 765 414 769 q 390 757 400 761 q 369 749 379 753 q 350 744 358 746 q 298 738 329 740 q 251 736 267 735 q 194 747 217 739 q 153 769 172 754 m 267 1014 q 292 986 278 1001 q 315 961 306 971 q 326 939 349 928 q 302 962 324 942 q 253 1010 281 982 q 203 1058 225 1038 q 179 1079 182 1079 q 154 1068 163 1083 q 144 1049 151 1063 q 128 1017 136 1035 q 112 984 119 1000 q 100 958 104 968 q 94 944 97 950 q 90 936 90 938 q 73 952 89 936 q 35 990 57 968 l -19 1044 l -11 1067 q 5 1102 -6 1082 q 25 1140 15 1122 q 42 1172 35 1158 q 53 1188 50 1185 q 99 1178 69 1197 q 128 1153 106 1174 q 176 1108 150 1133 q 227 1056 201 1082 q 267 1014 253 1031 z "},"":{"ha":511,"x_min":8,"x_max":483,"o":"m 153 769 q 138 779 138 779 q 138 755 138 779 q 140 695 139 731 q 143 619 142 660 q 145 542 144 578 q 147 483 146 507 q 149 458 149 458 l 156 458 q 171 461 160 458 q 200 463 181 463 q 238 465 219 464 l 283 467 l 338 413 l 376 374 q 392 357 385 365 q 378 355 392 356 q 344 353 364 354 q 260 347 300 351 q 193 333 221 342 q 185 336 190 333 q 169 350 181 339 q 163 356 165 353 q 157 363 160 360 q 151 367 154 365 q 151 355 151 367 q 152 324 151 343 q 153 279 153 304 q 156 228 154 254 q 160 89 158 167 l 163 89 q 169 90 167 89 q 212 100 188 96 q 261 107 236 104 q 308 110 286 110 q 347 110 331 111 l 375 106 l 429 51 q 468 13 453 29 q 482 -4 483 -3 q 473 -5 481 -6 q 454 -3 465 -4 q 395 -1 429 1 q 326 -10 361 -3 q 256 -27 290 -17 q 197 -50 222 -37 q 183 -56 183 -56 l 174 -46 q 163 -37 165 -37 q 144 -22 160 -37 q 106 17 128 -6 l 51 71 l 51 92 q 51 108 51 96 q 50 147 51 121 q 48 215 49 172 q 44 322 47 257 q 39 479 42 388 q 32 694 36 571 q 30 761 31 729 q 28 818 29 793 q 28 859 28 843 q 28 878 28 875 l 29 890 l 39 881 q 71 860 54 867 q 119 850 88 854 q 283 869 213 840 l 307 879 l 360 826 q 398 788 382 804 q 414 771 414 772 q 407 765 414 769 q 390 757 400 761 q 369 749 379 753 q 350 744 358 746 q 298 738 329 740 q 251 736 267 735 q 194 747 217 739 q 153 769 172 754 m 61 1167 q 86 1144 67 1163 q 126 1103 106 1125 q 165 1064 147 1082 q 183 1042 182 1046 q 167 999 199 1015 q 126 1000 147 988 q 106 1019 122 1003 q 70 1053 89 1035 q 35 1089 51 1072 q 15 1111 19 1106 q 9 1132 10 1118 q 15 1154 8 1146 q 22 1164 19 1164 q 29 1165 26 1164 q 54 1146 33 1167 q 78 1131 76 1125 q 60 1154 78 1136 q 46 1169 49 1165 q 46 1174 43 1174 q 61 1167 51 1174 m 331 1042 q 313 999 343 1014 q 272 1000 294 988 q 252 1019 268 1003 q 217 1053 236 1035 q 182 1089 199 1072 q 161 1111 165 1106 q 156 1132 156 1118 q 161 1154 156 1146 q 169 1164 165 1164 q 175 1165 174 1164 q 201 1146 179 1167 q 224 1131 222 1125 q 206 1154 225 1135 q 192 1169 194 1165 q 192 1174 189 1174 q 208 1167 199 1174 q 233 1144 214 1163 q 274 1103 253 1125 q 311 1064 294 1082 q 331 1042 328 1046 z "},"":{"ha":192,"x_min":-32,"x_max":167,"o":"m 158 182 q 159 112 158 146 q 160 50 160 78 q 162 5 161 22 q 164 -15 163 -12 q 154 -13 167 -24 q 104 33 142 -3 l 50 88 l 49 164 q 48 202 49 181 q 47 247 47 224 q 46 294 46 271 q 46 338 46 318 q 45 440 46 382 q 43 554 44 499 q 40 654 42 610 q 38 717 39 699 q 29 853 32 804 q 28 904 26 903 q 45 890 29 906 q 83 853 61 875 l 136 800 l 142 721 q 147 651 144 689 q 150 594 149 614 q 153 522 151 571 q 155 414 154 474 q 157 292 156 354 q 158 182 158 231 m 138 964 q 147 945 144 949 q 146 942 149 942 q 128 958 144 942 q 89 997 111 974 q 53 1033 65 1021 q 32 1059 40 1046 q 15 1090 24 1072 q -8 1142 7 1108 q -28 1188 -25 1178 q -29 1197 -32 1197 q -12 1182 -28 1197 q 25 1144 4 1167 l 78 1092 l 103 1038 q 122 994 113 1015 q 138 964 132 972 z "},"":{"ha":192,"x_min":-8,"x_max":167,"o":"m 158 182 q 159 112 158 146 q 160 50 160 78 q 162 5 161 22 q 164 -15 163 -12 q 154 -13 167 -24 q 104 33 142 -3 l 50 88 l 49 164 q 48 202 49 181 q 47 247 47 224 q 46 294 46 271 q 46 338 46 318 q 45 440 46 382 q 43 554 44 499 q 40 654 42 610 q 38 717 39 699 q 29 853 32 804 q 28 904 26 903 q 45 890 29 906 q 83 853 61 875 l 136 800 l 142 721 q 147 651 144 689 q 150 594 149 614 q 153 522 151 571 q 155 414 154 474 q 157 292 156 354 q 158 182 158 231 m 164 1089 l 144 1050 q 128 1015 138 1035 q 114 982 119 994 q 106 962 110 971 q 101 951 101 953 q 84 965 100 950 q 44 1003 68 981 q 7 1041 22 1025 q -8 1058 -8 1057 q 1 1085 -8 1063 q 22 1132 10 1107 q 43 1177 33 1157 q 54 1197 53 1197 q 72 1181 56 1197 q 110 1143 88 1165 l 164 1089 z "},"":{"ha":192,"x_min":-107,"x_max":261,"o":"m 158 182 q 159 112 158 146 q 160 50 160 78 q 162 5 161 22 q 164 -15 163 -12 q 154 -13 167 -24 q 104 33 142 -3 l 50 88 l 49 164 q 48 202 49 181 q 47 247 47 224 q 46 294 46 271 q 46 338 46 318 q 45 440 46 382 q 43 554 44 499 q 40 654 42 610 q 38 717 39 699 q 29 853 32 804 q 28 904 26 903 q 45 890 29 906 q 83 853 61 875 l 136 800 l 142 721 q 147 651 144 689 q 150 594 149 614 q 153 522 151 571 q 155 414 154 474 q 157 292 156 354 q 158 182 158 231 m 179 1038 q 204 1010 190 1025 q 228 985 218 994 q 239 963 261 951 q 215 985 236 965 q 165 1033 193 1006 q 116 1082 138 1061 q 92 1103 94 1103 q 67 1092 75 1107 q 56 1072 64 1086 q 40 1041 49 1058 q 24 1008 32 1024 q 13 982 17 992 q 6 967 10 974 q 3 960 3 961 q -15 976 1 960 q -53 1014 -31 992 l -107 1068 l -99 1090 q -83 1126 -93 1106 q -62 1164 -72 1146 q -45 1195 -53 1182 q -35 1211 -37 1208 q 11 1201 -18 1221 q 40 1177 18 1197 q 88 1131 63 1157 q 140 1080 114 1106 q 179 1038 165 1054 z "},"":{"ha":192,"x_min":-132,"x_max":201,"o":"m 158 182 q 159 112 158 146 q 160 50 160 78 q 162 5 161 22 q 164 -15 163 -12 q 154 -13 167 -24 q 104 33 142 -3 l 50 88 l 49 164 q 48 202 49 181 q 47 247 47 224 q 46 294 46 271 q 46 338 46 318 q 45 440 46 382 q 43 554 44 499 q 40 654 42 610 q 38 717 39 699 q 29 853 32 804 q 28 904 26 903 q 45 890 29 906 q 83 853 61 875 l 136 800 l 142 721 q 147 651 144 689 q 150 594 149 614 q 153 522 151 571 q 155 414 154 474 q 157 292 156 354 q 158 182 158 231 m -79 1193 q -54 1170 -74 1189 q -14 1130 -35 1151 q 24 1090 7 1108 q 43 1068 40 1072 q 25 1025 57 1040 q -14 1026 7 1014 q -35 1045 -18 1029 q -70 1080 -51 1061 q -106 1115 -89 1099 q -126 1138 -122 1132 q -132 1158 -132 1144 q -126 1181 -132 1172 q -118 1190 -122 1190 q -111 1192 -114 1190 q -86 1172 -108 1193 q -69 1158 -74 1161 q -64 1157 -65 1154 q -82 1181 -62 1161 q -95 1196 -93 1192 q -94 1200 -97 1200 q -79 1193 -89 1200 m 189 1068 q 172 1025 201 1040 q 132 1026 153 1014 q 111 1045 128 1029 q 76 1080 94 1061 q 41 1115 57 1099 q 21 1138 25 1132 q 14 1158 14 1144 q 19 1181 14 1172 q 28 1190 26 1190 q 35 1192 32 1190 q 60 1172 39 1193 q 76 1158 72 1161 q 82 1157 81 1154 q 65 1181 83 1160 q 51 1196 54 1192 q 51 1200 49 1200 q 67 1193 57 1200 q 92 1170 72 1189 q 132 1130 111 1151 q 170 1090 153 1108 q 189 1068 188 1072 z "},"":{"ha":757,"x_min":28,"x_max":729,"o":"m 656 683 q 674 642 664 667 q 694 588 685 617 q 711 531 703 560 q 724 481 719 503 q 728 445 726 468 q 729 398 729 422 q 728 351 729 374 q 724 314 726 328 q 697 210 711 249 q 657 133 683 171 q 599 69 636 101 q 531 21 563 36 q 376 15 460 -11 q 357 24 364 19 q 340 36 350 28 q 324 50 326 50 l 324 6 q 324 -12 324 -4 q 325 -26 325 -19 l 325 -40 q 308 -24 324 -40 q 269 15 292 -8 l 214 69 l 214 93 q 213 137 214 107 q 210 208 211 167 q 208 299 210 249 q 206 403 207 349 l 181 403 q 165 403 174 403 q 150 404 157 403 l 133 407 l 81 460 q 43 498 58 482 q 28 515 28 514 q 54 515 28 518 q 74 515 60 515 q 110 516 89 515 q 154 517 131 517 q 203 519 178 518 q 200 649 201 586 q 197 763 199 713 q 195 844 196 813 q 194 881 194 876 l 196 914 l 210 899 q 285 861 239 869 q 309 858 300 858 q 340 860 318 857 q 403 869 374 863 q 453 886 433 876 l 474 896 l 481 889 q 489 881 483 886 q 500 874 494 876 q 521 857 508 868 q 547 833 533 846 q 571 810 560 821 q 586 793 582 799 q 604 768 594 782 q 624 739 614 754 q 642 709 633 724 q 656 683 650 694 m 618 468 q 609 600 624 529 q 564 736 594 671 q 553 758 557 749 q 547 767 549 767 q 539 765 543 767 q 531 763 535 764 q 521 760 526 761 q 491 754 510 757 q 457 750 472 751 q 421 747 431 747 q 394 749 411 746 q 355 760 372 753 q 322 778 338 767 l 306 788 l 306 750 q 307 672 306 735 q 310 525 308 608 l 324 525 q 354 525 329 525 q 407 526 379 525 q 458 526 435 526 q 483 526 481 526 l 496 529 l 549 475 q 587 437 571 453 q 603 419 603 421 q 579 415 603 417 q 500 411 556 414 q 461 411 490 411 q 401 410 432 411 q 344 409 369 410 q 315 408 319 408 l 314 408 q 316 310 315 357 q 318 225 317 263 q 320 163 319 188 q 321 133 321 138 l 322 114 l 351 115 q 378 118 367 117 q 401 124 390 119 q 435 139 421 131 q 474 165 450 147 q 530 219 504 189 q 572 285 556 250 q 600 367 588 315 q 618 468 613 419 z "},"":{"ha":563,"x_min":-32,"x_max":535,"o":"m 393 621 q 394 700 394 674 q 393 737 394 726 q 388 746 392 747 q 375 743 383 744 q 356 740 369 742 q 328 738 343 739 q 274 737 296 735 q 225 749 253 739 q 187 766 203 757 q 154 790 171 775 l 138 806 l 140 790 q 141 766 140 785 q 143 728 142 747 q 144 679 143 710 q 147 613 146 649 q 151 540 149 576 q 154 472 153 503 q 156 421 156 453 q 157 363 157 389 q 158 301 157 336 q 160 242 158 265 q 163 176 161 218 q 165 99 164 135 q 167 35 167 63 q 169 4 168 7 q 167 -4 169 -4 q 149 10 165 -6 q 110 49 133 26 l 57 103 l 56 169 q 55 203 56 183 q 53 244 54 222 q 51 290 51 267 q 50 333 50 313 q 47 418 47 374 q 46 486 46 463 q 44 556 46 510 q 40 643 43 601 q 38 689 39 664 q 35 738 36 714 q 33 785 35 763 q 32 825 32 808 q 30 887 31 860 q 28 921 29 914 q 29 936 28 935 q 40 926 35 932 q 53 915 46 921 q 67 901 60 908 l 103 867 l 129 857 q 145 852 139 854 q 158 849 151 850 q 172 849 164 849 q 193 849 181 849 q 247 851 224 849 q 296 860 271 854 q 329 872 315 865 q 360 890 343 879 l 376 903 l 417 864 q 453 830 435 847 q 479 804 471 813 l 500 785 l 503 731 q 503 696 503 719 q 504 641 504 672 q 504 574 504 610 q 504 501 504 538 q 506 371 504 435 q 508 253 507 307 q 511 160 510 200 q 514 103 513 121 q 521 62 517 83 q 532 25 525 40 q 533 14 535 14 q 516 30 532 14 q 476 68 500 46 l 421 124 l 417 143 q 410 170 413 157 q 405 200 407 183 q 402 240 403 217 q 400 296 401 263 q 397 374 399 332 q 394 439 396 415 q 392 514 393 465 q 393 621 392 563 m 397 1165 q 428 1135 418 1146 q 444 1118 439 1124 q 449 1110 449 1113 q 447 1106 449 1107 q 429 1091 444 1100 q 403 1078 414 1082 q 364 1072 389 1072 q 349 1072 356 1072 q 333 1073 342 1072 q 313 1076 325 1074 q 283 1082 301 1078 q 253 1088 265 1086 q 233 1091 242 1090 q 215 1092 224 1092 q 196 1093 207 1093 q 140 1088 167 1093 q 99 1072 114 1082 q 89 1060 82 1063 q 90 1055 92 1057 q 83 1053 88 1053 q 65 1069 82 1053 q 24 1108 47 1085 l -32 1164 l -25 1172 q 28 1199 -12 1185 q 51 1202 39 1201 q 90 1203 63 1203 q 117 1203 107 1203 q 136 1201 126 1203 q 156 1199 146 1200 q 183 1193 167 1197 q 210 1187 200 1189 q 228 1184 221 1185 q 243 1183 236 1183 q 260 1183 250 1183 q 286 1186 278 1185 q 306 1193 294 1188 q 321 1201 313 1196 q 333 1211 329 1207 l 343 1219 l 397 1165 z "},"":{"ha":590,"x_min":28,"x_max":563,"o":"m 490 653 q 533 603 514 625 q 554 579 551 582 l 563 571 l 560 490 q 558 412 558 457 q 557 338 557 367 q 556 266 557 296 q 551 213 554 236 q 541 172 547 190 q 526 135 535 153 q 461 61 501 83 q 432 47 446 53 q 400 36 418 40 q 358 29 382 32 q 301 24 335 26 q 273 21 285 22 q 261 18 261 19 q 243 24 261 13 q 228 33 235 28 q 211 47 221 39 q 188 69 201 56 q 154 107 175 83 q 125 140 136 126 q 107 162 114 153 q 96 177 100 171 q 88 190 92 183 q 78 213 82 201 q 73 244 75 225 q 69 290 71 263 q 67 361 68 318 q 65 402 67 379 q 63 448 64 425 q 61 493 63 471 q 58 532 60 515 q 54 607 56 568 q 51 665 53 646 q 51 706 51 692 q 49 729 50 721 q 44 742 47 738 q 38 753 42 747 q 28 767 28 761 q 38 771 29 768 q 78 786 49 774 q 132 811 108 799 q 188 846 164 829 q 242 886 213 863 q 272 910 267 907 q 279 908 276 913 q 296 890 282 906 q 329 854 310 874 q 367 811 356 825 q 383 786 378 797 q 413 741 390 769 q 490 653 436 713 m 456 674 l 447 683 q 429 703 443 688 q 400 738 415 719 q 372 769 382 758 q 361 782 367 776 q 351 777 360 783 q 332 761 343 771 q 306 741 321 751 q 282 724 292 731 q 256 708 271 717 q 224 690 240 699 q 193 675 208 682 q 168 664 178 668 q 151 656 153 658 q 153 633 150 653 q 155 608 154 631 q 157 556 156 585 q 160 495 158 528 q 163 447 161 463 q 168 342 165 394 q 174 228 171 290 q 176 168 175 193 q 178 142 176 143 q 187 139 179 139 q 222 142 194 139 q 268 147 249 144 q 303 153 288 150 q 331 163 318 157 q 357 175 343 168 q 411 228 389 193 q 443 313 433 264 q 451 378 449 336 q 453 472 453 421 q 453 537 453 499 q 454 604 453 575 l 456 674 m 343 949 q 352 930 350 933 q 351 926 354 926 q 333 942 350 926 q 294 982 317 958 q 258 1018 271 1006 q 238 1044 246 1031 q 221 1075 229 1057 q 197 1126 213 1093 q 177 1172 181 1163 q 176 1182 174 1182 q 194 1167 178 1182 q 231 1129 210 1151 l 283 1076 l 308 1022 q 328 978 318 1000 q 343 949 338 957 z "},"":{"ha":590,"x_min":28,"x_max":563,"o":"m 490 653 q 533 603 514 625 q 554 579 551 582 l 563 571 l 560 490 q 558 412 558 457 q 557 338 557 367 q 556 266 557 296 q 551 213 554 236 q 541 172 547 190 q 526 135 535 153 q 461 61 501 83 q 432 47 446 53 q 400 36 418 40 q 358 29 382 32 q 301 24 335 26 q 273 21 285 22 q 261 18 261 19 q 243 24 261 13 q 228 33 235 28 q 211 47 221 39 q 188 69 201 56 q 154 107 175 83 q 125 140 136 126 q 107 162 114 153 q 96 177 100 171 q 88 190 92 183 q 78 213 82 201 q 73 244 75 225 q 69 290 71 263 q 67 361 68 318 q 65 402 67 379 q 63 448 64 425 q 61 493 63 471 q 58 532 60 515 q 54 607 56 568 q 51 665 53 646 q 51 706 51 692 q 49 729 50 721 q 44 742 47 738 q 38 753 42 747 q 28 767 28 761 q 38 771 29 768 q 78 786 49 774 q 132 811 108 799 q 188 846 164 829 q 242 886 213 863 q 272 910 267 907 q 279 908 276 913 q 296 890 282 906 q 329 854 310 874 q 367 811 356 825 q 383 786 378 797 q 413 741 390 769 q 490 653 436 713 m 456 674 l 447 683 q 429 703 443 688 q 400 738 415 719 q 372 769 382 758 q 361 782 367 776 q 351 777 360 783 q 332 761 343 771 q 306 741 321 751 q 282 724 292 731 q 256 708 271 717 q 224 690 240 699 q 193 675 208 682 q 168 664 178 668 q 151 656 153 658 q 153 633 150 653 q 155 608 154 631 q 157 556 156 585 q 160 495 158 528 q 163 447 161 463 q 168 342 165 394 q 174 228 171 290 q 176 168 175 193 q 178 142 176 143 q 187 139 179 139 q 222 142 194 139 q 268 147 249 144 q 303 153 288 150 q 331 163 318 157 q 357 175 343 168 q 411 228 389 193 q 443 313 433 264 q 451 378 449 336 q 453 472 453 421 q 453 537 453 499 q 454 604 453 575 l 456 674 m 381 1074 l 361 1035 q 345 999 354 1019 q 331 967 336 979 q 322 947 326 956 q 318 936 318 938 q 301 950 317 935 q 261 988 285 965 q 224 1026 239 1010 q 208 1043 208 1042 q 217 1069 208 1047 q 238 1117 226 1092 q 260 1162 250 1142 q 271 1182 269 1182 q 288 1166 272 1182 q 326 1128 304 1150 l 381 1074 z "},"":{"ha":590,"x_min":28,"x_max":563,"o":"m 490 653 q 533 603 514 625 q 554 579 551 582 l 563 571 l 560 490 q 558 412 558 457 q 557 338 557 367 q 556 266 557 296 q 551 213 554 236 q 541 172 547 190 q 526 135 535 153 q 461 61 501 83 q 432 47 446 53 q 400 36 418 40 q 358 29 382 32 q 301 24 335 26 q 273 21 285 22 q 261 18 261 19 q 243 24 261 13 q 228 33 235 28 q 211 47 221 39 q 188 69 201 56 q 154 107 175 83 q 125 140 136 126 q 107 162 114 153 q 96 177 100 171 q 88 190 92 183 q 78 213 82 201 q 73 244 75 225 q 69 290 71 263 q 67 361 68 318 q 65 402 67 379 q 63 448 64 425 q 61 493 63 471 q 58 532 60 515 q 54 607 56 568 q 51 665 53 646 q 51 706 51 692 q 49 729 50 721 q 44 742 47 738 q 38 753 42 747 q 28 767 28 761 q 38 771 29 768 q 78 786 49 774 q 132 811 108 799 q 188 846 164 829 q 242 886 213 863 q 272 910 267 907 q 279 908 276 913 q 296 890 282 906 q 329 854 310 874 q 367 811 356 825 q 383 786 378 797 q 413 741 390 769 q 490 653 436 713 m 456 674 l 447 683 q 429 703 443 688 q 400 738 415 719 q 372 769 382 758 q 361 782 367 776 q 351 777 360 783 q 332 761 343 771 q 306 741 321 751 q 282 724 292 731 q 256 708 271 717 q 224 690 240 699 q 193 675 208 682 q 168 664 178 668 q 151 656 153 658 q 153 633 150 653 q 155 608 154 631 q 157 556 156 585 q 160 495 158 528 q 163 447 161 463 q 168 342 165 394 q 174 228 171 290 q 176 168 175 193 q 178 142 176 143 q 187 139 179 139 q 222 142 194 139 q 268 147 249 144 q 303 153 288 150 q 331 163 318 157 q 357 175 343 168 q 411 228 389 193 q 443 313 433 264 q 451 378 449 336 q 453 472 453 421 q 453 537 453 499 q 454 604 453 575 l 456 674 m 344 1042 q 369 1014 356 1029 q 393 989 383 999 q 404 967 426 956 q 380 990 401 969 q 331 1038 358 1010 q 281 1086 303 1065 q 257 1107 260 1107 q 232 1096 240 1111 q 222 1076 229 1090 q 206 1045 214 1063 q 190 1012 197 1028 q 178 986 182 996 q 172 972 175 978 q 168 964 168 965 q 151 980 167 964 q 113 1018 135 996 l 58 1072 l 67 1094 q 83 1130 72 1110 q 103 1168 93 1150 q 120 1199 113 1186 q 131 1215 128 1213 q 176 1206 147 1225 q 206 1181 183 1201 q 253 1135 228 1161 q 305 1084 279 1110 q 344 1042 331 1058 z "},"":{"ha":590,"x_min":28,"x_max":563,"o":"m 490 653 q 533 603 514 625 q 554 579 551 582 l 563 571 l 560 490 q 558 412 558 457 q 557 338 557 367 q 556 266 557 296 q 551 213 554 236 q 541 172 547 190 q 526 135 535 153 q 461 61 501 83 q 432 47 446 53 q 400 36 418 40 q 358 29 382 32 q 301 24 335 26 q 273 21 285 22 q 261 18 261 19 q 243 24 261 13 q 228 33 235 28 q 211 47 221 39 q 188 69 201 56 q 154 107 175 83 q 125 140 136 126 q 107 162 114 153 q 96 177 100 171 q 88 190 92 183 q 78 213 82 201 q 73 244 75 225 q 69 290 71 263 q 67 361 68 318 q 65 402 67 379 q 63 448 64 425 q 61 493 63 471 q 58 532 60 515 q 54 607 56 568 q 51 665 53 646 q 51 706 51 692 q 49 729 50 721 q 44 742 47 738 q 38 753 42 747 q 28 767 28 761 q 38 771 29 768 q 78 786 49 774 q 132 811 108 799 q 188 846 164 829 q 242 886 213 863 q 272 910 267 907 q 279 908 276 913 q 296 890 282 906 q 329 854 310 874 q 367 811 356 825 q 383 786 378 797 q 413 741 390 769 q 490 653 436 713 m 456 674 l 447 683 q 429 703 443 688 q 400 738 415 719 q 372 769 382 758 q 361 782 367 776 q 351 777 360 783 q 332 761 343 771 q 306 741 321 751 q 282 724 292 731 q 256 708 271 717 q 224 690 240 699 q 193 675 208 682 q 168 664 178 668 q 151 656 153 658 q 153 633 150 653 q 155 608 154 631 q 157 556 156 585 q 160 495 158 528 q 163 447 161 463 q 168 342 165 394 q 174 228 171 290 q 176 168 175 193 q 178 142 176 143 q 187 139 179 139 q 222 142 194 139 q 268 147 249 144 q 303 153 288 150 q 331 163 318 157 q 357 175 343 168 q 411 228 389 193 q 443 313 433 264 q 451 378 449 336 q 453 472 453 421 q 453 537 453 499 q 454 604 453 575 l 456 674 m 461 1117 q 492 1086 482 1097 q 508 1069 503 1075 q 513 1061 513 1064 q 513 1057 514 1058 q 494 1042 508 1051 q 467 1029 479 1033 q 429 1024 453 1024 q 413 1024 421 1024 q 397 1024 406 1024 q 377 1027 389 1025 q 347 1033 365 1029 q 317 1040 329 1038 q 297 1042 306 1042 q 279 1044 288 1043 q 260 1044 271 1044 q 204 1039 231 1044 q 163 1024 178 1033 q 151 1016 153 1018 q 153 1011 150 1014 q 154 1006 156 1008 q 149 1004 153 1004 q 128 1020 146 1004 q 88 1060 111 1036 l 32 1115 l 40 1124 q 92 1150 51 1136 q 115 1153 103 1153 q 154 1154 126 1154 q 181 1154 171 1154 q 200 1153 190 1154 q 220 1150 210 1151 q 247 1144 231 1149 q 274 1138 264 1140 q 292 1135 285 1136 q 307 1135 300 1135 q 324 1135 314 1135 q 351 1138 343 1136 q 369 1144 358 1139 q 385 1153 376 1147 q 397 1163 393 1158 l 407 1171 l 461 1117 z "},"":{"ha":590,"x_min":28,"x_max":563,"o":"m 490 653 q 533 603 514 625 q 554 579 551 582 l 563 571 l 560 490 q 558 412 558 457 q 557 338 557 367 q 556 266 557 296 q 551 213 554 236 q 541 172 547 190 q 526 135 535 153 q 461 61 501 83 q 432 47 446 53 q 400 36 418 40 q 358 29 382 32 q 301 24 335 26 q 273 21 285 22 q 261 18 261 19 q 243 24 261 13 q 228 33 235 28 q 211 47 221 39 q 188 69 201 56 q 154 107 175 83 q 125 140 136 126 q 107 162 114 153 q 96 177 100 171 q 88 190 92 183 q 78 213 82 201 q 73 244 75 225 q 69 290 71 263 q 67 361 68 318 q 65 402 67 379 q 63 448 64 425 q 61 493 63 471 q 58 532 60 515 q 54 607 56 568 q 51 665 53 646 q 51 706 51 692 q 49 729 50 721 q 44 742 47 738 q 38 753 42 747 q 28 767 28 761 q 38 771 29 768 q 78 786 49 774 q 132 811 108 799 q 188 846 164 829 q 242 886 213 863 q 272 910 267 907 q 279 908 276 913 q 296 890 282 906 q 329 854 310 874 q 367 811 356 825 q 383 786 378 797 q 413 741 390 769 q 490 653 436 713 m 456 674 l 447 683 q 429 703 443 688 q 400 738 415 719 q 372 769 382 758 q 361 782 367 776 q 351 777 360 783 q 332 761 343 771 q 306 741 321 751 q 282 724 292 731 q 256 708 271 717 q 224 690 240 699 q 193 675 208 682 q 168 664 178 668 q 151 656 153 658 q 153 633 150 653 q 155 608 154 631 q 157 556 156 585 q 160 495 158 528 q 163 447 161 463 q 168 342 165 394 q 174 228 171 290 q 176 168 175 193 q 178 142 176 143 q 187 139 179 139 q 222 142 194 139 q 268 147 249 144 q 303 153 288 150 q 331 163 318 157 q 357 175 343 168 q 411 228 389 193 q 443 313 433 264 q 451 378 449 336 q 453 472 453 421 q 453 537 453 499 q 454 604 453 575 l 456 674 m 143 1171 q 168 1148 149 1167 q 208 1108 188 1129 q 247 1068 229 1086 q 265 1046 264 1050 q 249 1003 279 1018 q 208 1004 229 992 q 188 1023 204 1007 q 152 1058 171 1039 q 117 1093 133 1076 q 97 1115 101 1110 q 90 1136 90 1122 q 96 1158 90 1150 q 104 1168 103 1168 q 111 1169 108 1168 q 136 1150 115 1171 q 153 1135 149 1139 q 158 1135 157 1132 q 142 1158 160 1138 q 128 1174 131 1169 q 128 1178 125 1178 q 143 1171 133 1178 m 411 1046 q 394 1003 426 1018 q 354 1004 375 992 q 333 1023 350 1007 q 298 1058 317 1039 q 263 1093 279 1076 q 243 1115 247 1110 q 237 1136 238 1122 q 243 1158 236 1150 q 250 1168 247 1168 q 257 1169 254 1168 q 282 1150 261 1171 q 306 1135 304 1129 q 288 1158 306 1140 q 274 1174 276 1169 q 274 1178 271 1178 q 290 1171 279 1178 q 315 1148 296 1167 q 354 1108 333 1129 q 392 1068 375 1086 q 411 1046 410 1050 z "},"":{"ha":476,"x_min":28,"x_max":451,"o":"m 388 403 q 440 347 429 360 q 446 335 451 335 q 435 343 444 335 q 414 363 426 351 q 378 394 396 379 q 347 422 361 410 q 324 440 333 433 q 314 446 315 446 q 303 433 313 444 q 282 404 293 421 q 217 319 242 349 q 185 289 192 289 q 167 304 183 289 q 126 343 150 319 q 89 381 104 365 q 74 399 74 397 q 78 401 74 401 q 103 424 83 401 q 124 451 110 432 q 153 489 139 469 q 179 523 168 508 q 190 539 190 538 q 183 545 190 540 q 167 557 176 550 q 139 572 143 574 q 123 583 136 571 q 81 624 110 594 q 43 662 58 646 q 28 681 28 678 q 46 681 28 692 q 71 663 50 678 q 117 631 92 649 q 163 597 142 613 q 192 576 185 582 l 208 564 l 238 603 q 261 635 249 618 q 278 658 274 651 q 293 675 290 675 q 310 660 294 675 q 349 621 326 644 l 403 568 l 396 558 q 381 539 393 554 q 357 507 369 524 l 325 464 l 388 403 l 388 403 z "},"":{"ha":590,"x_min":28,"x_max":563,"o":"m 490 653 q 533 603 514 625 q 554 579 551 582 l 563 571 l 560 489 q 558 411 558 456 q 557 338 557 367 q 556 266 557 296 q 551 213 554 236 q 541 172 547 190 q 526 135 535 153 q 461 61 501 83 q 432 47 446 53 q 400 36 418 40 q 358 29 382 32 q 301 24 335 26 q 273 21 285 22 q 261 18 261 19 q 251 18 261 15 l 251 14 q 246 -1 249 7 q 240 -15 243 -8 l 233 -29 l 167 -64 q 119 -89 139 -79 q 99 -99 100 -99 q 106 -74 96 -96 q 114 -48 108 -67 q 126 -3 119 -29 q 141 51 133 22 q 156 107 149 81 l 154 107 q 125 140 136 126 q 107 162 114 153 q 96 177 100 171 q 88 190 92 183 q 78 212 82 200 q 73 242 75 224 q 69 290 71 261 q 67 361 68 318 q 65 402 67 379 q 63 448 64 425 q 61 493 63 471 q 58 532 60 515 q 54 607 56 568 q 51 665 53 646 q 51 706 51 692 q 49 729 50 721 q 44 742 47 738 q 38 751 42 746 q 28 767 28 761 q 38 771 29 768 q 78 786 49 774 q 132 811 108 799 q 188 846 164 829 q 242 886 213 863 q 272 910 267 907 q 279 908 276 913 q 296 890 282 906 q 329 853 310 874 q 344 838 338 844 q 356 824 350 831 q 380 910 371 876 q 389 944 389 943 l 390 957 l 457 992 q 505 1017 485 1007 q 526 1026 525 1026 q 524 1002 529 1025 q 504 926 519 979 q 498 906 503 924 q 485 858 493 888 q 466 790 476 829 q 443 707 456 751 q 464 682 453 696 q 490 653 475 668 m 174 228 q 174 203 174 215 q 175 181 175 192 q 176 186 176 183 q 186 217 178 189 q 207 292 194 246 q 236 398 219 339 q 271 521 253 457 q 306 648 289 585 q 339 767 324 711 q 332 761 335 763 q 306 741 321 751 q 282 724 292 731 q 256 708 271 717 q 224 690 240 699 q 193 675 208 682 q 168 664 178 668 q 151 656 153 658 q 153 633 150 653 q 155 608 154 631 q 157 556 156 585 q 160 494 158 526 q 163 447 161 463 q 168 342 165 394 q 174 228 171 290 m 456 674 l 447 683 q 439 693 446 686 q 392 523 417 613 q 344 356 367 433 q 307 221 322 278 q 288 150 292 164 q 357 175 326 158 q 411 228 389 193 q 443 313 433 264 q 451 378 449 336 q 453 472 453 421 q 453 537 453 499 q 454 604 453 575 l 456 674 z "},"":{"ha":621,"x_min":28,"x_max":592,"o":"m 582 549 q 590 228 582 413 q 592 181 592 199 q 592 151 592 163 q 592 133 592 139 q 590 122 592 126 q 582 97 588 111 q 574 81 576 83 q 560 63 569 81 q 529 33 544 43 q 483 14 514 24 q 461 9 475 11 q 432 7 447 7 q 402 8 417 7 q 375 11 388 8 q 323 26 349 17 q 282 44 297 35 q 254 65 271 51 q 206 111 238 79 q 163 156 182 135 q 138 183 143 176 q 120 213 126 197 q 110 250 114 228 q 103 304 106 272 q 100 382 101 336 q 93 556 99 475 q 78 704 88 636 q 68 766 72 740 q 59 810 64 792 q 49 842 54 829 q 38 868 44 856 q 28 892 28 888 q 44 878 29 893 q 82 842 60 864 q 113 811 101 822 q 130 792 124 800 q 140 778 136 785 q 149 761 144 771 q 160 736 156 750 q 168 714 165 722 q 177 671 172 697 q 186 615 182 644 q 194 555 190 585 q 200 501 197 525 q 204 446 203 469 q 207 399 206 422 q 209 351 208 376 q 211 289 210 325 q 217 180 214 222 q 222 135 219 138 q 233 131 224 133 q 253 126 242 129 q 278 122 265 124 q 299 118 290 119 q 358 121 328 115 q 414 139 388 126 q 446 167 428 146 q 475 213 464 189 l 483 228 l 481 303 q 478 368 479 332 q 475 451 476 404 q 472 556 474 497 q 468 690 469 615 q 466 787 467 740 q 465 849 465 833 l 464 886 l 519 831 q 559 790 543 807 q 575 772 575 774 q 574 748 574 769 q 578 697 575 726 q 580 624 579 667 q 582 549 581 581 m 367 960 q 376 941 374 944 q 375 938 378 938 q 357 953 374 938 q 318 993 340 969 q 282 1029 294 1017 q 261 1055 269 1042 q 244 1086 253 1068 q 221 1138 236 1104 q 201 1183 204 1174 q 200 1193 197 1193 q 217 1178 201 1193 q 254 1140 233 1163 l 307 1088 l 332 1033 q 351 990 342 1011 q 367 960 361 968 z "},"":{"ha":621,"x_min":28,"x_max":592,"o":"m 582 549 q 590 228 582 413 q 592 181 592 199 q 592 151 592 163 q 592 133 592 139 q 590 122 592 126 q 582 97 588 111 q 574 81 576 83 q 560 63 569 81 q 529 33 544 43 q 483 14 514 24 q 461 9 475 11 q 432 7 447 7 q 402 8 417 7 q 375 11 388 8 q 323 26 349 17 q 282 44 297 35 q 254 65 271 51 q 206 111 238 79 q 163 156 182 135 q 138 183 143 176 q 120 213 126 197 q 110 250 114 228 q 103 304 106 272 q 100 382 101 336 q 93 556 99 475 q 78 704 88 636 q 68 766 72 740 q 59 810 64 792 q 49 842 54 829 q 38 868 44 856 q 28 892 28 888 q 44 878 29 893 q 82 842 60 864 q 113 811 101 822 q 130 792 124 800 q 140 778 136 785 q 149 761 144 771 q 160 736 156 750 q 168 714 165 722 q 177 671 172 697 q 186 615 182 644 q 194 555 190 585 q 200 501 197 525 q 204 446 203 469 q 207 399 206 422 q 209 351 208 376 q 211 289 210 325 q 217 180 214 222 q 222 135 219 138 q 233 131 224 133 q 253 126 242 129 q 278 122 265 124 q 299 118 290 119 q 358 121 328 115 q 414 139 388 126 q 446 167 428 146 q 475 213 464 189 l 483 228 l 481 303 q 478 368 479 332 q 475 451 476 404 q 472 556 474 497 q 468 690 469 615 q 466 787 467 740 q 465 849 465 833 l 464 886 l 519 831 q 559 790 543 807 q 575 772 575 774 q 574 748 574 769 q 578 697 575 726 q 580 624 579 667 q 582 549 581 581 m 374 1085 l 354 1046 q 338 1010 347 1031 q 324 978 329 990 q 315 958 319 967 q 311 947 311 949 q 294 961 310 946 q 254 999 278 976 q 217 1037 232 1021 q 201 1054 201 1053 q 210 1081 201 1058 q 231 1128 219 1103 q 253 1173 243 1153 q 264 1193 263 1193 q 281 1177 265 1193 q 319 1139 297 1161 l 374 1085 z "},"":{"ha":621,"x_min":28,"x_max":592,"o":"m 375 11 q 323 26 349 17 q 282 44 297 35 q 254 65 271 51 q 206 111 238 79 q 163 156 182 135 q 138 183 143 176 q 120 213 126 197 q 110 250 114 228 q 103 304 106 272 q 100 382 101 336 q 93 556 99 475 q 78 704 88 636 q 68 766 72 740 q 59 810 64 792 q 49 842 54 829 q 38 868 44 856 q 28 890 28 888 q 44 878 29 893 q 82 842 60 864 q 113 811 101 822 q 130 792 124 800 q 140 778 136 785 q 149 761 144 771 q 160 736 156 750 q 168 713 165 722 q 177 671 172 697 q 186 615 182 644 q 194 555 190 585 q 200 501 197 525 q 204 446 203 469 q 207 399 206 422 q 209 351 208 376 q 211 289 210 325 q 217 180 214 222 q 222 135 219 138 q 233 131 224 133 q 253 126 242 129 q 278 122 265 124 q 299 118 290 119 q 358 121 328 115 q 414 139 388 126 q 446 167 428 146 q 475 213 464 189 l 483 228 l 481 303 q 478 368 479 332 q 475 451 476 404 q 472 556 474 497 q 468 690 469 615 q 466 787 467 740 q 465 849 465 833 l 464 886 l 519 831 q 559 790 543 807 q 575 771 575 774 q 574 748 574 769 q 578 697 575 726 q 580 624 579 667 q 582 549 581 581 q 590 228 582 413 q 592 181 592 199 q 592 151 592 163 q 592 133 592 139 q 590 122 592 126 q 582 97 588 111 q 574 81 576 83 q 560 63 569 81 q 529 33 544 43 q 483 14 514 24 q 461 9 475 11 q 432 7 447 7 q 402 8 417 7 q 375 11 388 8 m 419 1038 q 444 1010 431 1025 q 468 985 458 994 q 479 963 501 951 q 455 985 476 965 q 406 1033 433 1006 q 356 1082 378 1061 q 332 1103 335 1103 q 307 1092 315 1107 q 297 1072 304 1086 q 281 1041 289 1058 q 265 1008 272 1024 q 253 982 257 992 q 247 967 250 974 q 243 960 243 961 q 226 976 242 960 q 188 1014 210 992 l 133 1068 l 142 1090 q 158 1126 147 1106 q 178 1164 168 1146 q 195 1195 188 1182 q 206 1211 203 1208 q 251 1201 222 1221 q 281 1177 258 1197 q 328 1131 303 1157 q 380 1080 354 1106 q 419 1038 406 1054 z "},"":{"ha":621,"x_min":28,"x_max":592,"o":"m 375 11 q 323 26 349 17 q 282 44 297 35 q 254 65 271 51 q 206 111 238 79 q 163 156 182 135 q 138 183 143 176 q 120 213 126 197 q 110 250 114 228 q 103 304 106 272 q 100 382 101 336 q 93 556 99 475 q 78 704 88 636 q 68 766 72 740 q 59 810 64 792 q 49 842 54 829 q 38 868 44 856 q 28 890 28 888 q 44 878 29 893 q 82 842 60 864 q 113 811 101 822 q 130 792 124 800 q 140 778 136 785 q 149 761 144 771 q 160 736 156 750 q 168 713 165 722 q 177 671 172 697 q 186 615 182 644 q 194 555 190 585 q 200 501 197 525 q 204 446 203 469 q 207 399 206 422 q 209 351 208 376 q 211 289 210 325 q 217 180 214 222 q 222 135 219 138 q 233 131 224 133 q 253 126 242 129 q 278 122 265 124 q 299 118 290 119 q 358 121 328 115 q 414 139 388 126 q 446 167 428 146 q 475 213 464 189 l 483 228 l 481 303 q 478 368 479 332 q 475 451 476 404 q 472 556 474 497 q 468 690 469 615 q 466 787 467 740 q 465 849 465 833 l 464 886 l 519 831 q 559 790 543 807 q 575 771 575 774 q 574 748 574 769 q 578 697 575 726 q 580 624 579 667 q 582 549 581 581 q 590 228 582 413 q 592 181 592 199 q 592 151 592 163 q 592 133 592 139 q 590 122 592 126 q 582 97 588 111 q 574 81 576 83 q 560 63 569 81 q 529 33 544 43 q 483 14 514 24 q 461 9 475 11 q 432 7 447 7 q 402 8 417 7 q 375 11 388 8 m 181 1178 q 206 1155 186 1174 q 246 1115 225 1136 q 284 1075 267 1093 q 303 1053 301 1057 q 286 1010 317 1025 q 246 1011 267 999 q 225 1030 242 1014 q 190 1065 208 1046 q 155 1100 171 1083 q 135 1122 139 1117 q 128 1143 128 1129 q 133 1165 128 1157 q 142 1175 140 1175 q 149 1176 146 1175 q 174 1157 153 1178 q 190 1142 186 1146 q 196 1142 194 1139 q 179 1165 197 1144 q 165 1181 168 1176 q 165 1185 163 1185 q 181 1178 171 1185 m 449 1053 q 432 1010 464 1025 q 392 1011 413 999 q 371 1030 388 1014 q 335 1065 354 1046 q 301 1100 317 1083 q 281 1122 285 1117 q 274 1143 275 1129 q 281 1165 274 1157 q 288 1175 285 1175 q 294 1176 292 1175 q 319 1157 299 1178 q 343 1142 342 1136 q 325 1165 343 1147 q 311 1181 314 1176 q 311 1185 308 1185 q 328 1178 317 1185 q 352 1155 333 1174 q 392 1115 371 1136 q 430 1075 413 1093 q 449 1053 447 1057 z "},"":{"ha":510,"x_min":22,"x_max":482,"o":"m 481 699 q 481 615 482 658 q 479 546 481 572 q 478 510 479 533 q 477 460 478 488 q 476 401 476 432 q 476 342 476 371 q 476 232 476 282 q 474 168 475 182 q 333 -53 457 -1 q 311 -60 319 -60 q 283 -62 303 -61 q 256 -62 264 -62 q 231 -56 247 -61 q 201 -44 214 -50 q 176 -29 189 -39 q 145 -3 163 -19 q 100 42 128 14 q 52 90 72 69 q 29 114 32 111 q 54 100 22 131 q 90 72 72 82 q 133 54 108 61 q 191 50 161 46 q 249 69 221 54 q 299 108 276 83 q 338 164 322 132 q 344 181 340 169 q 350 203 347 192 q 355 224 353 215 q 357 233 357 233 q 347 232 356 235 q 315 229 339 229 q 272 235 296 229 q 231 250 249 240 q 203 274 224 254 q 158 317 182 293 q 115 362 135 340 q 89 392 94 383 q 60 478 68 422 q 56 521 57 493 q 53 580 54 549 q 51 643 51 611 q 53 700 51 675 q 57 766 54 733 q 63 826 60 799 q 67 869 65 853 q 72 889 69 886 q 92 874 74 890 q 131 836 110 857 q 167 797 151 815 q 182 778 183 779 q 176 754 179 775 q 171 703 174 733 q 166 635 168 672 q 164 565 164 599 q 164 490 163 528 q 167 420 165 451 q 172 367 169 389 q 179 344 175 346 q 200 340 183 342 q 224 340 217 339 q 339 457 307 357 q 355 516 350 489 q 363 575 360 543 q 365 637 364 600 q 368 711 367 674 q 369 783 369 749 q 368 840 369 818 q 367 883 367 868 q 369 899 368 899 q 387 883 371 899 q 425 844 403 867 l 479 790 l 481 699 m 328 1076 l 308 1038 q 292 1002 301 1022 q 278 969 283 982 q 269 949 274 958 q 265 939 265 940 q 248 953 264 938 q 208 990 232 968 q 171 1028 186 1013 q 156 1046 156 1044 q 165 1072 156 1050 q 185 1119 174 1094 q 207 1165 197 1144 q 218 1185 217 1185 q 235 1169 219 1185 q 274 1131 251 1153 l 328 1076 z "},"":{"ha":439,"x_min":26,"x_max":411,"o":"m 382 357 q 403 293 396 328 q 410 224 411 258 q 401 160 410 189 q 378 113 393 131 q 365 99 374 107 q 347 84 356 92 q 333 71 339 76 q 325 65 326 65 q 306 82 324 65 q 267 119 288 99 q 229 158 246 140 q 213 178 213 176 q 217 178 213 179 q 224 182 218 178 q 239 194 231 186 q 256 210 247 201 q 271 225 265 218 q 285 250 281 238 q 294 285 290 263 q 297 312 296 296 q 298 344 299 328 q 296 376 297 361 q 292 403 294 392 l 288 421 l 228 481 q 185 524 203 506 q 168 543 168 542 q 174 553 168 546 q 188 571 179 560 q 240 661 221 614 q 263 756 260 708 l 264 785 l 254 781 q 222 763 242 775 q 192 740 201 750 q 169 713 181 731 q 151 681 158 696 q 140 632 143 658 q 139 550 138 606 q 141 503 140 524 q 144 455 142 482 q 149 388 146 428 q 157 285 151 349 q 164 203 160 247 q 172 120 168 158 q 179 54 176 82 q 183 22 182 26 q 182 15 183 15 q 165 31 181 15 q 126 69 149 46 q 85 113 97 99 q 71 131 72 126 q 67 162 69 135 q 61 224 64 189 q 55 295 58 260 q 50 354 51 331 q 45 409 47 376 q 40 465 43 442 q 28 653 29 576 q 33 761 26 729 q 53 813 39 786 q 88 856 68 839 q 102 866 92 860 q 124 878 113 872 q 145 890 135 885 q 160 896 156 894 q 218 890 190 904 q 244 869 225 886 q 293 821 263 851 q 331 781 318 796 q 352 756 344 767 q 363 736 360 746 q 369 710 365 726 q 372 688 371 701 q 374 660 374 675 q 372 633 374 646 q 369 610 371 619 q 346 541 363 578 q 310 476 329 504 l 294 456 l 333 415 q 365 380 356 392 q 382 357 375 368 z "},"":{"ha":439,"x_min":22,"x_max":411,"o":"m 88 536 q 47 576 64 560 q 29 596 31 593 q 40 596 22 610 q 72 581 53 585 q 135 578 92 578 q 163 578 151 578 q 181 578 174 578 q 194 580 188 579 q 207 583 200 581 q 250 601 235 592 q 281 631 265 611 l 288 638 l 342 583 l 396 529 l 400 375 q 403 308 401 343 q 405 238 404 272 q 407 175 406 204 q 408 126 408 146 l 411 32 l 406 26 q 378 7 397 18 q 343 -10 358 -4 q 305 -16 329 -14 q 268 -15 281 -18 q 233 -7 253 -12 q 201 4 213 -1 q 190 10 196 7 q 176 22 185 14 q 154 42 167 29 q 121 75 142 54 q 81 115 96 100 q 58 141 67 131 q 47 160 50 151 q 39 181 43 168 q 35 218 36 193 q 34 270 33 243 q 37 322 35 297 q 43 361 39 347 q 50 376 46 375 q 79 368 54 376 q 119 362 94 364 q 172 361 144 360 q 224 366 199 363 q 268 376 250 369 l 290 383 l 290 414 l 290 456 l 288 467 l 257 465 q 201 467 229 464 q 158 476 174 469 q 148 481 153 478 q 136 490 143 483 q 117 507 129 496 q 88 536 106 518 m 296 249 l 250 250 q 208 251 221 250 q 181 258 196 253 q 164 263 171 261 q 156 264 157 264 q 154 257 156 261 q 151 243 151 249 q 147 215 149 232 q 146 161 146 197 l 146 99 l 157 97 q 190 95 172 94 q 222 99 208 96 q 258 110 240 101 q 288 131 276 119 l 300 142 l 297 194 l 296 249 m 283 717 q 293 698 292 701 q 292 694 294 694 l 275 711 q 256 728 267 718 q 235 750 246 739 q 199 786 211 774 q 179 812 188 799 q 162 843 171 825 q 138 894 153 861 q 119 940 122 931 q 118 950 115 950 q 135 935 119 950 q 172 897 150 919 l 225 844 l 249 790 q 269 747 260 768 q 283 717 279 725 z "},"":{"ha":439,"x_min":22,"x_max":411,"o":"m 88 536 q 47 576 64 560 q 29 596 31 593 q 40 596 22 610 q 72 581 53 585 q 135 578 92 578 q 163 578 151 578 q 181 578 174 578 q 194 580 188 579 q 207 583 200 581 q 250 601 235 592 q 281 631 265 611 l 288 638 l 342 583 l 396 529 l 400 375 q 403 308 401 343 q 405 238 404 272 q 407 175 406 204 q 408 126 408 146 l 411 32 l 406 26 q 378 7 397 18 q 343 -10 358 -4 q 305 -16 329 -14 q 268 -15 281 -18 q 233 -7 253 -12 q 201 4 213 -1 q 190 10 196 7 q 176 22 185 14 q 154 42 167 29 q 121 75 142 54 q 81 115 96 100 q 58 141 67 131 q 47 160 50 151 q 39 181 43 168 q 35 218 36 193 q 34 270 33 243 q 37 322 35 297 q 43 361 39 347 q 50 376 46 375 q 79 368 54 376 q 119 362 94 364 q 172 361 144 360 q 224 366 199 363 q 268 376 250 369 l 290 383 l 290 414 l 290 456 l 288 467 l 257 465 q 201 467 229 464 q 158 476 174 469 q 148 481 153 478 q 136 490 143 483 q 117 507 129 496 q 88 536 106 518 m 296 249 l 250 250 q 208 251 221 250 q 181 258 196 253 q 164 263 171 261 q 156 264 157 264 q 154 257 156 261 q 151 243 151 249 q 147 215 149 232 q 146 161 146 197 l 146 99 l 157 97 q 190 95 172 94 q 222 99 208 96 q 258 110 240 101 q 288 131 276 119 l 300 142 l 297 194 l 296 249 m 297 838 l 278 799 q 261 763 269 783 q 247 731 253 743 q 238 710 242 719 q 233 700 235 701 q 216 714 232 699 q 178 751 200 729 q 140 790 156 774 q 125 807 125 806 q 134 833 125 811 q 155 881 143 856 q 176 926 167 906 q 188 946 186 946 q 205 930 189 946 q 243 892 221 914 l 297 838 z "},"":{"ha":439,"x_min":8,"x_max":411,"o":"m 88 536 q 47 576 64 560 q 29 596 31 593 q 40 596 22 610 q 72 581 53 585 q 135 578 92 578 q 163 578 151 578 q 181 578 174 578 q 194 580 188 579 q 207 583 200 581 q 250 601 235 592 q 281 631 265 611 l 288 638 l 342 583 l 396 529 l 400 375 q 403 308 401 343 q 405 238 404 272 q 407 175 406 204 q 408 126 408 146 l 411 32 l 406 26 q 378 7 397 18 q 343 -10 358 -4 q 305 -16 329 -14 q 268 -15 281 -18 q 233 -7 253 -12 q 201 4 213 -1 q 190 10 196 7 q 176 22 185 14 q 154 42 167 29 q 121 75 142 54 q 81 115 96 100 q 58 141 67 131 q 47 160 50 151 q 39 181 43 168 q 35 218 36 193 q 34 270 33 243 q 37 322 35 297 q 43 361 39 347 q 50 376 46 375 q 79 368 54 376 q 119 362 94 364 q 172 361 144 360 q 224 366 199 363 q 268 376 250 369 l 290 383 l 290 414 l 290 456 l 288 467 l 257 465 q 201 467 229 464 q 158 476 174 469 q 148 481 153 478 q 136 490 143 483 q 117 507 129 496 q 88 536 106 518 m 296 249 l 250 250 q 208 251 221 250 q 181 258 196 253 q 164 263 171 261 q 156 264 157 264 q 154 257 156 261 q 151 243 151 249 q 147 215 149 232 q 146 161 146 197 l 146 99 l 157 97 q 190 95 172 94 q 222 99 208 96 q 258 110 240 101 q 288 131 276 119 l 300 142 l 297 194 l 296 249 m 294 800 q 319 772 306 788 q 343 747 333 757 q 354 725 376 714 q 330 748 351 728 q 281 796 308 768 q 231 844 253 824 q 207 865 210 865 q 182 854 190 869 q 172 835 179 849 q 156 803 164 821 q 140 770 147 786 q 128 744 132 754 q 122 730 125 736 q 118 722 118 724 q 101 738 117 722 q 63 776 85 754 l 8 831 l 17 853 q 33 888 22 868 q 53 926 43 908 q 70 958 63 944 q 81 974 78 971 q 126 964 97 983 q 156 940 133 960 q 203 894 178 919 q 255 842 229 868 q 294 800 281 817 z "},"":{"ha":439,"x_min":-28,"x_max":453,"o":"m 88 536 q 47 576 64 560 q 29 596 31 593 q 40 596 22 610 q 72 581 53 585 q 135 578 92 578 q 163 578 151 578 q 181 578 174 578 q 194 580 188 579 q 207 583 200 581 q 250 601 235 592 q 281 631 265 611 l 288 638 l 342 583 l 396 529 l 400 375 q 403 308 401 343 q 405 238 404 272 q 407 175 406 204 q 408 126 408 146 l 411 32 l 406 26 q 378 7 397 18 q 343 -10 358 -4 q 305 -16 329 -14 q 268 -15 281 -18 q 233 -7 253 -12 q 201 4 213 -1 q 190 10 196 7 q 176 22 185 14 q 154 42 167 29 q 121 75 142 54 q 81 115 96 100 q 58 141 67 131 q 47 160 50 151 q 39 181 43 168 q 35 218 36 193 q 34 270 33 243 q 37 322 35 297 q 43 361 39 347 q 50 376 46 375 q 79 368 54 376 q 119 362 94 364 q 172 361 144 360 q 224 366 199 363 q 268 376 250 369 l 290 383 l 290 414 l 290 456 l 288 467 l 257 465 q 201 467 229 464 q 158 476 174 469 q 148 481 153 478 q 136 490 143 483 q 117 507 129 496 q 88 536 106 518 m 296 249 l 250 250 q 208 251 221 250 q 181 258 196 253 q 164 263 171 261 q 156 264 157 264 q 154 257 156 261 q 151 243 151 249 q 147 215 149 232 q 146 161 146 197 l 146 99 l 157 97 q 190 95 172 94 q 222 99 208 96 q 258 110 240 101 q 288 131 276 119 l 300 142 l 297 194 l 296 249 m 401 844 q 432 814 421 825 q 448 797 443 803 q 453 789 453 792 q 451 785 453 786 q 433 770 449 779 q 407 757 418 761 q 368 751 393 751 q 353 751 360 751 q 338 752 346 751 q 317 755 329 753 q 288 761 306 757 q 258 767 269 765 q 236 770 246 769 q 218 772 226 771 q 199 772 210 772 q 144 767 171 772 q 103 751 118 761 q 93 739 86 742 q 94 734 96 736 q 88 732 92 732 q 68 748 85 732 q 28 788 51 764 l -28 843 l -21 851 q 32 878 -8 864 q 55 881 43 881 q 94 882 67 882 q 120 882 110 882 q 140 881 131 882 q 160 878 149 879 q 188 872 171 876 q 232 863 219 865 q 264 863 244 861 q 290 865 282 864 q 308 872 297 867 q 324 881 315 875 q 338 890 332 886 l 347 899 l 401 844 z "},"":{"ha":439,"x_min":15,"x_max":411,"o":"m 88 536 q 47 576 64 560 q 29 596 31 593 q 40 596 22 610 q 72 581 53 585 q 135 578 92 578 q 163 578 151 578 q 181 578 174 578 q 194 580 188 579 q 207 583 200 581 q 250 601 235 592 q 281 631 265 611 l 288 638 l 342 583 l 396 529 l 400 375 q 403 308 401 343 q 405 238 404 272 q 407 175 406 204 q 408 126 408 146 l 411 32 l 406 26 q 378 7 397 18 q 343 -10 358 -4 q 305 -16 329 -14 q 268 -15 281 -18 q 233 -7 253 -12 q 201 4 213 -1 q 190 10 196 7 q 176 22 185 14 q 154 42 167 29 q 121 75 142 54 q 81 115 96 100 q 58 141 67 131 q 47 160 50 151 q 39 181 43 168 q 35 218 36 193 q 34 270 33 243 q 37 322 35 297 q 43 361 39 347 q 50 376 46 375 q 79 368 54 376 q 119 362 94 364 q 172 361 144 360 q 224 366 199 363 q 268 376 250 369 l 290 383 l 290 414 l 290 456 l 288 467 l 257 465 q 201 467 229 464 q 158 476 174 469 q 148 481 153 478 q 136 490 143 483 q 117 507 129 496 q 88 536 106 518 m 296 249 l 250 250 q 208 251 221 250 q 181 258 196 253 q 164 263 171 261 q 156 264 157 264 q 154 257 156 261 q 151 243 151 249 q 147 215 149 232 q 146 161 146 197 l 146 99 l 157 97 q 190 95 172 94 q 222 99 208 96 q 258 110 240 101 q 288 131 276 119 l 300 142 l 297 194 l 296 249 m 68 914 q 93 891 74 910 q 133 851 113 872 q 171 811 154 829 q 190 789 188 793 q 172 746 204 761 q 133 747 154 735 q 113 766 129 750 q 77 801 96 782 q 42 836 58 819 q 21 858 25 853 q 15 879 15 865 q 21 901 15 893 q 29 911 25 911 q 35 913 33 911 q 61 893 39 914 q 78 878 74 882 q 83 878 82 875 q 65 901 85 882 q 51 917 54 913 q 51 921 49 921 q 68 914 58 921 m 336 789 q 319 746 349 761 q 279 747 300 735 q 258 766 275 750 q 223 801 242 782 q 188 836 204 819 q 168 858 172 853 q 161 879 161 865 q 167 901 161 893 q 175 911 171 911 q 182 913 179 911 q 207 893 186 914 q 224 878 219 882 q 229 878 228 875 q 213 901 231 881 q 199 917 201 913 q 199 921 196 921 q 214 914 204 921 q 239 891 219 910 q 279 851 258 872 q 317 811 300 829 q 336 789 333 793 z "},"":{"ha":439,"x_min":22,"x_max":411,"o":"m 88 536 q 47 576 64 560 q 29 596 31 593 q 40 596 22 610 q 72 581 53 585 q 135 578 92 578 q 163 578 151 578 q 181 578 174 578 q 194 580 188 579 q 207 583 200 581 q 250 601 235 592 q 281 631 265 611 l 288 638 l 342 583 l 396 529 l 400 375 q 403 308 401 343 q 405 238 404 272 q 407 175 406 204 q 408 126 408 146 l 411 32 l 406 26 q 378 7 397 18 q 343 -10 358 -4 q 305 -16 329 -14 q 268 -15 281 -18 q 233 -7 253 -12 q 201 4 213 -1 q 190 10 196 7 q 176 22 185 14 q 154 42 167 29 q 121 75 142 54 q 81 115 96 100 q 58 141 67 131 q 47 160 50 151 q 39 181 43 168 q 35 218 36 193 q 34 270 33 243 q 37 322 35 297 q 43 361 39 347 q 50 376 46 375 q 79 368 54 376 q 119 362 94 364 q 172 361 144 360 q 224 366 199 363 q 268 376 250 369 l 290 383 l 290 414 l 290 456 l 288 467 l 257 465 q 201 467 229 464 q 158 476 174 469 q 148 481 153 478 q 136 490 143 483 q 117 507 129 496 q 88 536 106 518 m 296 249 l 250 250 q 208 251 221 250 q 181 258 196 253 q 164 263 171 261 q 156 264 157 264 q 154 257 156 261 q 151 243 151 249 q 147 215 149 232 q 146 161 146 197 l 146 99 l 157 97 q 190 95 172 94 q 222 99 208 96 q 258 110 240 101 q 288 131 276 119 l 300 142 l 297 194 l 296 249 m 306 864 q 282 779 310 821 q 204 740 251 735 q 181 747 193 743 q 161 756 168 751 q 141 773 156 760 q 112 801 126 786 q 85 831 97 817 q 71 849 72 844 q 66 907 60 872 q 93 968 72 942 q 122 994 106 983 q 154 1008 139 1006 q 165 1010 161 1010 q 178 1003 169 1010 q 200 983 186 997 q 240 943 214 969 l 303 881 l 306 864 m 196 836 q 224 882 213 853 q 232 931 235 911 q 225 935 231 936 q 217 933 222 935 q 207 928 213 931 q 177 906 193 921 q 154 878 161 890 q 138 826 140 851 l 138 814 l 146 814 q 164 817 153 814 q 180 823 174 819 q 196 836 186 826 z "},"":{"ha":743,"x_min":22,"x_max":715,"o":"m 521 54 q 505 62 511 58 q 490 73 499 65 q 466 95 481 81 q 425 136 451 110 l 407 154 q 408 140 407 147 q 408 126 408 133 l 411 32 l 404 26 q 378 7 397 18 q 343 -10 358 -4 q 305 -16 329 -14 q 268 -15 281 -18 q 233 -7 253 -12 q 201 4 213 -1 q 189 11 194 7 q 175 22 183 15 q 154 42 167 29 q 121 75 142 54 q 81 115 96 100 q 58 141 67 131 q 47 160 50 151 q 39 181 43 168 q 33 218 35 193 q 33 270 32 243 q 36 322 33 297 q 43 361 39 347 q 50 376 46 375 q 79 368 54 376 q 119 362 94 364 q 172 361 144 360 q 224 366 199 363 q 268 376 250 369 l 290 383 l 290 414 l 290 456 l 288 467 l 257 465 q 201 467 229 464 q 158 476 174 469 q 148 481 153 478 q 136 490 143 483 q 117 507 129 496 q 88 536 106 518 q 47 576 64 560 q 29 596 31 593 q 40 596 22 610 q 72 581 53 585 q 135 578 92 578 q 181 578 169 578 q 207 583 193 579 q 250 601 235 592 q 281 631 265 611 l 288 638 l 342 583 l 392 533 q 415 583 406 564 q 430 612 424 601 q 440 626 436 622 q 446 629 443 629 q 461 617 449 629 q 492 588 474 606 q 531 550 508 571 q 568 515 553 529 q 610 477 586 500 q 658 431 635 454 q 697 392 681 408 q 714 372 714 375 q 706 356 715 368 q 664 310 696 344 q 618 263 642 286 q 583 229 594 240 q 562 208 572 218 q 549 193 551 197 q 538 182 540 182 q 522 196 536 182 q 488 229 507 210 l 442 276 l 438 261 q 433 217 433 240 q 436 175 433 193 q 440 160 438 168 q 442 153 442 156 q 449 150 444 151 q 456 147 451 149 q 465 144 460 146 q 507 135 485 138 q 569 131 529 133 l 607 128 l 660 76 q 697 38 682 54 q 713 21 713 22 q 703 17 713 18 q 667 19 694 17 q 588 29 618 22 q 521 54 557 36 m 543 510 q 525 474 539 503 q 497 415 511 446 q 471 357 482 383 q 460 328 460 331 q 469 334 460 326 q 492 356 478 342 q 522 387 506 369 q 554 421 539 404 q 582 453 572 442 q 594 467 588 460 q 571 492 594 471 l 547 515 l 543 510 m 300 142 l 296 249 l 250 250 q 208 251 221 250 q 181 258 196 253 q 164 263 171 261 q 156 264 157 264 q 154 257 156 261 q 151 243 151 249 q 147 215 149 232 q 146 161 146 197 l 146 99 l 157 97 q 190 95 172 94 q 222 99 208 96 q 258 110 240 101 q 288 131 276 119 l 300 142 z "}}}
